<svg width="33" height="27" viewBox="0 0 33 27" fill="none" xmlns="http://www.w3.org/2000/svg">
<path d="M10.7214 1H31.5547V19.0556H10.7214V1Z" stroke="#57437B" stroke-width="2" stroke-linecap="round" stroke-linejoin="round"/>
<path d="M10.7207 7.94434H5.16515L0.99848 12.111V19.0554H10.7207V7.94434Z" stroke="#57437B" stroke-width="2" stroke-linecap="round" stroke-linejoin="round"/>
<path d="M25.3051 26.0001C23.3875 26.0001 21.8329 24.4455 21.8329 22.5279C21.8329 20.6102 23.3875 19.0557 25.3051 19.0557C27.2228 19.0557 28.7773 20.6102 28.7773 22.5279C28.7773 24.4455 27.2228 26.0001 25.3051 26.0001Z" stroke="#57437B" stroke-width="2" stroke-linecap="round" stroke-linejoin="round"/>
<path d="M7.24848 26.0001C5.33083 26.0001 3.77626 24.4455 3.77626 22.5279C3.77626 20.6102 5.33083 19.0557 7.24848 19.0557C9.16614 19.0557 10.7207 20.6102 10.7207 22.5279C10.7207 24.4455 9.16614 26.0001 7.24848 26.0001Z" stroke="#57437B" stroke-width="2" stroke-linecap="round" stroke-linejoin="round"/>
</svg>
