<svg width="30" height="30" viewBox="0 0 30 30" fill="none" xmlns="http://www.w3.org/2000/svg">
<mask id="mask0_98_2026" style="mask-type:luminance" maskUnits="userSpaceOnUse" x="0" y="0" width="31" height="30">
<path fill-rule="evenodd" clip-rule="evenodd" d="M0 0H30.0024V29.9998H0V0Z" fill="white"/>
</mask>
<g mask="url(#mask0_98_2026)">
<path fill-rule="evenodd" clip-rule="evenodd" d="M13.4172 27.1116C14.3022 27.9756 15.7271 27.9651 16.6061 27.0816L17.689 26.0017C18.5289 25.1633 19.6899 24.6848 20.8733 24.6848H22.4182C23.6691 24.6848 24.6861 23.6678 24.6861 22.4184V20.875C24.6861 19.6736 25.1511 18.5441 26 17.6937L27.0799 16.6122C27.5194 16.1713 27.7549 15.5998 27.7534 14.9938C27.7519 14.3894 27.5134 13.8209 27.0829 13.3919L26.0015 12.309C25.1511 11.4525 24.6861 10.3246 24.6861 9.12319V7.58277C24.6861 6.33185 23.6691 5.31491 22.4182 5.31491H20.8763C19.6749 5.31491 18.5454 4.84843 17.695 4.00398L16.6121 2.91955C15.7106 2.0271 14.2722 2.0316 13.3917 2.91805L12.3133 3.99948C11.4524 4.84993 10.3229 5.31491 9.12599 5.31491H7.58258C6.33315 5.31641 5.31621 6.33335 5.31621 7.58277V9.12019C5.31621 10.3216 4.84974 11.4511 4.00379 12.303L2.93885 13.3694C2.92835 13.3814 2.91785 13.3904 2.90735 13.4009C2.0269 14.2874 2.0314 15.7258 2.91785 16.6063L4.00078 17.6892C4.84974 18.5411 5.31621 19.6706 5.31621 20.872V22.4184C5.31621 23.6678 6.33165 24.6848 7.58258 24.6848H9.12299C10.3259 24.6863 11.4554 25.1528 12.3058 26.0002L13.3872 27.0786C13.3962 27.0891 13.4067 27.0996 13.4172 27.1116ZM14.9972 30.0003C13.8468 30.0003 12.6963 29.5654 11.8159 28.6924C11.8039 28.6804 11.7919 28.6684 11.7799 28.6549L10.715 27.5915C10.2905 27.17 9.72352 26.936 9.12055 26.9345H7.58164C5.09029 26.9345 3.06541 24.9081 3.06541 22.4183V20.8719C3.06541 20.2689 2.82992 19.7034 2.40694 19.2775L1.32851 18.2005C-0.423392 16.4576 -0.444391 13.6198 1.27601 11.8499C1.28951 11.8364 1.30301 11.8229 1.31651 11.8094L2.40844 10.7145C2.82992 10.29 3.06541 9.72151 3.06541 9.12005V7.58264C3.06541 5.09278 5.09029 3.0664 7.58014 3.0649H9.12505C9.72652 3.0649 10.2935 2.82942 10.724 2.40494L11.7964 1.3295C13.5498 -0.435895 16.4161 -0.444894 18.1845 1.313L19.281 2.40944C19.7054 2.83092 20.2724 3.0649 20.8754 3.0649H22.4173C24.9086 3.0649 26.935 5.09128 26.935 7.58264V9.12305C26.935 9.72451 27.169 10.293 27.5935 10.7205L28.6704 11.7989C29.5239 12.6463 29.9978 13.7788 30.0023 14.9862C30.0068 16.1936 29.5404 17.3291 28.6899 18.1855L27.5905 19.282C27.169 19.7064 26.935 20.2719 26.935 20.8749V22.4183C26.935 24.9081 24.9086 26.9345 22.4188 26.9345H20.8724C20.2784 26.9345 19.6979 27.1745 19.2765 27.593L18.1995 28.6699C17.3191 29.5564 16.1581 30.0003 14.9972 30.0003Z" fill="#57437B"/>
</g>
<path fill-rule="evenodd" clip-rule="evenodd" d="M11.1441 19.9811C10.8561 19.9811 10.5681 19.8716 10.3491 19.6511C9.90966 19.2116 9.90966 18.5006 10.3491 18.0612L18.0587 10.3501C18.4982 9.91064 19.2106 9.91064 19.6501 10.3501C20.0896 10.7896 20.0896 11.502 19.6501 11.9415L11.939 19.6511C11.7201 19.8716 11.4321 19.9811 11.1441 19.9811Z" fill="#57437B"/>
<path fill-rule="evenodd" clip-rule="evenodd" d="M18.7535 20.2479C17.9241 20.2479 17.2461 19.5774 17.2461 18.748C17.2461 17.9185 17.9106 17.248 18.74 17.248H18.7535C19.583 17.248 20.2534 17.9185 20.2534 18.748C20.2534 19.5774 19.583 20.2479 18.7535 20.2479Z" fill="#57437B"/>
<path fill-rule="evenodd" clip-rule="evenodd" d="M11.2555 12.7479C10.426 12.7479 9.74805 12.0774 9.74805 11.248C9.74805 10.4185 10.4125 9.74805 11.242 9.74805H11.2555C12.0849 9.74805 12.7554 10.4185 12.7554 11.248C12.7554 12.0774 12.0849 12.7479 11.2555 12.7479Z" fill="#57437B"/>
</svg>
