<svg width="31" height="30" viewBox="0 0 31 30" fill="none" xmlns="http://www.w3.org/2000/svg">
<path d="M1.5 24.3333V15C1.5 11.287 2.975 7.72602 5.60051 5.10051C8.22602 2.475 11.787 1 15.5 1C19.213 1 22.774 2.475 25.3995 5.10051C28.025 7.72602 29.5 11.287 29.5 15V24.3333" stroke="#57437B" stroke-width="2" stroke-linecap="round" stroke-linejoin="round"/>
<path d="M29.5 25.8891C29.5 26.7142 29.1722 27.5055 28.5888 28.089C28.0053 28.6724 27.214 29.0002 26.3889 29.0002H24.8333C24.0082 29.0002 23.2169 28.6724 22.6335 28.089C22.05 27.5055 21.7222 26.7142 21.7222 25.8891V21.2224C21.7222 20.3973 22.05 19.606 22.6335 19.0226C23.2169 18.4391 24.0082 18.1113 24.8333 18.1113H29.5V25.8891ZM1.5 25.8891C1.5 26.7142 1.82778 27.5055 2.41122 28.089C2.99467 28.6724 3.78599 29.0002 4.61111 29.0002H6.16667C6.99179 29.0002 7.78311 28.6724 8.36656 28.089C8.95 27.5055 9.27778 26.7142 9.27778 25.8891V21.2224C9.27778 20.3973 8.95 19.606 8.36656 19.0226C7.78311 18.4391 6.99179 18.1113 6.16667 18.1113H1.5V25.8891Z" stroke="#57437B" stroke-width="2" stroke-linecap="round" stroke-linejoin="round"/>
</svg>
