<svg width="16" height="17" viewBox="0 0 16 17" fill="none" xmlns="http://www.w3.org/2000/svg">
<path d="M13.3293 8.5V16H2.72461V8.5" stroke="#90969B" stroke-width="1.4" stroke-linecap="round" stroke-linejoin="round"/>
<path d="M14.6523 4.75H1.39648V8.5H14.6523V4.75Z" stroke="#90969B" stroke-width="1.4" stroke-linecap="round" stroke-linejoin="round"/>
<path d="M8.02344 16V4.75" stroke="#90969B" stroke-width="1.4" stroke-linecap="round" stroke-linejoin="round"/>
<path d="M8.0243 4.75H5.04174C4.60228 4.75 4.18083 4.55246 3.87008 4.20083C3.55934 3.84919 3.38477 3.37228 3.38477 2.875C3.38477 2.37772 3.55934 1.90081 3.87008 1.54917C4.18083 1.19754 4.60228 1 5.04174 1C7.36151 1 8.0243 4.75 8.0243 4.75Z" stroke="#90969B" stroke-width="1.4" stroke-linecap="round" stroke-linejoin="round"/>
<path d="M8.02344 4.75H11.006C11.4455 4.75 11.8669 4.55246 12.1777 4.20083C12.4884 3.84919 12.663 3.37228 12.663 2.875C12.663 2.37772 12.4884 1.90081 12.1777 1.54917C11.8669 1.19754 11.4455 1 11.006 1C8.68623 1 8.02344 4.75 8.02344 4.75Z" stroke="#90969B" stroke-width="1.4" stroke-linecap="round" stroke-linejoin="round"/>
</svg>
