<svg width="15" height="17" viewBox="0 0 15 17" fill="none" xmlns="http://www.w3.org/2000/svg">
<path d="M5.73142 14.8316V12.5719C5.7314 11.9971 6.14549 11.5301 6.65854 11.5262H8.53784C9.05334 11.5262 9.47123 11.9944 9.47123 12.5719V12.5719V14.8386C9.47111 15.3266 9.81879 15.7254 10.2543 15.7368H11.5071C12.7561 15.7368 13.7686 14.6026 13.7686 13.2035V13.2035V6.77525C13.7619 6.22482 13.5312 5.70794 13.1421 5.37171L8.85733 1.50496C8.10667 0.83168 7.03959 0.83168 6.28894 1.50496L2.02292 5.37873C1.63237 5.7136 1.40129 6.23133 1.39648 6.78227V13.2035C1.39648 14.6026 2.40896 15.7368 3.65792 15.7368H4.91079C5.35709 15.7368 5.71889 15.3315 5.71889 14.8316V14.8316" stroke="#90969B" stroke-width="1.5" stroke-linecap="round" stroke-linejoin="round"/>
</svg>
