<svg width="16" height="17" viewBox="0 0 16 17" fill="none" xmlns="http://www.w3.org/2000/svg">
<path fill-rule="evenodd" clip-rule="evenodd" d="M2.54913 1C1.91278 1 1.39648 1.59405 1.39648 2.32534V3.10537C1.39648 3.64706 1.57852 4.16798 1.90415 4.55981L5.47272 8.8536L5.47429 8.8509C6.16321 9.64899 6.55083 10.7279 6.55083 11.8528V15.6626C6.55083 15.9172 6.78622 16.0798 6.9816 15.9597L9.01383 14.7066C9.32063 14.517 9.51208 14.1486 9.51208 13.7487V11.8428C9.51208 10.7242 9.8942 9.64989 10.5768 8.8536L14.1454 4.55981C14.4703 4.16798 14.6523 3.64706 14.6523 3.10537V2.32534C14.6523 1.59405 14.1368 1 13.5004 1H2.54913Z" stroke="#90969B" stroke-width="1.5" stroke-linecap="round" stroke-linejoin="round"/>
</svg>
