<svg width="16" height="17" viewBox="0 0 16 17" fill="none" xmlns="http://www.w3.org/2000/svg">
<path d="M2.99936 4.54975C2.99936 3.52014 3.7366 2.6859 4.64649 2.68508H5.3961C5.83102 2.68508 6.24771 2.48971 6.55659 2.14348L7.08038 1.54995C7.72218 0.819578 8.76539 0.816281 9.41083 1.54253L9.41156 1.54336L9.41812 1.54995L9.94263 2.14348C10.2515 2.49053 10.6682 2.68508 11.1031 2.68508H11.852C12.7619 2.68508 13.4999 3.51932 13.4999 4.54975V5.39636C13.4999 5.88849 13.6718 6.36084 13.9785 6.71037L14.503 7.3039C15.1484 8.03015 15.1521 9.21061 14.5103 9.94098L14.5096 9.94181L14.503 9.94923L13.9785 10.5428C13.6718 10.8915 13.4999 11.363 13.4999 11.8551V12.7034C13.4999 13.733 12.7626 14.5672 11.8527 14.5672H11.852H11.1017C10.6668 14.5672 10.2493 14.7626 9.94117 15.1096L9.41666 15.7024C8.77559 16.4327 7.73311 16.4368 7.08767 15.7122C7.08694 15.7114 7.08621 15.7106 7.08548 15.7098L7.07892 15.7024L6.55514 15.1096C6.24699 14.7626 5.82956 14.568 5.39465 14.5672H4.64649C3.7366 14.5672 2.99936 13.733 2.99936 12.7034V11.8535C2.99936 11.3613 2.82671 10.8898 2.52001 10.5411L1.99623 9.94758C1.35078 9.22215 1.34714 8.04251 1.98821 7.31214C1.98821 7.31132 1.98894 7.31049 1.98967 7.30967L1.99623 7.30225L2.52001 6.70872C2.82671 6.35919 2.99936 5.88767 2.99936 5.39471V4.54975" stroke="#90969B" stroke-width="1.5" stroke-linecap="round" stroke-linejoin="round"/>
<path d="M6.38086 10.745L10.1253 6.50781" stroke="#90969B" stroke-width="1.5" stroke-linecap="round" stroke-linejoin="round"/>
<path d="M10.07 10.6856H10.0765" stroke="#90969B" stroke-width="2" stroke-linecap="round" stroke-linejoin="round"/>
<path d="M6.42737 6.56452H6.43393" stroke="#90969B" stroke-width="2" stroke-linecap="round" stroke-linejoin="round"/>
</svg>
