<svg width="17" height="16" viewBox="0 0 17 16" fill="none" xmlns="http://www.w3.org/2000/svg">
<path fill-rule="evenodd" clip-rule="evenodd" d="M10.903 1.26076C11.6749 1.60843 11.9111 2.81924 12.2268 3.20843C12.5424 3.59762 12.9941 3.72995 13.2441 3.72995C14.5724 3.72995 15.6493 4.94854 15.6493 6.45081V11.4627C15.6493 13.4778 14.2048 15.1124 12.424 15.1124H4.73511C2.95353 15.1124 1.50977 13.4778 1.50977 11.4627V6.45081C1.50977 4.94854 2.58666 3.72995 3.91502 3.72995C4.16418 3.72995 4.61588 3.59762 4.9323 3.20843C5.24795 2.81924 5.48336 1.60843 6.2553 1.26076C7.02801 0.913081 10.1311 0.913081 10.903 1.26076Z" stroke="#90969B" stroke-width="1.5" stroke-linecap="round" stroke-linejoin="round"/>
<path d="M12.783 5.97345H12.7899" stroke="#90969B" stroke-width="1.5" stroke-linecap="round" stroke-linejoin="round"/>
<path fill-rule="evenodd" clip-rule="evenodd" d="M11.0137 9.11073C11.0137 7.59203 9.92611 6.36133 8.584 6.36133C7.24189 6.36133 6.1543 7.59203 6.1543 9.11073C6.1543 10.6294 7.24189 11.8601 8.584 11.8601C9.92611 11.8601 11.0137 10.6294 11.0137 9.11073Z" stroke="#90969B" stroke-width="1.5" stroke-linecap="round" stroke-linejoin="round"/>
</svg>
