<svg width="29" height="39" viewBox="0 0 29 39" fill="none" xmlns="http://www.w3.org/2000/svg">
<mask id="path-1-outside-1_98_1526" maskUnits="userSpaceOnUse" x="2" y="0" width="27" height="17" fill="black">
<rect fill="white" x="2" width="27" height="17"/>
<path d="M11.4 15.4H4.2L10.26 0.999997H14.82L11.4 15.4ZM24.12 15.4H16.92L23.04 0.999997H27.6L24.12 15.4Z"/>
</mask>
<path d="M11.4 15.4V16.4H12.1903L12.3729 15.6311L11.4 15.4ZM4.2 15.4L3.27829 15.0121L2.69422 16.4H4.2V15.4ZM10.26 0.999997V-2.86102e-06H9.59589L9.33829 0.612112L10.26 0.999997ZM14.82 0.999997L15.7929 1.23107L16.0853 -2.86102e-06H14.82V0.999997ZM24.12 15.4V16.4H24.9071L25.092 15.6349L24.12 15.4ZM16.92 15.4L15.9997 15.0089L15.4084 16.4H16.92V15.4ZM23.04 0.999997V-2.86102e-06H22.3784L22.1197 0.608856L23.04 0.999997ZM27.6 0.999997L28.572 1.2349L28.8705 -2.86102e-06H27.6V0.999997ZM11.4 14.4H4.2V16.4H11.4V14.4ZM5.12171 15.7879L11.1817 1.38788L9.33829 0.612112L3.27829 15.0121L5.12171 15.7879ZM10.26 2H14.82V-2.86102e-06H10.26V2ZM13.8471 0.768925L10.4271 15.1689L12.3729 15.6311L15.7929 1.23107L13.8471 0.768925ZM24.12 14.4H16.92V16.4H24.12V14.4ZM17.8403 15.7911L23.9603 1.39114L22.1197 0.608856L15.9997 15.0089L17.8403 15.7911ZM23.04 2H27.6V-2.86102e-06H23.04V2ZM26.628 0.765093L23.148 15.1651L25.092 15.6349L28.572 1.2349L26.628 0.765093Z" fill="#010F1C" fill-opacity="0.7" mask="url(#path-1-outside-1_98_1526)"/>
</svg>
