<svg xmlns="http://www.w3.org/2000/svg" class="pt-svg-arrow" width="34.899" height="14.585" viewBox="0 0 34.899 14.585"><path d="M.5,6.388c6.609,0,11.487-6.142,11.535-6.2a.6.6,0,0,1,.684-.131.33.33,0,0,1,.176.513A19.589,19.589,0,0,1,4.765,6.388H33.4c.275,0,.5.168.5.376s-.223.376-.5.376H4.765a19.591,19.591,0,0,1,8.128,5.822.331.331,0,0,1-.179.514.6.6,0,0,1-.68-.133c-.048-.062-4.926-6.2-11.535-6.2-.275,0-.5-.168-.5-.376S.223,6.388.5,6.388Z" transform="translate(34.399 14.056) rotate(180)" fill="white" stroke="white" stroke-width="1"></path></svg>