<?xml version="1.0" encoding="utf-8"?>
<!-- Generator: Adobe Illustrator 25.4.1, SVG Export Plug-In . SVG Version: 6.00 Build 0)  -->
<svg version="1.1" id="Layer_1" xmlns="http://www.w3.org/2000/svg" xmlns:xlink="http://www.w3.org/1999/xlink" x="0px" y="0px"
	 viewBox="0 0 116 51" style="enable-background:new 0 0 116 51;" xml:space="preserve">
<style type="text/css">
	.st0{fill:#FFFFFF;}
	.st1{fill-rule:evenodd;clip-rule:evenodd;fill:#FFFFFF;}
	.st2{fill-rule:evenodd;clip-rule:evenodd;fill:#E6E7E8;}
</style>
<g id="XMLID_11_">
	<g id="XMLID_381_">
		<g id="XMLID_434_">
			<path id="XMLID_635_" class="st0" d="M4.3,37.8h4.9V40H4.3v3.7H1.7V33.4h8.1v2.3H4.3V37.8z"/>
			<path id="XMLID_633_" class="st0" d="M19.7,39.1c0,3-1.9,4.9-4.6,4.9c-2.8,0-4.7-1.9-4.7-4.9v-5.7h2.6v5.7c0,1.6,0.9,2.6,2.2,2.6
				c1.2,0,2.1-1,2.1-2.6v-5.7h2.6V39.1z"/>
			<path id="XMLID_631_" class="st0" d="M28.6,43.8h-7.7V33.4h2.6v8.2h5.1V43.8z"/>
			<path id="XMLID_629_" class="st0" d="M37.1,43.8h-7.7V33.4h2.6v8.2h5.1V43.8z"/>
			<path id="XMLID_448_" class="st0" d="M46,33.4c2.3,0,3.8,1.4,3.8,3.6c0,2.2-1.5,3.6-3.9,3.6h-2.5v3.2h-2.6V33.4H46z M45.7,38.4
				c1,0,1.6-0.6,1.6-1.5c0-0.8-0.6-1.4-1.6-1.4h-2.3v2.9H45.7z"/>
			<path id="XMLID_445_" class="st0" d="M56.9,43.8l-0.7-1.9h-4.4l-0.7,1.9h-2.8l4.4-10.4h2.6l4.4,10.4H56.9z M54,36.3l-1.3,3.4h2.7
				L54,36.3z"/>
			<path id="XMLID_443_" class="st0" d="M70,39.9c-0.5,2.6-2.6,4.1-5.3,4.1c-3.1,0-5.5-2.4-5.5-5.4c0-3,2.4-5.4,5.5-5.4
				c2.6,0,4.7,1.5,5.2,4l-2.5,0.6c-0.3-1.5-1.4-2.2-2.7-2.2c-1.6,0-3,1.3-3,3.1c0,1.8,1.3,3.1,3,3.1c1.3,0,2.4-0.7,2.7-2.3L70,39.9z
				"/>
			<path id="XMLID_441_" class="st0" d="M77.9,43.8l-2.7-4L73.4,42v1.8h-2.6V33.4h2.6v5.1l4.3-5.1h2.9l-3.7,4.5l4.2,6H77.9z"/>
			<path id="XMLID_439_" class="st0" d="M85.2,41.5h2v2.2h-6.5v-2.2h2v-5.9h-2v-2.2h6.5v2.2h-2V41.5z"/>
			<path id="XMLID_437_" class="st0" d="M97.7,43.8h-2.1l-5.3-6v6h-2.6V33.4h2.1l5.3,6.2v-6.2h2.5V43.8z"/>
			<path id="XMLID_435_" class="st0" d="M109.5,37.6c0,0.4,0.1,0.7,0.1,0.9c0,3.2-2.3,5.4-5.4,5.4c-3.2,0-5.6-2.4-5.6-5.4
				c0-3,2.4-5.4,5.6-5.4c2.3,0,4.4,1.1,5.1,3.1l-2.5,0.7c-0.6-1.2-1.6-1.5-2.6-1.5c-1.7,0-3,1.3-3,3.1c0,1.8,1.3,3.1,3.1,3.1
				c1.4,0,2.4-0.7,2.8-1.9h-3.2v-2.2H109.5z"/>
		</g>
		<g id="XMLID_430_">
			<polygon id="XMLID_433_" class="st1" points="46.7,8.9 46.7,21.2 59,21.2 59,17.1 63.1,12.9 63.1,25.3 42.6,25.3 42.6,4.8 
				55,4.8 50.8,8.9 			"/>
			<polygon id="XMLID_432_" class="st1" points="60.2,0.6 67.3,0.6 63.1,4.8 56,4.8 			"/>
			<polygon id="XMLID_431_" class="st2" points="67.3,7.7 67.3,0.6 63.1,4.7 63.1,11.8 			"/>
		</g>
		<g id="XMLID_382_">
			<path id="XMLID_428_" class="st0" d="M2.7,46.9v2.2H2v-2.2H2.7z"/>
			<path id="XMLID_427_" class="st0" d="M2.3,46.7c-0.1,0-0.1,0-0.2,0c-0.1,0-0.1-0.1-0.1-0.1C2,46.4,2,46.4,2,46.3
				c0-0.1,0-0.1,0-0.2c0-0.1,0.1-0.1,0.1-0.1c0.1,0,0.1,0,0.2,0c0.1,0,0.1,0,0.2,0c0.1,0,0.1,0.1,0.1,0.1c0,0.1,0,0.1,0,0.2
				s0,0.1,0,0.2c0,0.1-0.1,0.1-0.1,0.1C2.5,46.6,2.4,46.7,2.3,46.7z"/>
			<path id="XMLID_425_" class="st0" d="M7.4,47.5c-0.2,0-0.3,0.1-0.3,0.4v1.3H6.4v-1.3c0-0.6,0.3-1,1-1h0c0.6,0,1,0.4,1,1v1.3H7.7
				v-1.3C7.7,47.6,7.6,47.5,7.4,47.5L7.4,47.5z"/>
			<path id="XMLID_423_" class="st0" d="M13.1,47.5c-0.2,0-0.3,0.1-0.3,0.4v1.3h-0.7v-1.3c0-0.6,0.3-1,1-1h0c0.6,0,1,0.4,1,1v1.3
				h-0.7v-1.3C13.4,47.6,13.3,47.5,13.1,47.5L13.1,47.5z"/>
			<path id="XMLID_420_" class="st0" d="M17.8,48c0-0.2,0-0.3,0.1-0.5c0.1-0.1,0.2-0.3,0.3-0.4c0.1-0.1,0.3-0.2,0.4-0.3
				c0.2-0.1,0.3-0.1,0.5-0.1c0.2,0,0.3,0,0.5,0.1c0.2,0.1,0.3,0.1,0.4,0.3c0.1,0.1,0.2,0.2,0.3,0.4c0.1,0.2,0.1,0.3,0.1,0.5
				c0,0.2,0,0.3-0.1,0.5c-0.1,0.1-0.2,0.3-0.3,0.4c-0.1,0.1-0.3,0.2-0.4,0.3c-0.2,0.1-0.3,0.1-0.5,0.1c-0.2,0-0.4-0.1-0.6-0.2
				c-0.2-0.1-0.4-0.3-0.5-0.4C17.8,48.5,17.8,48.3,17.8,48z M19.5,48.4c0.1-0.1,0.2-0.2,0.2-0.4c0-0.1,0-0.2-0.1-0.3
				c-0.1-0.1-0.1-0.2-0.2-0.2c-0.1-0.1-0.2-0.1-0.3-0.1c-0.1,0-0.2,0-0.3,0.1c-0.1,0-0.2,0.1-0.2,0.2c-0.1,0.1-0.1,0.2-0.1,0.3
				c0,0.2,0.1,0.3,0.2,0.4c0.1,0.1,0.3,0.2,0.4,0.2C19.2,48.6,19.4,48.6,19.5,48.4z"/>
			<path id="XMLID_418_" class="st0" d="M26,46.9l-1.2,2.3l-1.1-2.3l0.7,0l0.4,1l0.4-1H26z"/>
			<path id="XMLID_415_" class="st0" d="M31.2,49.1c-0.1,0-0.1,0-0.1,0c-0.2,0.1-0.3,0.1-0.5,0.1c-0.2,0-0.4-0.1-0.6-0.2
				c-0.2-0.1-0.4-0.2-0.5-0.4c-0.1-0.2-0.2-0.4-0.2-0.6c0-0.2,0-0.3,0.1-0.5c0.1-0.1,0.2-0.3,0.3-0.4c0.1-0.1,0.3-0.2,0.4-0.2
				c0.2-0.1,0.3-0.1,0.5-0.1c0.2,0,0.3,0,0.5,0.1c0.2,0.1,0.3,0.1,0.4,0.3c0.1,0.1,0.2,0.2,0.3,0.4c0.1,0.2,0.1,0.3,0.1,0.5l0,1.1
				L31.2,49.1L31.2,49.1z M30.6,47.5c-0.1,0-0.2,0-0.3,0.1c-0.1,0-0.2,0.1-0.2,0.2C30,47.8,30,47.9,30,48c0,0.2,0.1,0.3,0.2,0.4
				c0.1,0.1,0.3,0.2,0.4,0.2c0.2,0,0.3-0.1,0.4-0.2c0.1-0.1,0.2-0.2,0.2-0.4c0-0.1,0-0.2-0.1-0.3c-0.1-0.1-0.1-0.2-0.2-0.2
				C30.8,47.5,30.7,47.5,30.6,47.5z"/>
			<path id="XMLID_413_" class="st0" d="M37.3,47.6c-0.1-0.1-0.1-0.1-0.2-0.1c-0.1,0-0.2,0-0.2,0c-0.2,0-0.3,0.1-0.4,0.2
				c-0.1,0.1-0.2,0.2-0.2,0.4c0,0.1,0,0.2,0.1,0.3c0,0.1,0.1,0.2,0.2,0.2c0.1,0.1,0.2,0.1,0.3,0.1c0.2,0,0.3-0.1,0.4-0.2l0.4,0.5
				c-0.1,0.1-0.1,0.1-0.2,0.2c-0.1,0-0.2,0.1-0.3,0.1c-0.1,0-0.2,0-0.3,0c-0.3,0-0.5-0.1-0.7-0.2c-0.2-0.1-0.3-0.2-0.4-0.4
				c-0.1-0.2-0.2-0.4-0.2-0.6c0-0.2,0-0.4,0.1-0.5c0.1-0.2,0.1-0.3,0.3-0.4c0.1-0.1,0.2-0.2,0.4-0.3c0.2-0.1,0.3-0.1,0.5-0.1
				c0.1,0,0.3,0,0.4,0.1c0.1,0,0.3,0.1,0.4,0.2L37.3,47.6z"/>
			<path id="XMLID_411_" class="st0" d="M42.1,46.9v2.2h-0.7v-2.2H42.1z"/>
			<path id="XMLID_410_" class="st0" d="M41.7,46.7c-0.1,0-0.1,0-0.2,0c-0.1,0-0.1-0.1-0.1-0.1c0-0.1-0.1-0.1-0.1-0.2
				c0-0.1,0-0.1,0.1-0.2c0-0.1,0.1-0.1,0.1-0.1c0.1,0,0.1,0,0.2,0c0.1,0,0.1,0,0.2,0c0.1,0,0.1,0.1,0.1,0.1c0,0.1,0,0.1,0,0.2
				s0,0.1,0,0.2c0,0.1-0.1,0.1-0.1,0.1C41.9,46.6,41.8,46.7,41.7,46.7z"/>
			<path id="XMLID_406_" class="st0" d="M45.8,48c0-0.2,0-0.3,0.1-0.5c0.1-0.1,0.2-0.3,0.3-0.4c0.1-0.1,0.3-0.2,0.4-0.3
				c0.2-0.1,0.3-0.1,0.5-0.1c0.2,0,0.3,0,0.5,0.1c0.2,0.1,0.3,0.1,0.4,0.3c0.1,0.1,0.2,0.2,0.3,0.4c0.1,0.2,0.1,0.3,0.1,0.5
				c0,0.2,0,0.3-0.1,0.5c-0.1,0.1-0.2,0.3-0.3,0.4c-0.1,0.1-0.3,0.2-0.4,0.3c-0.2,0.1-0.3,0.1-0.5,0.1c-0.2,0-0.4-0.1-0.6-0.2
				c-0.2-0.1-0.4-0.3-0.5-0.4C45.9,48.5,45.8,48.3,45.8,48z M47.5,48.4c0.1-0.1,0.2-0.2,0.2-0.4c0-0.1,0-0.2-0.1-0.3
				c-0.1-0.1-0.1-0.2-0.2-0.2c-0.1-0.1-0.2-0.1-0.3-0.1c-0.1,0-0.2,0-0.3,0.1c-0.1,0-0.2,0.1-0.2,0.2c-0.1,0.1-0.1,0.2-0.1,0.3
				c0,0.2,0.1,0.3,0.2,0.4c0.1,0.1,0.3,0.2,0.4,0.2C47.3,48.6,47.4,48.6,47.5,48.4z M47.9,45.7h-0.6l-0.3,0.9h0.5L47.9,45.7z"/>
			<path id="XMLID_404_" class="st0" d="M53.1,47.5c-0.2,0-0.3,0.1-0.3,0.4v1.3h-0.7v-1.3c0-0.6,0.3-1,1-1h0c0.6,0,1,0.4,1,1v1.3
				h-0.7v-1.3C53.4,47.6,53.3,47.5,53.1,47.5L53.1,47.5z"/>
			<path id="XMLID_402_" class="st0" d="M63.7,49.1c-0.1,0.1-0.3,0.1-0.4,0.1c-0.7,0.1-1-0.3-1-1v-1.3H63v1.3c0,0.1,0,0.2,0.1,0.3
				c0.1,0.1,0.1,0.1,0.3,0.1c0.1,0,0.2,0,0.3-0.1c0.1-0.1,0.1-0.2,0.1-0.3v-1.3h0.7v2.5c0,0.3-0.1,0.5-0.3,0.7
				c-0.1,0.1-0.2,0.2-0.4,0.2c-0.1,0.1-0.3,0.1-0.4,0.1h-0.1c-0.3,0-0.6-0.1-0.7-0.3c-0.1-0.1-0.2-0.2-0.2-0.3l0.6-0.4
				c0,0.1,0,0.2,0.1,0.3c0.1,0.1,0.2,0.1,0.3,0.1c0.1,0,0.2,0,0.2-0.1c0.1,0,0.1-0.1,0.2-0.2l0,0l0,0l0,0l0,0c0,0,0,0,0-0.1v0v0v0h0
				V49.1z"/>
			<path id="XMLID_400_" class="st0" d="M74.2,47.6c-0.1-0.1-0.1-0.1-0.2-0.1c-0.1,0-0.2,0-0.2,0c-0.2,0-0.3,0.1-0.4,0.2
				c-0.1,0.1-0.2,0.2-0.2,0.4c0,0.1,0,0.2,0.1,0.3c0,0.1,0.1,0.2,0.2,0.2c0.1,0.1,0.2,0.1,0.3,0.1c0.2,0,0.3-0.1,0.4-0.2l0.4,0.5
				c0,0.1-0.1,0.1-0.2,0.2c-0.1,0-0.2,0.1-0.3,0.1c-0.1,0-0.2,0-0.3,0c-0.3,0-0.5-0.1-0.7-0.2c-0.2-0.1-0.3-0.2-0.4-0.4
				c-0.1-0.2-0.2-0.4-0.2-0.6c0-0.2,0-0.4,0.1-0.5c0.1-0.2,0.2-0.3,0.3-0.4c0.1-0.1,0.2-0.2,0.4-0.3c0.2-0.1,0.3-0.1,0.5-0.1
				c0.2,0,0.3,0,0.4,0.1c0.1,0,0.3,0.1,0.4,0.2L74.2,47.6z"/>
			<path id="XMLID_397_" class="st0" d="M79.9,49.1c-0.1,0-0.1,0-0.1,0c-0.2,0.1-0.3,0.1-0.5,0.1c-0.2,0-0.4-0.1-0.6-0.2
				c-0.2-0.1-0.4-0.2-0.5-0.4C78.1,48.5,78,48.3,78,48c0-0.2,0-0.3,0.1-0.5c0.1-0.1,0.2-0.3,0.3-0.4c0.1-0.1,0.3-0.2,0.4-0.2
				c0.2-0.1,0.3-0.1,0.5-0.1c0.2,0,0.3,0,0.5,0.1c0.2,0.1,0.3,0.1,0.4,0.3c0.1,0.1,0.2,0.2,0.3,0.4c0.1,0.2,0.1,0.3,0.1,0.5l0,1.1
				L79.9,49.1L79.9,49.1z M79.3,47.5c-0.1,0-0.2,0-0.3,0.1c-0.1,0-0.2,0.1-0.2,0.2c-0.1,0.1-0.1,0.2-0.1,0.3c0,0.2,0.1,0.3,0.2,0.4
				c0.1,0.1,0.3,0.2,0.4,0.2c0.2,0,0.3-0.1,0.4-0.2c0.1-0.1,0.2-0.2,0.2-0.4c0-0.1,0-0.2-0.1-0.3c-0.1-0.1-0.1-0.2-0.2-0.2
				C79.5,47.5,79.4,47.5,79.3,47.5z"/>
			<path id="XMLID_395_" class="st0" d="M84.3,46.1H85v3.1l-0.7,0V46.1z"/>
			<path id="XMLID_393_" class="st0" d="M89.4,46.9v2.2h-0.7v-2.2H89.4z"/>
			<path id="XMLID_392_" class="st0" d="M89,46.7c-0.1,0-0.1,0-0.2,0c-0.1,0-0.1-0.1-0.1-0.1c0-0.1-0.1-0.1-0.1-0.2
				c0-0.1,0-0.1,0-0.2c0-0.1,0.1-0.1,0.1-0.1c0.1,0,0.1,0,0.2,0c0.1,0,0.1,0,0.2,0c0.1,0,0.1,0.1,0.1,0.1c0,0.1,0.1,0.1,0.1,0.2
				s0,0.1-0.1,0.2c0,0.1-0.1,0.1-0.1,0.1C89.2,46.6,89.1,46.7,89,46.7z"/>
			<path id="XMLID_389_" class="st0" d="M95.7,48.1c0,0.2-0.1,0.4-0.2,0.6c-0.1,0.2-0.3,0.3-0.5,0.4c-0.2,0.1-0.4,0.2-0.6,0.2
				c-0.2,0-0.3,0-0.5-0.1c-0.1-0.1-0.3-0.1-0.4-0.3c-0.1-0.1-0.2-0.2-0.3-0.4c-0.1-0.1-0.1-0.3-0.1-0.5c0-0.2,0-0.3,0.1-0.5
				c0.1-0.1,0.2-0.3,0.3-0.4c0.1-0.1,0.3-0.2,0.4-0.3c0.2-0.1,0.3-0.1,0.5-0.1c0.2,0,0.3,0,0.5,0.1l0.1,0l0,0V46l0.7,0V48.1z
				 M94.7,47.5c-0.1-0.1-0.2-0.1-0.3-0.1c-0.1,0-0.2,0-0.3,0.1c-0.1,0.1-0.2,0.1-0.2,0.2c-0.1,0.1-0.1,0.2-0.1,0.3
				c0,0.2,0.1,0.3,0.2,0.4c0.1,0.1,0.3,0.2,0.4,0.2c0.2,0,0.3-0.1,0.4-0.2c0.1-0.1,0.2-0.2,0.2-0.4c0-0.1,0-0.2-0.1-0.3
				C94.8,47.7,94.8,47.6,94.7,47.5z"/>
			<path id="XMLID_386_" class="st0" d="M101.3,49.1c-0.1,0-0.1,0-0.1,0c-0.2,0.1-0.3,0.1-0.5,0.1c-0.2,0-0.4-0.1-0.6-0.2
				c-0.2-0.1-0.4-0.2-0.5-0.4c-0.1-0.2-0.2-0.4-0.2-0.6c0-0.2,0-0.3,0.1-0.5c0.1-0.1,0.2-0.3,0.3-0.4c0.1-0.1,0.3-0.2,0.4-0.2
				c0.2-0.1,0.3-0.1,0.5-0.1c0.2,0,0.3,0,0.5,0.1c0.2,0.1,0.3,0.1,0.4,0.3c0.1,0.1,0.2,0.2,0.3,0.4c0.1,0.2,0.1,0.3,0.1,0.5l0,1.1
				L101.3,49.1L101.3,49.1z M100.7,47.5c-0.1,0-0.2,0-0.3,0.1c-0.1,0-0.2,0.1-0.2,0.2c-0.1,0.1-0.1,0.2-0.1,0.3
				c0,0.2,0.1,0.3,0.2,0.4c0.1,0.1,0.3,0.2,0.4,0.2c0.2,0,0.3-0.1,0.4-0.2c0.1-0.1,0.2-0.2,0.2-0.4c0-0.1,0-0.2-0.1-0.3
				c-0.1-0.1-0.1-0.2-0.2-0.2C100.9,47.5,100.8,47.5,100.7,47.5z"/>
			<path id="XMLID_383_" class="st0" d="M108.2,48.1c0,0.2-0.1,0.4-0.2,0.6c-0.1,0.2-0.3,0.3-0.5,0.4c-0.2,0.1-0.4,0.2-0.6,0.2
				c-0.2,0-0.3,0-0.5-0.1c-0.1-0.1-0.3-0.1-0.4-0.3c-0.1-0.1-0.2-0.2-0.3-0.4c-0.1-0.1-0.1-0.3-0.1-0.5c0-0.2,0-0.3,0.1-0.5
				c0.1-0.1,0.2-0.3,0.3-0.4c0.1-0.1,0.3-0.2,0.4-0.3c0.2-0.1,0.3-0.1,0.5-0.1c0.2,0,0.3,0,0.5,0.1l0.1,0l0,0V46l0.7,0V48.1z
				 M107.2,47.5c-0.1-0.1-0.2-0.1-0.3-0.1c-0.1,0-0.2,0-0.3,0.1c-0.1,0.1-0.2,0.1-0.2,0.2c-0.1,0.1-0.1,0.2-0.1,0.3
				c0,0.2,0.1,0.3,0.2,0.4c0.1,0.1,0.3,0.2,0.4,0.2c0.2,0,0.3-0.1,0.4-0.2c0.1-0.1,0.2-0.2,0.2-0.4c0-0.1,0-0.2-0.1-0.3
				C107.4,47.7,107.3,47.6,107.2,47.5z"/>
		</g>
	</g>
	<g id="XMLID_373_">
		<g id="XMLID_377_">
			<path id="XMLID_378_" class="st0" d="M112.7,36l-0.6-0.7H112V36h-0.5v-1.9h1c0.4,0,0.7,0.2,0.7,0.6c0,0.3-0.2,0.5-0.5,0.6
				l0.6,0.7H112.7z M112.5,35c0.2,0,0.3-0.1,0.3-0.2c0-0.1-0.1-0.2-0.3-0.2H112V35H112.5z"/>
		</g>
		<path id="XMLID_374_" class="st0" d="M112.3,37c-1.1,0-1.9-0.9-1.9-1.9c0-1.1,0.9-1.9,1.9-1.9c1.1,0,1.9,0.9,1.9,1.9
			C114.3,36.1,113.4,37,112.3,37z M112.3,33.5c-0.8,0-1.5,0.7-1.5,1.5c0,0.8,0.7,1.5,1.5,1.5c0.8,0,1.5-0.7,1.5-1.5
			C113.9,34.2,113.2,33.5,112.3,33.5z"/>
	</g>
</g>
</svg>
