<?xml version="1.0" encoding="utf-8"?>
<!-- Generator: Adobe Illustrator 25.4.1, SVG Export Plug-In . SVG Version: 6.00 Build 0)  -->
<svg version="1.1" id="Layer_1" xmlns="http://www.w3.org/2000/svg" xmlns:xlink="http://www.w3.org/1999/xlink" x="0px" y="0px"
	 viewBox="0 0 421.09 187.81" style="enable-background:new 0 0 421.09 187.81;" xml:space="preserve">
<style type="text/css">
	.st0{fill:#AAAC24;}
	.st1{fill:#F18A00;}
	.st2{fill-rule:evenodd;clip-rule:evenodd;fill:#F18A00;}
	.st3{fill-rule:evenodd;clip-rule:evenodd;fill:#AAAC24;}
	.st4{fill-rule:evenodd;clip-rule:evenodd;fill:#C6C46C;}
	.st5{fill:#6D6E71;}
</style>
<g id="XMLID_371_">
	<g id="XMLID_648_">
		<g id="XMLID_702_">
			<path id="XMLID_725_" class="st0" d="M9.61,139.42H27.9v8.39H9.61v13.98H0v-39.03h30.17v8.45H9.61V139.42z"/>
			<path id="XMLID_723_" class="st0" d="M67.39,144.19c0,11.18-6.93,18.47-17.3,18.47c-10.6,0-17.71-7.29-17.71-18.47v-21.44H42
				v21.44c0,5.95,3.21,9.62,8.09,9.62c4.61,0,7.7-3.67,7.7-9.62v-21.44h9.6V144.19z"/>
			<path id="XMLID_721_" class="st0" d="M100.53,161.78H71.72v-39.03h9.61v30.65h19.21V161.78z"/>
			<path id="XMLID_719_" class="st0" d="M132.4,161.78h-28.82v-39.03h9.62v30.65h19.21V161.78z"/>
			<path id="XMLID_716_" class="st1" d="M165.85,122.75c8.8,0,14.33,5.41,14.33,13.46c0,8.22-5.7,13.63-14.74,13.63h-9.2v11.94
				h-9.61v-39.03H165.85z M164.75,141.8c3.72,0,5.99-2.15,5.99-5.47c0-3.15-2.27-5.36-5.99-5.36h-8.51v10.83H164.75z"/>
			<path id="XMLID_713_" class="st1" d="M206.8,161.78l-2.74-7.1h-16.42l-2.73,7.1h-10.32l16.31-39.03h9.85l16.31,39.03H206.8z
				 M195.86,133.59l-4.96,12.82h9.97L195.86,133.59z"/>
			<path id="XMLID_711_" class="st1" d="M255.68,147.16c-1.8,9.79-9.67,15.5-19.69,15.5c-11.6,0-20.73-8.91-20.73-20.39
				c0-11.42,9.14-20.39,20.73-20.39c9.61,0,17.77,5.71,19.63,14.97l-9.44,2.21c-1.23-5.66-5.19-8.39-10.2-8.39
				c-6.18,0-11.12,4.94-11.12,11.6c0,6.64,4.95,11.65,11.12,11.65c4.95,0,8.91-2.8,10.26-8.62L255.68,147.16z"/>
			<path id="XMLID_709_" class="st1" d="M285.51,161.78l-10.26-14.91l-6.88,8.22v6.69h-9.6v-39.03h9.6v19.29l16.26-19.29h10.89
				l-14.04,16.72l15.67,22.31H285.51z"/>
			<path id="XMLID_707_" class="st1" d="M312.78,153.4h7.39v8.38h-24.34v-8.38h7.39v-22.26h-7.39v-8.39h24.34v8.39h-7.39V153.4z"/>
			<path id="XMLID_705_" class="st1" d="M359.67,161.78h-7.92L332,139.19v22.6h-9.61v-39.03h7.98l19.75,23.31v-23.31h9.55V161.78z"
				/>
			<path id="XMLID_703_" class="st1" d="M403.83,138.78c0.17,1.4,0.23,2.56,0.23,3.55c0,11.82-8.44,20.33-20.22,20.33
				c-11.83,0-21.04-8.91-21.04-20.39c0-11.42,9.15-20.39,20.86-20.39c8.67,0,16.31,4.07,19.04,11.7l-9.26,2.69
				c-2.26-4.43-5.99-5.59-9.78-5.59c-6.35,0-11.18,5.01-11.18,11.6c0,6.64,4.95,11.65,11.47,11.65c5.13,0,8.86-2.68,10.32-7h-11.94
				v-8.15H403.83z"/>
		</g>
		<g id="XMLID_698_">
			<polygon id="XMLID_701_" class="st2" points="168.55,31.14 168.55,77.05 214.49,77.05 214.49,61.81 230.02,46.13 230.02,92.61 
				153.02,92.61 153.02,15.59 199.48,15.59 183.81,31.14 			"/>
			<polygon id="XMLID_700_" class="st3" points="219.09,0.05 245.6,0 230,15.64 203.37,15.64 			"/>
			<polygon id="XMLID_699_" class="st4" points="245.55,26.45 245.58,-0.07 229.94,15.55 229.95,42.17 			"/>
		</g>
		<g id="XMLID_649_">
			<path id="XMLID_696_" class="st5" d="M3.67,173.59V182H1.06v-8.42H3.67z"/>
			<path id="XMLID_695_" class="st5" d="M2.31,172.57c-0.25,0-0.48-0.05-0.68-0.17c-0.2-0.14-0.36-0.3-0.48-0.51
				c-0.13-0.22-0.2-0.46-0.2-0.69c0-0.26,0.06-0.49,0.18-0.69c0.13-0.21,0.29-0.38,0.5-0.51c0.2-0.11,0.43-0.18,0.68-0.18
				c0.26,0,0.49,0.06,0.7,0.18c0.2,0.13,0.36,0.31,0.49,0.51c0.11,0.2,0.17,0.43,0.17,0.69c0,0.26-0.06,0.49-0.17,0.69
				c-0.12,0.21-0.29,0.37-0.49,0.49C2.8,172.52,2.57,172.57,2.31,172.57z"/>
			<path id="XMLID_693_" class="st5" d="M21.26,175.62c-0.68,0.03-1.01,0.49-1.01,1.4v4.97h-2.63v-4.97c0-2.39,1.21-3.65,3.64-3.77
				h0.14c2.43,0.13,3.62,1.38,3.62,3.77v4.97H22.4v-4.97c0-0.91-0.34-1.37-1-1.4H21.26z"/>
			<path id="XMLID_691_" class="st5" d="M42.53,175.62c-0.67,0.03-1.01,0.49-1.01,1.4v4.97h-2.64v-4.97c0-2.39,1.22-3.65,3.65-3.77
				h0.16c2.42,0.13,3.61,1.38,3.61,3.77v4.97h-2.62v-4.97c0-0.91-0.34-1.37-1-1.4H42.53z"/>
			<path id="XMLID_688_" class="st5" d="M60.17,177.73c0-0.63,0.13-1.22,0.39-1.79c0.25-0.55,0.61-1.03,1.06-1.44
				c0.45-0.4,0.96-0.72,1.55-0.94c0.57-0.22,1.19-0.33,1.81-0.33c0.63,0,1.24,0.11,1.82,0.33c0.58,0.2,1.1,0.53,1.57,0.94
				c0.44,0.42,0.79,0.91,1.04,1.44c0.27,0.57,0.4,1.16,0.4,1.79c0,0.66-0.12,1.26-0.38,1.8c-0.26,0.55-0.62,1.03-1.06,1.45
				c-0.47,0.42-0.99,0.73-1.57,0.94c-0.58,0.23-1.19,0.34-1.82,0.34c-0.83,0-1.62-0.19-2.37-0.58c-0.75-0.4-1.34-0.94-1.78-1.62
				C60.39,179.36,60.17,178.58,60.17,177.73z M66.54,179.24c0.43-0.41,0.65-0.92,0.65-1.51c0-0.38-0.11-0.74-0.31-1.05
				c-0.22-0.33-0.48-0.59-0.81-0.78c-0.33-0.19-0.7-0.28-1.08-0.28c-0.39,0-0.74,0.09-1.07,0.28c-0.34,0.19-0.61,0.44-0.81,0.78
				c-0.21,0.31-0.3,0.67-0.3,1.05c0,0.59,0.22,1.1,0.65,1.51c0.43,0.42,0.95,0.64,1.53,0.64C65.59,179.88,66.1,179.66,66.54,179.24z
				"/>
			<path id="XMLID_686_" class="st5" d="M90.95,173.59l-4.43,8.74l-4.27-8.73l2.66-0.01l1.64,3.72l1.6-3.72H90.95z"/>
			<path id="XMLID_683_" class="st5" d="M110.41,181.74c-0.2,0.1-0.33,0.14-0.38,0.16c-0.6,0.23-1.2,0.34-1.82,0.34
				c-0.84,0-1.63-0.21-2.37-0.59c-0.76-0.4-1.34-0.93-1.79-1.61c-0.44-0.69-0.66-1.46-0.66-2.32c0-0.63,0.13-1.22,0.38-1.79
				c0.26-0.55,0.61-1.02,1.07-1.43c0.44-0.4,0.95-0.72,1.54-0.92c0.58-0.23,1.2-0.34,1.82-0.34c0.62,0,1.23,0.11,1.82,0.33
				c0.61,0.22,1.11,0.54,1.54,0.94c0.45,0.42,0.8,0.9,1.07,1.43c0.25,0.57,0.39,1.16,0.39,1.79l-0.01,4.28l-2.61-0.01V181.74z
				 M108.21,175.62c-0.38,0-0.74,0.09-1.08,0.28c-0.33,0.19-0.6,0.44-0.82,0.78c-0.2,0.31-0.31,0.67-0.31,1.05
				c0,0.59,0.24,1.09,0.67,1.51c0.43,0.42,0.94,0.63,1.53,0.63c0.61,0,1.1-0.21,1.53-0.63c0.45-0.42,0.67-0.92,0.67-1.51
				c0-0.38-0.1-0.74-0.31-1.05c-0.22-0.33-0.49-0.59-0.81-0.78C108.95,175.7,108.59,175.62,108.21,175.62z"/>
			<path id="XMLID_681_" class="st5" d="M133.37,176.11c-0.24-0.2-0.5-0.35-0.78-0.44c-0.28-0.11-0.59-0.16-0.92-0.16
				c-0.59,0-1.11,0.2-1.52,0.58c-0.42,0.39-0.64,0.87-0.64,1.45c0,0.45,0.1,0.85,0.28,1.21c0.17,0.35,0.43,0.64,0.78,0.84
				c0.35,0.21,0.72,0.32,1.17,0.32c0.64,0,1.19-0.21,1.65-0.62l1.44,1.82c-0.19,0.21-0.48,0.4-0.88,0.58
				c-0.36,0.18-0.76,0.29-1.16,0.39c-0.4,0.07-0.78,0.12-1.12,0.12c-0.94,0-1.79-0.2-2.53-0.6c-0.73-0.4-1.29-0.92-1.67-1.6
				c-0.38-0.66-0.58-1.38-0.58-2.14c0-0.7,0.12-1.34,0.36-1.89c0.24-0.56,0.56-1.06,0.99-1.48c0.41-0.4,0.92-0.72,1.52-0.94
				c0.61-0.23,1.24-0.34,1.91-0.34c0.56,0,1.09,0.09,1.64,0.26c0.54,0.18,1.02,0.44,1.43,0.77L133.37,176.11z"/>
			<path id="XMLID_679_" class="st5" d="M151.31,173.59V182h-2.62v-8.42H151.31z"/>
			<path id="XMLID_678_" class="st5" d="M149.96,172.57c-0.26,0-0.48-0.05-0.67-0.17c-0.21-0.14-0.38-0.3-0.5-0.51
				c-0.12-0.22-0.2-0.46-0.2-0.69c0-0.26,0.06-0.49,0.19-0.69c0.13-0.21,0.3-0.38,0.51-0.51c0.19-0.11,0.41-0.18,0.67-0.18
				c0.25,0,0.49,0.06,0.69,0.18c0.2,0.13,0.37,0.31,0.5,0.51c0.12,0.2,0.16,0.43,0.16,0.69c0,0.26-0.04,0.49-0.16,0.69
				c-0.13,0.21-0.3,0.37-0.5,0.49C150.45,172.52,150.21,172.57,149.96,172.57z"/>
			<path id="XMLID_674_" class="st5" d="M165.27,177.73c0-0.63,0.14-1.22,0.39-1.79c0.26-0.55,0.61-1.03,1.06-1.44
				c0.44-0.4,0.96-0.72,1.54-0.94c0.58-0.22,1.19-0.33,1.82-0.33c0.63,0,1.24,0.11,1.83,0.33c0.56,0.2,1.08,0.53,1.54,0.94
				c0.44,0.42,0.8,0.91,1.06,1.44c0.26,0.57,0.38,1.16,0.38,1.79c0,0.66-0.12,1.26-0.37,1.8c-0.25,0.55-0.63,1.03-1.07,1.45
				c-0.46,0.42-0.99,0.73-1.54,0.94c-0.6,0.23-1.2,0.34-1.83,0.34c-0.83,0-1.63-0.19-2.38-0.58c-0.74-0.4-1.35-0.94-1.77-1.62
				C165.48,179.36,165.27,178.58,165.27,177.73z M171.63,179.24c0.43-0.41,0.65-0.92,0.65-1.51c0-0.38-0.09-0.74-0.31-1.05
				c-0.2-0.33-0.48-0.59-0.8-0.78c-0.35-0.19-0.7-0.28-1.09-0.28c-0.37,0-0.73,0.09-1.08,0.28c-0.33,0.19-0.6,0.44-0.81,0.78
				c-0.2,0.31-0.3,0.67-0.3,1.05c0,0.59,0.22,1.1,0.66,1.51c0.43,0.42,0.94,0.64,1.53,0.64
				C170.67,179.88,171.2,179.66,171.63,179.24z M172.86,169.16h-2.42l-1.18,3.31h1.81L172.86,169.16z"/>
			<path id="XMLID_672_" class="st5" d="M192.41,175.62c-0.67,0.03-1.01,0.49-1.01,1.4v4.97h-2.63v-4.97c0-2.39,1.21-3.65,3.63-3.77
				h0.14c2.43,0.13,3.63,1.38,3.63,3.77v4.97h-2.64v-4.97c0-0.91-0.34-1.37-1-1.4H192.41z"/>
			<path id="XMLID_670_" class="st5" d="M232.11,181.83c-0.49,0.19-0.94,0.32-1.39,0.36c-2.58,0.26-3.88-0.96-3.88-3.7v-4.9h2.63
				v4.72c0,0.5,0.11,0.88,0.35,1.13c0.22,0.26,0.55,0.39,0.97,0.39c0.39,0,0.72-0.13,0.95-0.39c0.24-0.26,0.36-0.63,0.36-1.13v-4.72
				h2.62v9.39c0,1.02-0.35,1.9-1.07,2.63c-0.35,0.34-0.8,0.6-1.36,0.8c-0.52,0.19-1.05,0.28-1.57,0.28h-0.43
				c-1.18-0.02-2.11-0.38-2.81-1.08c-0.48-0.47-0.76-0.89-0.86-1.26l2.37-1.4c0.04,0.43,0.18,0.77,0.49,1.06
				c0.3,0.28,0.64,0.43,1.07,0.43c0.33,0,0.63-0.09,0.9-0.28c0.25-0.18,0.44-0.41,0.56-0.71l0.01-0.02l0.01-0.04l0.01-0.06
				l0.03-0.06c0.01-0.03,0.03-0.09,0.05-0.19v-0.01v-0.03v-0.09h0.01V181.83z"/>
			<path id="XMLID_668_" class="st5" d="M271.61,176.11c-0.23-0.2-0.5-0.35-0.77-0.44c-0.29-0.11-0.6-0.16-0.93-0.16
				c-0.6,0-1.1,0.2-1.52,0.58c-0.43,0.39-0.64,0.87-0.64,1.45c0,0.45,0.11,0.85,0.28,1.21c0.17,0.35,0.43,0.64,0.78,0.84
				c0.35,0.21,0.73,0.32,1.17,0.32c0.63,0,1.2-0.21,1.66-0.62l1.42,1.82c-0.18,0.21-0.47,0.4-0.87,0.58
				c-0.36,0.18-0.76,0.29-1.16,0.39c-0.4,0.07-0.77,0.12-1.12,0.12c-0.95,0-1.79-0.2-2.51-0.6c-0.73-0.4-1.3-0.92-1.68-1.6
				c-0.38-0.66-0.58-1.38-0.58-2.14c0-0.7,0.12-1.34,0.36-1.89c0.24-0.56,0.56-1.06,0.99-1.48c0.41-0.4,0.92-0.72,1.52-0.94
				c0.61-0.23,1.24-0.34,1.91-0.34c0.56,0,1.1,0.09,1.65,0.26c0.54,0.18,1.02,0.44,1.42,0.77L271.61,176.11z"/>
			<path id="XMLID_665_" class="st5" d="M292.81,181.74c-0.2,0.1-0.34,0.14-0.39,0.16c-0.59,0.23-1.2,0.34-1.81,0.34
				c-0.84,0-1.64-0.21-2.39-0.59c-0.74-0.4-1.33-0.93-1.77-1.61c-0.43-0.69-0.65-1.46-0.65-2.32c0-0.63,0.12-1.22,0.38-1.79
				c0.25-0.55,0.61-1.02,1.05-1.43c0.46-0.4,0.97-0.72,1.55-0.92c0.58-0.23,1.21-0.34,1.83-0.34c0.62,0,1.23,0.11,1.81,0.33
				c0.6,0.22,1.11,0.54,1.55,0.94c0.45,0.42,0.8,0.9,1.06,1.43c0.26,0.57,0.39,1.16,0.39,1.79l-0.01,4.28l-2.6-0.01V181.74z
				 M290.6,175.62c-0.39,0-0.75,0.09-1.08,0.28c-0.32,0.19-0.6,0.44-0.82,0.78c-0.2,0.31-0.29,0.67-0.29,1.05
				c0,0.59,0.22,1.09,0.65,1.51c0.44,0.42,0.95,0.63,1.54,0.63c0.58,0,1.1-0.21,1.54-0.63c0.43-0.42,0.64-0.92,0.64-1.51
				c0-0.38-0.09-0.74-0.31-1.05c-0.21-0.33-0.47-0.59-0.8-0.78C291.35,175.7,290.98,175.62,290.6,175.62z"/>
			<path id="XMLID_663_" class="st5" d="M309.28,170.32h2.61v11.65l-2.61,0.04V170.32z"/>
			<path id="XMLID_661_" class="st5" d="M328.44,173.59V182h-2.62v-8.42H328.44z"/>
			<path id="XMLID_660_" class="st5" d="M327.09,172.57c-0.26,0-0.48-0.05-0.69-0.17c-0.2-0.14-0.35-0.3-0.49-0.51
				c-0.12-0.22-0.2-0.46-0.2-0.69c0-0.26,0.07-0.49,0.18-0.69c0.16-0.21,0.31-0.38,0.51-0.51c0.21-0.11,0.43-0.18,0.69-0.18
				c0.25,0,0.48,0.06,0.69,0.18c0.21,0.13,0.38,0.31,0.49,0.51c0.13,0.2,0.19,0.43,0.19,0.69c0,0.26-0.06,0.49-0.19,0.69
				c-0.11,0.21-0.28,0.37-0.49,0.49C327.57,172.52,327.34,172.57,327.09,172.57z"/>
			<path id="XMLID_657_" class="st5" d="M352.03,177.8c0,0.83-0.22,1.59-0.65,2.25c-0.45,0.69-1.02,1.22-1.77,1.62
				c-0.74,0.39-1.54,0.58-2.37,0.58c-0.63,0-1.25-0.11-1.83-0.34c-0.56-0.21-1.06-0.51-1.54-0.94c-0.45-0.41-0.82-0.9-1.07-1.45
				c-0.25-0.54-0.36-1.13-0.36-1.79c0-0.63,0.12-1.23,0.37-1.79c0.25-0.55,0.62-1.03,1.07-1.44c0.44-0.42,0.97-0.73,1.54-0.94
				c0.6-0.21,1.21-0.32,1.83-0.32c0.61,0,1.23,0.11,1.81,0.32l0.19,0.09l0.19,0.08v-3.46l2.61,0.01V177.8z M348.3,175.91
				c-0.33-0.19-0.69-0.29-1.07-0.29c-0.39,0-0.75,0.1-1.08,0.29c-0.33,0.19-0.61,0.45-0.82,0.77c-0.21,0.32-0.3,0.66-0.3,1.06
				c0,0.58,0.22,1.09,0.65,1.51c0.43,0.42,0.95,0.63,1.54,0.63c0.57,0,1.09-0.21,1.53-0.63c0.44-0.42,0.66-0.93,0.66-1.51
				c0-0.39-0.1-0.73-0.31-1.06C348.9,176.36,348.62,176.1,348.3,175.91z"/>
			<path id="XMLID_654_" class="st5" d="M372.92,181.74c-0.21,0.1-0.34,0.14-0.39,0.16c-0.6,0.23-1.21,0.34-1.82,0.34
				c-0.85,0-1.64-0.21-2.38-0.59c-0.74-0.4-1.35-0.93-1.77-1.61c-0.44-0.69-0.67-1.46-0.67-2.32c0-0.63,0.13-1.22,0.39-1.79
				c0.25-0.55,0.61-1.02,1.06-1.43c0.45-0.4,0.96-0.72,1.54-0.92c0.6-0.23,1.2-0.34,1.83-0.34c0.62,0,1.23,0.11,1.82,0.33
				c0.6,0.22,1.1,0.54,1.54,0.94c0.45,0.42,0.82,0.9,1.06,1.43c0.26,0.57,0.4,1.16,0.4,1.79l-0.01,4.28l-2.6-0.01V181.74z
				 M370.72,175.62c-0.4,0-0.75,0.09-1.09,0.28c-0.32,0.19-0.6,0.44-0.81,0.78c-0.2,0.31-0.31,0.67-0.31,1.05
				c0,0.59,0.22,1.09,0.66,1.51c0.44,0.42,0.94,0.63,1.54,0.63c0.6,0,1.1-0.21,1.53-0.63c0.44-0.42,0.66-0.92,0.66-1.51
				c0-0.38-0.1-0.74-0.29-1.05c-0.22-0.33-0.5-0.59-0.83-0.78C371.45,175.7,371.09,175.62,370.72,175.62z"/>
			<path id="XMLID_651_" class="st5" d="M399.03,177.8c-0.01,0.83-0.23,1.59-0.66,2.25c-0.43,0.69-1.02,1.22-1.77,1.62
				c-0.76,0.39-1.54,0.58-2.37,0.58c-0.63,0-1.24-0.11-1.82-0.34c-0.56-0.21-1.07-0.51-1.55-0.94c-0.44-0.41-0.81-0.9-1.07-1.45
				c-0.26-0.54-0.37-1.13-0.37-1.79c0-0.63,0.11-1.23,0.38-1.79c0.26-0.55,0.62-1.03,1.06-1.44c0.46-0.42,0.96-0.73,1.55-0.94
				c0.59-0.21,1.2-0.32,1.82-0.32c0.61,0,1.23,0.11,1.82,0.32l0.19,0.09l0.18,0.08v-3.46l2.62,0.01V177.8z M395.29,175.91
				c-0.33-0.19-0.69-0.29-1.07-0.29c-0.39,0-0.74,0.1-1.08,0.29c-0.33,0.19-0.6,0.45-0.81,0.77c-0.2,0.32-0.32,0.66-0.32,1.06
				c0,0.58,0.23,1.09,0.66,1.51c0.44,0.42,0.95,0.63,1.54,0.63c0.58,0,1.1-0.21,1.53-0.63c0.44-0.42,0.66-0.93,0.66-1.51
				c0-0.39-0.09-0.73-0.31-1.06C395.89,176.36,395.62,176.1,395.29,175.91z"/>
		</g>
	</g>
	<g id="XMLID_638_">
		<g id="XMLID_643_">
			<path id="XMLID_644_" class="st1" d="M415.95,132.71l-2.14-2.45h-0.51v2.45h-1.76v-7.11h3.62c1.53,0,2.55,0.93,2.55,2.32
				c0,1.16-0.72,2.01-1.87,2.26l2.24,2.53H415.95z M414.97,128.8c0.62,0,1.02-0.34,1.02-0.87c0-0.51-0.4-0.85-1.02-0.85h-1.66v1.72
				H414.97z"/>
		</g>
		<path id="XMLID_639_" class="st1" d="M414.45,136.42c-4.02,0-7.29-3.26-7.29-7.28c0-4,3.27-7.25,7.29-7.25
			c4.01,0,7.27,3.25,7.27,7.25C421.72,133.15,418.46,136.42,414.45,136.42z M414.45,123.44c-3.16,0-5.74,2.56-5.74,5.7
			c0,3.16,2.57,5.73,5.74,5.73c3.15,0,5.71-2.57,5.71-5.73C420.16,125.99,417.6,123.44,414.45,123.44z"/>
	</g>
</g>
</svg>
