<?xml version="1.0" encoding="utf-8"?>
<!-- Generator: Adobe Illustrator 25.4.1, SVG Export Plug-In . SVG Version: 6.00 Build 0)  -->
<svg version="1.1" id="Layer_1" xmlns="http://www.w3.org/2000/svg" xmlns:xlink="http://www.w3.org/1999/xlink" x="0px" y="0px"
	 viewBox="0 0 957 187.8" style="enable-background:new 0 0 957 187.8;" xml:space="preserve">
<style type="text/css">
	.st0{fill:#AAAC24;}
	.st1{fill:#F18A00;}
	.st2{fill-rule:evenodd;clip-rule:evenodd;fill:#F18A00;}
	.st3{fill-rule:evenodd;clip-rule:evenodd;fill:#AAAC24;}
	.st4{fill-rule:evenodd;clip-rule:evenodd;fill:#C6C46C;}
	.st5{fill:#C8C9CA;}
</style>
<g id="XMLID_1417_">
	<g id="XMLID_1478_">
		<path id="XMLID_1501_" class="st0" d="M195.9,95.8h34v15.6h-34v26H178V64.8h56.2v15.7h-38.3V95.8z"/>
		<path id="XMLID_1499_" class="st0" d="M303.4,104.7c0,20.8-12.9,34.4-32.2,34.4c-19.7,0-33-13.6-33-34.4V64.8h17.9v39.9
			c0,11.1,6,17.9,15.1,17.9c8.6,0,14.3-6.8,14.3-17.9V64.8h17.9V104.7z"/>
		<path id="XMLID_1497_" class="st0" d="M365.1,137.4h-53.6V64.8h17.9v57h35.8V137.4z"/>
		<path id="XMLID_1495_" class="st0" d="M424.4,137.4h-53.7V64.8h17.9v57h35.8V137.4z"/>
		<path id="XMLID_1492_" class="st1" d="M486.7,64.8c16.4,0,26.7,10.1,26.7,25.1c0,15.3-10.6,25.4-27.4,25.4h-17.1v22.2h-17.9V64.8
			H486.7z M484.7,100.2c6.9,0,11.2-4,11.2-10.2c0-5.9-4.2-10-11.2-10h-15.8v20.2H484.7z"/>
		<path id="XMLID_1489_" class="st1" d="M562.9,137.4l-5.1-13.2h-30.6l-5.1,13.2H503l30.4-72.7h18.3l30.4,72.7H562.9z M542.6,84.9
			l-9.2,23.9h18.5L542.6,84.9z"/>
		<path id="XMLID_1487_" class="st1" d="M653.9,110.2c-3.4,18.2-18,28.8-36.6,28.8c-21.6,0-38.6-16.6-38.6-37.9
			c0-21.3,17-38,38.6-38c17.9,0,33.1,10.6,36.5,27.9l-17.6,4.1c-2.3-10.5-9.7-15.6-19-15.6c-11.5,0-20.7,9.2-20.7,21.6
			c0,12.4,9.2,21.7,20.7,21.7c9.2,0,16.6-5.2,19.1-16L653.9,110.2z"/>
		<path id="XMLID_1485_" class="st1" d="M709.4,137.4l-19.1-27.7L677.5,125v12.5h-17.9V64.8h17.9v35.9l30.3-35.9h20.3l-26.1,31.1
			l29.2,41.5H709.4z"/>
		<path id="XMLID_1483_" class="st1" d="M760.2,121.8h13.8v15.6h-45.3v-15.6h13.8V80.4h-13.8V64.8h45.3v15.6h-13.8V121.8z"/>
		<path id="XMLID_1481_" class="st1" d="M847.5,137.4h-14.7L796,95.4v42.1h-17.9V64.8h14.8l36.8,43.4V64.8h17.8V137.4z"/>
		<path id="XMLID_1479_" class="st1" d="M929.7,94.6c0.3,2.6,0.4,4.8,0.4,6.6c0,22-15.7,37.8-37.6,37.8c-22,0-39.2-16.6-39.2-37.9
			c0-21.3,17-38,38.8-38c16.1,0,30.4,7.6,35.4,21.8l-17.2,5c-4.2-8.2-11.2-10.4-18.2-10.4c-11.8,0-20.8,9.3-20.8,21.6
			c0,12.4,9.2,21.7,21.3,21.7c9.5,0,16.5-5,19.2-13h-22.2V94.6H929.7z"/>
	</g>
	<g id="XMLID_1474_">
		<polygon id="XMLID_1477_" class="st2" points="28.9,62.1 28.9,147.6 114.4,147.6 114.4,119.2 143.3,90 143.3,176.5 0,176.5 
			0,33.2 86.5,33.2 57.3,62.1 		"/>
		<polygon id="XMLID_1476_" class="st3" points="123,4 172.3,4 143.2,33.3 93.7,33.3 		"/>
		<polygon id="XMLID_1475_" class="st4" points="172.3,53.4 172.3,4 143.2,33.3 143.2,82.7 		"/>
	</g>
	<g id="XMLID_1426_">
		<path id="XMLID_1472_" class="st5" d="M184.8,159.4v15.7H180v-15.7H184.8z"/>
		<path id="XMLID_1471_" class="st5" d="M182.3,157.5c-0.5,0-0.9-0.1-1.3-0.3c-0.4-0.3-0.7-0.5-0.9-1c-0.2-0.4-0.4-0.9-0.4-1.3
			c0-0.5,0.1-0.9,0.3-1.3c0.2-0.4,0.5-0.7,0.9-0.9c0.4-0.2,0.8-0.3,1.3-0.3c0.5,0,0.9,0.1,1.3,0.3c0.4,0.2,0.7,0.6,0.9,0.9
			c0.2,0.4,0.3,0.8,0.3,1.3c0,0.5-0.1,0.9-0.3,1.3c-0.2,0.4-0.5,0.7-0.9,0.9C183.2,157.4,182.8,157.5,182.3,157.5z"/>
		<path id="XMLID_1469_" class="st5" d="M217.6,163.2c-1.3,0.1-1.9,0.9-1.9,2.6v9.3h-4.9v-9.3c0-4.5,2.3-6.8,6.8-7h0.3
			c4.5,0.2,6.7,2.6,6.7,7v9.3h-4.9v-9.3c0-1.7-0.6-2.5-1.9-2.6H217.6z"/>
		<path id="XMLID_1467_" class="st5" d="M257.2,163.2c-1.2,0.1-1.9,0.9-1.9,2.6v9.3h-4.9v-9.3c0-4.5,2.3-6.8,6.8-7h0.3
			c4.5,0.2,6.7,2.6,6.7,7v9.3h-4.9v-9.3c0-1.7-0.6-2.5-1.9-2.6H257.2z"/>
		<path id="XMLID_1464_" class="st5" d="M290,167.1c0-1.2,0.3-2.3,0.7-3.3c0.5-1,1.1-1.9,2-2.7c0.8-0.7,1.8-1.3,2.9-1.8
			c1.1-0.4,2.2-0.6,3.4-0.6c1.2,0,2.3,0.2,3.4,0.6c1.1,0.4,2.1,1,2.9,1.7c0.8,0.8,1.5,1.7,1.9,2.7c0.5,1.1,0.7,2.2,0.7,3.3
			c0,1.2-0.2,2.4-0.7,3.3c-0.5,1-1.2,1.9-2,2.7c-0.9,0.8-1.8,1.4-2.9,1.8c-1.1,0.4-2.2,0.6-3.4,0.6c-1.5,0-3-0.4-4.4-1.1
			c-1.4-0.7-2.5-1.8-3.3-3C290.4,170.1,290,168.7,290,167.1z M301.8,169.9c0.8-0.8,1.2-1.7,1.2-2.8c0-0.7-0.2-1.4-0.6-2
			c-0.4-0.6-0.9-1.1-1.5-1.4c-0.6-0.4-1.3-0.5-2-0.5c-0.7,0-1.4,0.2-2,0.5c-0.6,0.3-1.1,0.8-1.5,1.4c-0.4,0.6-0.6,1.2-0.6,2
			c0,1.1,0.4,2,1.2,2.8c0.8,0.8,1.8,1.2,2.9,1.2C300.1,171.1,301,170.7,301.8,169.9z"/>
		<path id="XMLID_1462_" class="st5" d="M347.3,159.4l-8.3,16.3l-7.9-16.2l5,0l3.1,6.9l3-6.9H347.3z"/>
		<path id="XMLID_1459_" class="st5" d="M383.5,174.6c-0.4,0.2-0.6,0.3-0.7,0.3c-1.1,0.4-2.2,0.6-3.4,0.6c-1.6,0-3-0.4-4.4-1.1
			c-1.4-0.7-2.5-1.7-3.3-3c-0.8-1.3-1.2-2.7-1.2-4.3c0-1.2,0.2-2.3,0.7-3.3c0.5-1,1.1-1.9,2-2.7c0.8-0.7,1.8-1.3,2.9-1.7
			c1.1-0.4,2.2-0.6,3.4-0.6c1.2,0,2.3,0.2,3.4,0.6c1.1,0.4,2.1,1,2.9,1.7c0.8,0.8,1.5,1.7,2,2.7c0.5,1.1,0.7,2.2,0.7,3.3l0,8l-4.9,0
			V174.6z M379.4,163.2c-0.7,0-1.4,0.2-2,0.5c-0.6,0.3-1.1,0.8-1.5,1.4c-0.4,0.6-0.6,1.2-0.6,2c0,1.1,0.4,2,1.2,2.8
			c0.8,0.8,1.7,1.2,2.9,1.2c1.1,0,2.1-0.4,2.9-1.2c0.8-0.8,1.2-1.7,1.2-2.8c0-0.7-0.2-1.4-0.6-2c-0.4-0.6-0.9-1.1-1.5-1.4
			C380.8,163.3,380.1,163.2,379.4,163.2z"/>
		<path id="XMLID_1457_" class="st5" d="M426.2,164.1c-0.4-0.4-0.9-0.6-1.4-0.8c-0.5-0.2-1.1-0.3-1.7-0.3c-1.1,0-2.1,0.4-2.8,1.1
			c-0.8,0.7-1.2,1.6-1.2,2.7c0,0.8,0.2,1.6,0.5,2.2c0.3,0.6,0.8,1.2,1.4,1.6c0.6,0.4,1.3,0.6,2.2,0.6c1.2,0,2.2-0.4,3.1-1.1l2.7,3.4
			c-0.4,0.4-0.9,0.7-1.6,1.1c-0.7,0.3-1.4,0.5-2.2,0.7c-0.7,0.1-1.4,0.2-2.1,0.2c-1.8,0-3.3-0.4-4.7-1.1c-1.4-0.7-2.4-1.7-3.1-3
			c-0.7-1.2-1.1-2.6-1.1-4c0-1.3,0.2-2.5,0.7-3.5c0.4-1,1-2,1.8-2.8c0.8-0.7,1.7-1.3,2.8-1.8c1.1-0.4,2.3-0.6,3.6-0.6
			c1,0,2,0.2,3,0.5c1,0.3,1.9,0.8,2.7,1.4L426.2,164.1z"/>
		<path id="XMLID_1455_" class="st5" d="M459.6,159.4v15.7h-4.9v-15.7H459.6z"/>
		<path id="XMLID_1454_" class="st5" d="M457.1,157.5c-0.5,0-0.9-0.1-1.2-0.3c-0.4-0.3-0.7-0.5-0.9-1c-0.2-0.4-0.4-0.9-0.4-1.3
			c0-0.5,0.1-0.9,0.4-1.3c0.2-0.4,0.6-0.7,0.9-0.9c0.4-0.2,0.8-0.3,1.2-0.3c0.5,0,0.9,0.1,1.3,0.3c0.4,0.2,0.7,0.6,0.9,0.9
			c0.2,0.4,0.3,0.8,0.3,1.3c0,0.5-0.1,0.9-0.3,1.3c-0.2,0.4-0.6,0.7-0.9,0.9C458,157.4,457.6,157.5,457.1,157.5z"/>
		<path id="XMLID_1450_" class="st5" d="M485.6,167.1c0-1.2,0.3-2.3,0.7-3.3c0.5-1,1.1-1.9,2-2.7c0.8-0.7,1.8-1.3,2.9-1.8
			c1.1-0.4,2.2-0.6,3.4-0.6c1.2,0,2.3,0.2,3.4,0.6c1,0.4,2,1,2.9,1.7c0.8,0.8,1.5,1.7,2,2.7c0.5,1.1,0.7,2.2,0.7,3.3
			c0,1.2-0.2,2.4-0.7,3.3c-0.5,1-1.2,1.9-2,2.7c-0.9,0.8-1.8,1.4-2.9,1.8c-1.1,0.4-2.2,0.6-3.4,0.6c-1.5,0-3-0.4-4.4-1.1
			c-1.4-0.7-2.5-1.8-3.3-3C486,170.1,485.6,168.7,485.6,167.1z M497.5,169.9c0.8-0.8,1.2-1.7,1.2-2.8c0-0.7-0.2-1.4-0.6-2
			c-0.4-0.6-0.9-1.1-1.5-1.4c-0.6-0.4-1.3-0.5-2-0.5c-0.7,0-1.4,0.2-2,0.5c-0.6,0.3-1.1,0.8-1.5,1.4c-0.4,0.6-0.5,1.2-0.5,2
			c0,1.1,0.4,2,1.2,2.8c0.8,0.8,1.7,1.2,2.9,1.2C495.7,171.1,496.7,170.7,497.5,169.9z M499.7,151.2h-4.5l-2.2,6.2h3.4L499.7,151.2z
			"/>
		<path id="XMLID_1448_" class="st5" d="M536.1,163.2c-1.2,0.1-1.9,0.9-1.9,2.6v9.3h-4.9v-9.3c0-4.5,2.3-6.8,6.8-7h0.3
			c4.5,0.2,6.8,2.6,6.8,7v9.3h-4.9v-9.3c0-1.7-0.6-2.5-1.9-2.6H536.1z"/>
		<path id="XMLID_1446_" class="st5" d="M610,174.7c-0.9,0.4-1.8,0.6-2.6,0.7c-4.8,0.5-7.2-1.8-7.2-6.9v-9.1h4.9v8.8
			c0,0.9,0.2,1.6,0.6,2.1c0.4,0.5,1,0.7,1.8,0.7c0.7,0,1.3-0.2,1.8-0.7c0.4-0.5,0.7-1.2,0.7-2.1v-8.8h4.9v17.5c0,1.9-0.7,3.5-2,4.9
			c-0.6,0.6-1.5,1.1-2.5,1.5c-1,0.4-1.9,0.5-2.9,0.5h-0.8c-2.2,0-3.9-0.7-5.2-2c-0.9-0.9-1.4-1.7-1.6-2.3l4.4-2.6
			c0.1,0.8,0.3,1.4,0.9,2c0.6,0.5,1.2,0.8,2,0.8c0.6,0,1.2-0.2,1.7-0.5c0.5-0.3,0.8-0.8,1-1.3l0,0l0-0.1l0-0.1l0.1-0.1
			c0-0.1,0.1-0.2,0.1-0.3v0v0v-0.2h0V174.7z"/>
		<path id="XMLID_1444_" class="st5" d="M683.6,164.1c-0.4-0.4-0.9-0.6-1.4-0.8c-0.5-0.2-1.1-0.3-1.7-0.3c-1.1,0-2.1,0.4-2.8,1.1
			c-0.8,0.7-1.2,1.6-1.2,2.7c0,0.8,0.2,1.6,0.5,2.2c0.3,0.6,0.8,1.2,1.4,1.6c0.6,0.4,1.4,0.6,2.2,0.6c1.2,0,2.2-0.4,3.1-1.1l2.6,3.4
			c-0.3,0.4-0.9,0.7-1.6,1.1c-0.7,0.3-1.4,0.5-2.2,0.7c-0.7,0.1-1.4,0.2-2.1,0.2c-1.8,0-3.3-0.4-4.7-1.1c-1.4-0.7-2.4-1.7-3.1-3
			c-0.7-1.2-1.1-2.6-1.1-4c0-1.3,0.2-2.5,0.7-3.5c0.4-1,1-2,1.8-2.8c0.8-0.7,1.7-1.3,2.8-1.8c1.1-0.4,2.3-0.6,3.6-0.6
			c1,0,2,0.2,3.1,0.5c1,0.3,1.9,0.8,2.6,1.4L683.6,164.1z"/>
		<path id="XMLID_1441_" class="st5" d="M723,174.6c-0.4,0.2-0.6,0.3-0.7,0.3c-1.1,0.4-2.2,0.6-3.4,0.6c-1.6,0-3.1-0.4-4.5-1.1
			c-1.4-0.7-2.5-1.7-3.3-3c-0.8-1.3-1.2-2.7-1.2-4.3c0-1.2,0.2-2.3,0.7-3.3c0.5-1,1.1-1.9,1.9-2.7c0.9-0.7,1.8-1.3,2.9-1.7
			c1.1-0.4,2.2-0.6,3.4-0.6c1.2,0,2.3,0.2,3.4,0.6c1.1,0.4,2.1,1,2.9,1.7c0.8,0.8,1.5,1.7,2,2.7c0.5,1.1,0.7,2.2,0.7,3.3l0,8l-4.8,0
			V174.6z M718.9,163.2c-0.7,0-1.4,0.2-2,0.5c-0.6,0.3-1.1,0.8-1.5,1.4c-0.4,0.6-0.5,1.2-0.5,2c0,1.1,0.4,2,1.2,2.8
			c0.8,0.8,1.8,1.2,2.9,1.2c1.1,0,2-0.4,2.9-1.2c0.8-0.8,1.2-1.7,1.2-2.8c0-0.7-0.2-1.4-0.6-2c-0.4-0.6-0.9-1.1-1.5-1.4
			C720.3,163.3,719.6,163.2,718.9,163.2z"/>
		<path id="XMLID_1439_" class="st5" d="M753.7,153.3h4.9V175l-4.9,0.1V153.3z"/>
		<path id="XMLID_1437_" class="st5" d="M789.3,159.4v15.7h-4.9v-15.7H789.3z"/>
		<path id="XMLID_1436_" class="st5" d="M786.8,157.5c-0.5,0-0.9-0.1-1.3-0.3c-0.4-0.3-0.7-0.5-0.9-1c-0.2-0.4-0.4-0.9-0.4-1.3
			c0-0.5,0.1-0.9,0.3-1.3c0.3-0.4,0.6-0.7,0.9-0.9c0.4-0.2,0.8-0.3,1.3-0.3c0.5,0,0.9,0.1,1.3,0.3c0.4,0.2,0.7,0.6,0.9,0.9
			c0.2,0.4,0.4,0.8,0.4,1.3c0,0.5-0.1,0.9-0.4,1.3c-0.2,0.4-0.5,0.7-0.9,0.9C787.7,157.4,787.3,157.5,786.8,157.5z"/>
		<path id="XMLID_1433_" class="st5" d="M833.2,167.2c0,1.5-0.4,3-1.2,4.2c-0.8,1.3-1.9,2.3-3.3,3c-1.4,0.7-2.9,1.1-4.4,1.1
			c-1.2,0-2.3-0.2-3.4-0.6c-1-0.4-2-1-2.9-1.8c-0.8-0.8-1.5-1.7-2-2.7c-0.5-1-0.7-2.1-0.7-3.3c0-1.2,0.2-2.3,0.7-3.3
			c0.5-1,1.1-1.9,2-2.7c0.8-0.8,1.8-1.4,2.9-1.8c1.1-0.4,2.3-0.6,3.4-0.6c1.1,0,2.3,0.2,3.4,0.6l0.4,0.2l0.3,0.1v-6.4l4.9,0V167.2z
			 M826.3,163.7c-0.6-0.3-1.3-0.5-2-0.5c-0.7,0-1.4,0.2-2,0.5c-0.6,0.3-1.1,0.8-1.5,1.4c-0.4,0.6-0.6,1.2-0.6,2c0,1.1,0.4,2,1.2,2.8
			c0.8,0.8,1.8,1.2,2.9,1.2c1.1,0,2-0.4,2.9-1.2c0.8-0.8,1.2-1.7,1.2-2.8c0-0.7-0.2-1.4-0.6-2C827.4,164.5,826.9,164.1,826.3,163.7z
			"/>
		<path id="XMLID_1430_" class="st5" d="M872.1,174.6c-0.4,0.2-0.6,0.3-0.7,0.3c-1.1,0.4-2.2,0.6-3.4,0.6c-1.6,0-3.1-0.4-4.4-1.1
			c-1.4-0.7-2.5-1.7-3.3-3c-0.8-1.3-1.2-2.7-1.2-4.3c0-1.2,0.2-2.3,0.7-3.3c0.5-1,1.1-1.9,2-2.7c0.8-0.7,1.8-1.3,2.9-1.7
			c1.1-0.4,2.2-0.6,3.4-0.6c1.2,0,2.3,0.2,3.4,0.6c1.1,0.4,2.1,1,2.9,1.7c0.8,0.8,1.5,1.7,2,2.7c0.5,1.1,0.7,2.2,0.7,3.3l0,8l-4.8,0
			V174.6z M868,163.2c-0.7,0-1.4,0.2-2,0.5c-0.6,0.3-1.1,0.8-1.5,1.4c-0.4,0.6-0.6,1.2-0.6,2c0,1.1,0.4,2,1.2,2.8
			c0.8,0.8,1.7,1.2,2.9,1.2c1.1,0,2-0.4,2.9-1.2c0.8-0.8,1.2-1.7,1.2-2.8c0-0.7-0.2-1.4-0.5-2c-0.4-0.6-0.9-1.1-1.5-1.4
			C869.4,163.3,868.7,163.2,868,163.2z"/>
		<path id="XMLID_1427_" class="st5" d="M920.7,167.2c0,1.5-0.4,3-1.2,4.2c-0.8,1.3-1.9,2.3-3.3,3c-1.4,0.7-2.9,1.1-4.4,1.1
			c-1.2,0-2.3-0.2-3.4-0.6c-1-0.4-2-1-2.9-1.8c-0.8-0.8-1.5-1.7-2-2.7c-0.5-1-0.7-2.1-0.7-3.3c0-1.2,0.2-2.3,0.7-3.3
			c0.5-1,1.1-1.9,2-2.7c0.9-0.8,1.8-1.4,2.9-1.8c1.1-0.4,2.2-0.6,3.4-0.6c1.1,0,2.3,0.2,3.4,0.6l0.3,0.2l0.3,0.1v-6.4l4.9,0V167.2z
			 M913.8,163.7c-0.6-0.3-1.3-0.5-2-0.5c-0.7,0-1.4,0.2-2,0.5c-0.6,0.3-1.1,0.8-1.5,1.4c-0.4,0.6-0.6,1.2-0.6,2c0,1.1,0.4,2,1.2,2.8
			c0.8,0.8,1.8,1.2,2.9,1.2c1.1,0,2.1-0.4,2.9-1.2c0.8-0.8,1.2-1.7,1.2-2.8c0-0.7-0.2-1.4-0.6-2
			C914.9,164.5,914.4,164.1,913.8,163.7z"/>
	</g>
	<g id="XMLID_1418_">
		<g id="XMLID_1422_">
			<path id="XMLID_1423_" class="st1" d="M942.8,78.8l-3.1-3.5H939v3.5h-2.5V68.5h5.2c2.2,0,3.7,1.3,3.7,3.4c0,1.7-1,2.9-2.7,3.3
				l3.2,3.7H942.8z M941.4,73.1c0.9,0,1.5-0.5,1.5-1.3c0-0.7-0.6-1.2-1.5-1.2H939v2.5H941.4z"/>
		</g>
		<path id="XMLID_1419_" class="st1" d="M940.6,84.1c-5.8,0-10.5-4.7-10.5-10.5c0-5.8,4.7-10.5,10.5-10.5c5.8,0,10.5,4.7,10.5,10.5
			C951.1,79.4,946.4,84.1,940.6,84.1z M940.6,65.4c-4.6,0-8.3,3.7-8.3,8.2c0,4.6,3.7,8.3,8.3,8.3c4.6,0,8.3-3.7,8.3-8.3
			C948.9,69.1,945.2,65.4,940.6,65.4z"/>
	</g>
</g>
</svg>
