<?xml version="1.0" encoding="utf-8"?>
<!-- Generator: Adobe Illustrator 25.4.1, SVG Export Plug-In . SVG Version: 6.00 Build 0)  -->
<svg version="1.1" id="Layer_1" focusable="false" xmlns="http://www.w3.org/2000/svg" xmlns:xlink="http://www.w3.org/1999/xlink"
	 x="0px" y="0px" viewBox="0 0 800 800" style="enable-background:new 0 0 800 800;" xml:space="preserve">
<style type="text/css">
	.st0{fill:#F9F9F9;}
</style>
<g>
	<path class="st0" d="M258.8,593.3l349.1-292.2c21.5-18.8,37.8-42.8,47.6-69.6l27.3-60c11-30.4-18.4-59.9-48.9-48.9L574,150
		c-26.8,9.7-50.8,26.1-69.6,47.6L218.1,539.7H103.4c-7.9,0-15.4,3.1-21,8.7l-5.1,5.1c-4.4,4.4-2.8,11.9,3.1,14.1l91.2,33.6
		c-0.8,6.8,1.4,13.9,6.6,19.2l3.5,3.5l3.5,3.5c4.1,4.1,9.4,6.3,14.8,6.7l31,84c2.2,5.8,9.6,7.5,14.1,3.1l5.1-5.1
		c5.6-5.6,8.7-13.1,8.7-21V593.3z"/>
	<path class="st0" d="M424.8,251.2l-266.1-41.6c-10.2-1.6-20.6,1.8-27.9,9.1l-11.3,11.3c-4.2,4.2-3,11.3,2.4,13.9l220.9,105.4
		L424.8,251.2z"/>
	<path class="st0" d="M594,644.9l-41.3-263.8l-97.5,81.6l104.5,219c2.6,5.4,9.7,6.6,13.9,2.4l11.3-11.3
		C592.2,665.5,595.6,655.1,594,644.9z"/>
</g>
</svg>
