<?xml version="1.0" encoding="utf-8"?>
<!-- Generator: Adobe Illustrator 25.4.1, SVG Export Plug-In . SVG Version: 6.00 Build 0)  -->
<svg version="1.1" id="Layer_1" xmlns="http://www.w3.org/2000/svg" xmlns:xlink="http://www.w3.org/1999/xlink" x="0px" y="0px"
	 viewBox="0 0 800 800" style="enable-background:new 0 0 800 800;" xml:space="preserve">
<style type="text/css">
	.st0{fill:#F26A21;}
</style>
<g>
	<path class="st0" d="M298.5,431.7c39.1,0,75.8-15.2,103.5-42.9c27.6-27.6,42.9-64.4,42.9-103.5s-15.2-75.8-42.9-103.5
		c-27.6-27.6-64.4-42.9-103.5-42.9s-75.8,15.2-103.5,42.9c-27.6,27.6-42.9,64.4-42.9,103.5s15.2,75.8,42.9,103.5
		C222.6,416.5,259.4,431.7,298.5,431.7z M392.5,379.3c-14.5,14.5-31.9,25.3-50.7,31.8c6.2-6.5,11.9-14.4,17.1-23.8
		c3.8-6.9,7.2-14.5,10.1-22.5c9.4,2.8,18.7,6.1,27.8,10C395.3,376.4,393.9,377.9,392.5,379.3z M405.6,364.1
		c-10.6-4.7-21.5-8.7-32.5-12c5.3-18.4,8.4-38.8,9-60h49.1C429.9,318.3,421,343.2,405.6,364.1z M405.6,206.7
		c15.4,20.9,24.3,45.7,25.6,72h-49.1c-0.5-21.2-3.6-41.6-9-60C384.1,215.4,395,211.4,405.6,206.7z M392.5,191.4
		c1.5,1.5,2.9,3,4.3,4.5c-9.1,3.9-18.4,7.2-27.8,10c-2.9-8-6.3-15.5-10.1-22.5c-5.1-9.3-10.9-17.3-17.1-23.8
		C360.6,166.1,377.9,176.9,392.5,191.4z M305.2,153.1c15.5,2.9,30.2,15.7,41.8,36.8c3.3,6,6.3,12.5,8.9,19.4
		c-16.5,3.9-33.4,6-50.7,6.5L305.2,153.1L305.2,153.1z M305.2,229.2c18.7-0.5,37-2.8,54.9-7.1c5,17.3,8,36.5,8.5,56.5h-63.4V229.2z
		 M305.2,292.1h63.4c-0.5,20-3.4,39.2-8.5,56.5c-17.9-4.3-36.2-6.7-54.9-7.1V292.1z M305.2,355c17.2,0.4,34.2,2.6,50.7,6.5
		c-2.6,6.9-5.5,13.4-8.9,19.4c-11.6,21.1-26.3,33.9-41.8,36.8L305.2,355L305.2,355z M204.5,379.3c-1.5-1.5-2.9-3-4.3-4.5
		c9.1-3.9,18.4-7.2,27.8-10c2.9,8,6.3,15.5,10.1,22.5c5.1,9.3,10.9,17.3,17.1,23.8C236.4,404.6,219,393.9,204.5,379.3z M291.8,417.6
		c-15.5-2.9-30.2-15.7-41.8-36.8c-3.3-6-6.3-12.5-8.9-19.4c16.5-3.9,33.4-6,50.7-6.5V417.6z M291.8,341.5c-18.7,0.5-37,2.8-54.9,7.1
		c-5-17.3-8-36.5-8.5-56.5h63.4V341.5z M291.8,278.6h-63.4c0.5-20,3.4-39.2,8.5-56.5c17.9,4.3,36.2,6.7,54.9,7.1V278.6z
		 M291.8,153.1v62.7c-17.2-0.4-34.2-2.6-50.7-6.5c2.6-6.9,5.5-13.4,8.9-19.4C261.6,168.8,276.2,156,291.8,153.1z M204.5,191.4
		c14.5-14.5,31.9-25.3,50.7-31.8c-6.2,6.5-11.9,14.4-17.1,23.8c-3.8,6.9-7.2,14.5-10.1,22.5c-9.4-2.8-18.7-6.1-27.8-10
		C201.6,194.4,203,192.9,204.5,191.4z M191.4,206.7c10.6,4.7,21.5,8.7,32.5,12c-5.3,18.4-8.4,38.8-9,60h-49.1
		C167,252.4,175.9,227.6,191.4,206.7z M165.7,292.1h49.1c0.5,21.2,3.6,41.6,9,60c-11,3.3-21.9,7.3-32.5,12
		C175.9,343.2,167,318.3,165.7,292.1z"/>
	<path class="st0" d="M739,529.3L684,503.2v-13c0-9.4-7.7-17.1-17.1-17.1h-13.3c-6.5,0-12.2,3.6-15.1,9l-48.6-20.7v-86
		c0-20.6-3.7-40-10.4-54.8c-7.5-16.5-18.2-25.6-30-25.6c-0.7,0-1.3,0-2,0.1V69.9c0-29.1-23.7-52.8-52.8-52.8H77.5
		c-15.5,0-28,12.6-28,28v626.5c0,15.5,12.6,28,28,28h417.2c8.5,0,16.8-2,24.2-5.9c0.5,3.6,0.9,7.2,1.4,10.6l-48.5,23
		c-5.2,2.5-8.5,7.7-8.5,13.5v6.6c0,4.3,1.8,8.3,5,11.1s7.4,4.2,11.6,3.7l48.4-5.6c0.6,3.4,1.2,6.8,1.8,10.2
		c1.7,9.4,9.9,16.2,19.4,16.2c4.6,0,9.1-1.6,12.7-4.6c3.5-3,5.9-7.1,6.8-11.7c0.6-3.5,1.2-6.8,1.8-10.2l48.4,5.6
		c4.2,0.5,8.5-0.8,11.7-3.7c3.2-2.8,5-6.9,5-11.1v-6.6c0-5.7-3.4-11-8.5-13.5l-48.5-23c5.1-37.6,10.7-90.6,11.2-142.3l138.7,14.3
		c5.5,0.6,10.9-1.1,15.1-4.8c4.1-3.7,6.5-8.9,6.5-14.5v-10.4C750.1,539.3,745.8,532.5,739,529.3z M494.7,685.3H77.5
		c-7.6,0-13.8-6.2-13.8-13.8V45.1c0-7.6,6.2-13.8,13.8-13.8h417.2c21.2,0,38.5,17.3,38.5,38.5v231.4c-5.3,4.3-10,10.9-13.8,19.4
		c-6.7,14.8-10.4,34.2-10.4,54.8v86l-48.6,20.7c-2.9-5.3-8.6-9-15.1-9H432c-9.4,0-17.1,7.7-17.1,17.1v8.5H141.6
		c-3.9,0-7.1,3.2-7.1,7.1v51.6c0,3.9,3.2,7.1,7.1,7.1h208.6c1.1,2.7,2.8,5.1,5,7.1c4.1,3.7,9.6,5.4,15,4.8L509,562
		c0.4,40.6,4,82.1,8,116.2C510.5,682.8,502.7,685.3,494.7,685.3z M348.7,546.8v3.5h-200V513h245.7l-34.6,16.4
		C353.1,532.5,348.7,539.3,348.7,546.8z M735.9,557.1c0,2-1.1,3.2-1.7,3.8c-0.6,0.6-2,1.5-4,1.3h-0.1L583.5,547
		c-2-0.2-4,0.4-5.5,1.8c-1.5,1.3-2.4,3.3-2.4,5.3c0,55.7-6.4,114.1-11.9,153.4c-0.4,3.1,1.2,6.1,4,7.4l53.3,25.2
		c0.2,0.1,0.4,0.4,0.4,0.6v6.6c0,0.1,0,0.3-0.2,0.5s-0.5,0.2-0.5,0.2l-55.1-6.4c-3.8-0.4-7.2,2.2-7.8,5.9
		c-0.9,5.6-1.9,11.1-2.9,16.7c-0.2,1.3-0.9,2.4-1.9,3.3c-1,0.8-2.2,1.3-3.5,1.3c-2.7,0-4.9-1.9-5.4-4.5c-1-5.7-2-11.1-2.9-16.7
		c-0.6-3.5-3.6-6-7-6c-0.3,0-0.6,0-0.8,0l-55.1,6.4c-0.1,0-0.3,0-0.5-0.2s-0.2-0.4-0.2-0.5v-6.6c0-0.3,0.2-0.5,0.4-0.6l53.3-25.2
		c2.8-1.3,4.4-4.3,4-7.4c-5.4-39.2-11.9-97.7-11.9-153.4c0-2-0.9-3.9-2.4-5.3c-1.5-1.4-3.5-2-5.5-1.8l-146.7,15.2h-0.1
		c-2,0.2-3.3-0.7-4-1.3c-0.6-0.6-1.7-1.8-1.7-3.8v-10.4c0-2,1.1-3.8,2.9-4.6l59.2-28c2.5-1.2,4.1-3.7,4.1-6.4v-17.5
		c0-1.6,1.3-2.9,2.9-2.9h13.3c1.6,0,2.9,1.3,2.9,2.9v1.7c0,2.4,1.2,4.6,3.2,5.9s4.5,1.5,6.7,0.6l60.7-25.8c2.6-1.1,4.3-3.7,4.3-6.6
		v-90.7c0-37.9,13.8-66.2,26.2-66.2s26.2,28.3,26.2,66.2v90.7c0,2.9,1.7,5.4,4.3,6.6l60.7,25.8c2.2,0.9,4.7,0.7,6.7-0.6
		c2-1.3,3.2-3.5,3.2-5.9v-1.7c0-1.6,1.3-2.9,2.9-2.9h13.4c1.6,0,2.9,1.3,2.9,2.9v17.5c0,2.8,1.6,5.3,4.1,6.4l59.2,28
		c1.8,0.8,2.9,2.6,2.9,4.6L735.9,557.1L735.9,557.1z"/>
</g>
</svg>
