<?xml version="1.0" encoding="utf-8"?>
<!-- Generator: Adobe Illustrator 25.4.1, SVG Export Plug-In . SVG Version: 6.00 Build 0)  -->
<svg version="1.1" id="Icons" xmlns="http://www.w3.org/2000/svg" xmlns:xlink="http://www.w3.org/1999/xlink" x="0px" y="0px"
	 viewBox="0 0 800 800" style="enable-background:new 0 0 800 800;" xml:space="preserve">
<style type="text/css">
	.st0{fill:#F56800;}
</style>
<path class="st0" d="M800,325c0-15-10-25-25-25H650v-50c0-42.5-32.5-75-75-75c-15,0-25,10-25,25c0,15,10,25,25,25s25,10,25,25v50
	H495l-60-150h40c15,0,25-10,25-25s-10-25-25-25h-75H175c-2.5,0-7.5,0-10,2.5c0,0-2.5,0-2.5,2.5c-2.5,0-2.5,2.5-5,2.5L155,110
	c0,2.5-2.5,2.5-2.5,5c0,0,0,2.5-2.5,2.5v2.5l-42.5,207.5c-30,12.5-55,32.5-77.5,55c-10,10-10,25,0,35s25,10,35,0
	C107.5,375,165,350,225,350c125,0,225,100,225,225c0,7.5,0,15,0,22.5c0,0,0,0,0,2.5c0,0,0,0,0,2.5s0,2.5,0,5c0,2.5,0,2.5,0,5
	s2.5,2.5,2.5,5l2.5,2.5c2.5,2.5,2.5,2.5,5,5l2.5,2.5c2.5,0,5,2.5,7.5,2.5h2.5c0,0,0,0,2.5,0l0,0h77.5c-2.5,2.5-2.5,12.5-2.5,20
	c0,70,55,125,125,125s125-55,125-125c0-12.5-2.5-25-5-35c2.5-5,5-10,5-15V325z M675,725c-42.5,0-75-32.5-75-75s32.5-75,75-75
	s75,32.5,75,75S717.5,725,675,725z"/>
<path class="st0" d="M225,375c-110,0-200,90-200,200s90,200,200,200s200-90,200-200S335,375,225,375z M225,650
	c-42.5,0-75-32.5-75-75s32.5-75,75-75s75,32.5,75,75S267.5,650,225,650z"/>
</svg>
