<?xml version="1.0" encoding="utf-8"?>
<!-- Generator: Adobe Illustrator 25.4.1, SVG Export Plug-In . SVG Version: 6.00 Build 0)  -->
<svg version="1.1" id="Icons" xmlns="http://www.w3.org/2000/svg" xmlns:xlink="http://www.w3.org/1999/xlink" x="0px" y="0px"
	 viewBox="0 0 800 800" style="enable-background:new 0 0 800 800;" xml:space="preserve">
<style type="text/css">
	.st0{fill:#F56800;}
</style>
<path class="st0" d="M160.8,423.7c-53.3,0-96.7,43.4-96.7,96.7c0,53.3,43.4,96.7,96.7,96.7c53.3,0,96.7-43.4,96.7-96.7
	C257.6,467.1,214.2,423.7,160.8,423.7z M160.8,591.8c-39.3,0-71.4-32-71.4-71.4c0-39.3,32-71.4,71.4-71.4s71.4,32,71.4,71.4
	C232.2,559.8,200.2,591.8,160.8,591.8z"/>
<path class="st0" d="M160.8,481.6c-21.4,0-38.9,17.4-38.9,38.9c0,21.4,17.4,38.9,38.9,38.9c21.4,0,38.9-17.4,38.9-38.9
	C199.7,499,182.3,481.6,160.8,481.6z M160.8,533.9c-7.4,0-13.5-6.1-13.5-13.5c0-7.4,6.1-13.5,13.5-13.5c7.4,0,13.5,6.1,13.5,13.5
	C174.3,527.9,168.3,533.9,160.8,533.9z"/>
<path class="st0" d="M692.5,449.5v-88.4c0-6.2-4.4-11.4-10.5-12.5l-113.2-20V218.8c0-19.2,15.6-34.8,34.8-34.8
	c7,0,12.7-5.7,12.7-12.7v-39.1c0-7-5.7-12.7-12.7-12.7c-54.7,0-99.3,44.5-99.3,99.3v98.5l-35.9-6.3l-55.3-150h14.1
	c7,0,12.7-5.7,12.7-12.7v-51c0-7-5.7-12.7-12.7-12.7H98c-7,0-12.7,5.7-12.7,12.7v51c0,7,5.7,12.7,12.7,12.7h18.1v158.3H67.8
	c-7,0-12.7,5.7-12.7,12.7c0,0.6,0.1,1.2,0.2,1.8c-0.1,0.6-0.2,1.2-0.2,1.8v63.8C21.4,428.9,0,472.2,0,520.4
	c0,88.7,72.1,160.8,160.8,160.8c73.9,0,136.3-50.2,155.1-118.2h242.4c-0.1,2.2-0.2,4.5-0.2,6.7c0,66.7,54.3,121,121,121
	c66.7,0,121-54.3,121-121C800,507.6,752.9,456.3,692.5,449.5z M529.8,218.8c0-36.4,26.5-66.8,61.2-72.8V160
	c-27.1,5.8-47.5,30-47.5,58.9v105.4l-13.7-2.4V218.8z M110.7,109.9h303.9v25.6H395H128.8h-18.1V109.9z M160.8,655.9
	c-74.7,0-135.4-60.8-135.4-135.4c0-74.7,60.8-135.4,135.4-135.4c74.7,0,135.4,60.8,135.4,135.4C296.2,595.1,235.5,655.9,160.8,655.9
	z M320.7,537.6c0.6-5.6,0.9-11.4,0.9-17.2c0-88.7-72.1-160.8-160.8-160.8c-29.2,0-56.7,7.9-80.3,21.6v-36.6h48.3
	c7,0,12.7-5.7,12.7-12.7v-171h244.7l61,165.6c1.6,4.2,5.3,7.3,9.7,8.1l210.2,37.1v77.5c-50.3,4.9-91.6,40.8-104.7,88.3H320.7z
	 M679,665.3c-52.7,0-95.6-42.9-95.6-95.6c0-52.7,42.9-95.6,95.6-95.6c52.7,0,95.6,42.9,95.6,95.6C774.6,622.4,731.7,665.3,679,665.3
	z"/>
<path class="st0" d="M679,495.6c-40.9,0-74.1,33.3-74.1,74.1c0,40.9,33.3,74.1,74.1,74.1s74.1-33.3,74.1-74.1
	C753.2,528.8,719.9,495.6,679,495.6z M679,618.5c-26.9,0-48.7-21.9-48.7-48.8c0-26.9,21.9-48.7,48.7-48.7s48.8,21.9,48.8,48.7
	C727.8,596.6,705.9,618.5,679,618.5z"/>
<path class="st0" d="M679,537.9c-17.6,0-31.8,14.3-31.8,31.8c0,17.6,14.3,31.8,31.8,31.8c17.6,0,31.8-14.3,31.8-31.8
	C710.9,552.2,696.6,537.9,679,537.9z M679,576.2c-3.6,0-6.4-2.9-6.4-6.4c0-3.6,2.9-6.4,6.4-6.4c3.6,0,6.5,2.9,6.5,6.4
	C685.5,573.3,682.6,576.2,679,576.2z"/>
<path class="st0" d="M374.5,190.5c-1.9-4.9-6.6-8.1-11.8-8.1h-184c-7,0-12.7,5.7-12.7,12.7v127.8c0,6.4,4.7,11.8,11.1,12.6
	c1.6,0.2,158.4,21.7,195.6,130c1.8,5.1,6.6,8.6,12,8.6h81.8c4.2,0,8.1-2.1,10.5-5.5c2.4-3.5,2.9-7.9,1.3-11.8L374.5,190.5z
	 M393.4,448.8c-19.4-47.4-61.3-86.1-121.8-112.1c-33.6-14.5-64.4-21.5-80.2-24.5V207.8H354l93.8,240.9H393.4z"/>
</svg>
