<?xml version="1.0" encoding="utf-8"?>
<!-- Generator: Adobe Illustrator 25.4.1, SVG Export Plug-In . SVG Version: 6.00 Build 0)  -->
<svg version="1.1" id="Layer_1" focusable="false" xmlns="http://www.w3.org/2000/svg" xmlns:xlink="http://www.w3.org/1999/xlink"
	 x="0px" y="0px" viewBox="0 0 800 800" style="enable-background:new 0 0 800 800;" xml:space="preserve">
<style type="text/css">
	.st0{fill:#F9F9F9;}
</style>
<path class="st0" d="M173.6,57.1c-3.8,0-7.8,1.3-10.7,4.2l-71.7,71.7c-5.8,5.8-5.8,15.1,0,21l57.3,56.8c1.3,2.1,3,3.9,5.1,5.1
	l83.9,84.3c2.1-9,6.9-17.1,14-23.3l2.3-2.3L242.1,263l50.8-50.8l14.9,15.4l22.4-20l-84.3-84.3c-0.5-0.8-1.2-1.6-1.9-2.3l-1.4-0.9
	c-0.7-0.7-1.5-1.3-2.3-1.9l-56.4-56.8C180.9,58.4,177.4,57.1,173.6,57.1z M626.4,57.1c-3.8,0-7.3,1.3-10.2,4.2L557.5,120
	c-1.7,1.1-3.1,2.5-4.2,4.2l-83.4,83.4l22.4,20l14.9-15.4l50.8,50.8l-11.6,11.6l2.3,2.3c7.1,6.2,11.8,14.3,14,23.3l83.4-83.9
	c2.1-1.3,3.9-3,5.1-5.1l57.8-57.3c5.8-5.8,5.8-15.1,0-21l-71.7-71.7C634.2,58.4,630.2,57.1,626.4,57.1L626.4,57.1z M173.6,93
	l38.2,38.7L161.5,182l-38.7-38.2L173.6,93z M626.4,93l50.8,50.8L638.5,182l-50.3-50.3L626.4,93z M233.2,152.6l38.2,38.7l-50.3,50.3
	l-38.7-38.2L233.2,152.6z M566.8,152.6l50.8,50.8l-38.7,38.2l-50.3-50.3L566.8,152.6z M400,191.3c-3.5,0-7,1.3-9.8,3.7L275.2,295.7
	h249.7L409.8,195C407,192.6,403.5,191.3,400,191.3L400,191.3z M264.9,325.5L236,727c-0.3,4.1,1.4,8.2,4.2,11.2
	c2.8,3,6.6,4.7,10.7,4.7h298.1c4.1,0,7.9-1.6,10.7-4.7c2.8-3,4.5-7.1,4.2-11.2l-28.9-401.6L264.9,325.5L264.9,325.5z M385.1,400
	h29.8v44.7h-29.8V400z M225.8,451.7L91.1,586.3c-5.8,5.8-5.8,15.1,0,21l71.7,71.7c2.9,2.9,6.9,4.2,10.7,4.2s7.3-1.3,10.2-4.2l28-28
	l5.6-79.2L182.5,537l38.7-38.2l1.4,0.9L225.8,451.7L225.8,451.7z M574.2,451.7l3.3,48l1.4-0.9l38.7,38.2l-34.9,34.9l5.6,79.2l28,28
	c2.9,2.9,6.4,4.2,10.2,4.2c3.8,0,7.8-1.3,10.7-4.2l71.7-71.7c5.8-5.8,5.8-15.1,0-21L574.2,451.7L574.2,451.7z M161.5,558.4
	l50.3,50.3l-38.2,38.7l-50.8-50.8L161.5,558.4z M638.5,558.4l38.7,38.2l-50.8,50.8l-38.2-38.7L638.5,558.4z M400,593.8
	c24.7,0,44.7,20,44.7,44.7V713h-89.4v-74.5C355.3,613.8,375.3,593.8,400,593.8L400,593.8z"/>
</svg>
