<?xml version="1.0" encoding="utf-8"?>
<!-- Generator: Adobe Illustrator 25.4.1, SVG Export Plug-In . SVG Version: 6.00 Build 0)  -->
<svg version="1.1" id="Layer_1" xmlns="http://www.w3.org/2000/svg" xmlns:xlink="http://www.w3.org/1999/xlink" x="0px" y="0px"
	 viewBox="0 0 800 800" style="enable-background:new 0 0 800 800;" xml:space="preserve">
<style type="text/css">
	.st0{opacity:0.1;fill:url(#SVGID_1_);enable-background:new    ;}
	.st1{fill:url(#SVGID_00000089556761261294045360000011798286160223061383_);}
	.st2{fill:url(#SVGID_00000003081095229177030660000011957924683998435740_);}
	.st3{fill:none;stroke:#FFFFFF;stroke-width:7.9083;stroke-miterlimit:9.9999;}
	.st4{fill:#F18A00;}
	.st5{fill:#BC6904;}
	.st6{fill:url(#SVGID_00000174569504960033802400000008615933360598330022_);}
	.st7{fill:none;stroke:#F18A00;stroke-width:22.9998;stroke-miterlimit:9.9999;}
</style>
<g>
	<g>
		<g>
			
				<linearGradient id="SVGID_1_" gradientUnits="userSpaceOnUse" x1="756.0773" y1="-135.7164" x2="219.0816" y2="663.8091" gradientTransform="matrix(1 0 0 -1 0 800)">
				<stop  offset="0.1082" style="stop-color:#495867"/>
				<stop  offset="1" style="stop-color:#495867;stop-opacity:0.1"/>
			</linearGradient>
			<circle class="st0" cx="432.2" cy="453.5" r="339.5"/>
			<g>
				
					<linearGradient id="SVGID_00000014604632068169825820000013196280470835924896_" gradientUnits="userSpaceOnUse" x1="650.7006" y1="-4.5295" x2="334.9549" y2="511.2924" gradientTransform="matrix(1 0 0 -1 0 800)">
					<stop  offset="0" style="stop-color:#F7F7FF"/>
					<stop  offset="1" style="stop-color:#DEDEE6;stop-opacity:0.1"/>
				</linearGradient>
				<circle style="fill:url(#SVGID_00000014604632068169825820000013196280470835924896_);" cx="402.1" cy="398.4" r="339.5"/>
				
					<linearGradient id="SVGID_00000018233811346496822290000005495913055453238934_" gradientUnits="userSpaceOnUse" x1="205.7465" y1="658.8914" x2="296.4062" y2="540.0957" gradientTransform="matrix(1 0 0 -1 0 800)">
					<stop  offset="0" style="stop-color:#F7F7FF"/>
					<stop  offset="1" style="stop-color:#DEDEE6;stop-opacity:0.1"/>
				</linearGradient>
				<circle style="fill:url(#SVGID_00000018233811346496822290000005495913055453238934_);" cx="402.1" cy="398.4" r="339.5"/>
				
					<ellipse transform="matrix(0.7071 -0.7071 0.7071 0.7071 -163.9316 401.0417)" class="st3" cx="402.1" cy="398.4" rx="339.5" ry="339.5"/>
			</g>
		</g>
		<g>
			<g>
				<polygon class="st4" points="247.6,623.3 309.4,607.9 355.8,654.3 417.6,422.4 309.4,391.5 				"/>
				<polygon class="st4" points="556.7,623.3 494.9,607.9 448.5,654.3 386.7,422.4 494.9,391.5 				"/>
				<polygon class="st5" points="402.1,202.1 450.1,177.5 479.4,222.8 533.3,225.5 536,279.4 581.3,308.7 556.7,356.7 581.3,404.7 
					536,434 533.3,487.9 479.4,490.6 450.1,535.9 402.1,511.3 354.1,535.9 324.8,490.6 271,487.9 268.3,434 223,404.7 247.6,356.7 
					223,308.7 268.3,279.4 271,225.5 324.8,222.8 354.1,177.5 				"/>
				<polygon class="st4" points="402.1,186.7 450.1,162.1 479.4,207.4 533.3,210.1 536,264 581.3,293.2 556.7,341.2 581.3,389.2 
					536,418.5 533.3,472.4 479.4,475.1 450.1,520.4 402.1,495.8 354.1,520.4 324.8,475.1 271,472.4 268.3,418.5 223,389.2 
					247.6,341.2 223,293.2 268.3,264 271,210.1 324.8,207.4 354.1,162.1 				"/>
				
					<linearGradient id="SVGID_00000090277951848820355100000013890429675556218499_" gradientUnits="userSpaceOnUse" x1="278.4" y1="461.6" x2="525.8" y2="461.6" gradientTransform="matrix(1 0 0 -1 0 800)">
					<stop  offset="0" style="stop-color:#F7F7FF"/>
					<stop  offset="1" style="stop-color:#DEDEE6"/>
				</linearGradient>
				<circle style="fill:url(#SVGID_00000090277951848820355100000013890429675556218499_);" cx="402.1" cy="338.4" r="123.7"/>
				<g>
					<path class="st4" d="M356.6,293.7c2.9-1.4,5.6-2.7,8.4-4.1c2.7-1.4,5.4-3,8.2-4.8c2.8-1.8,5.7-4.2,8.9-6.9
						c3.1-2.8,6.5-6.4,10.2-10.9h36.3v115.6h19v27.1H366v-27.1h20.4v-75.8l-20.4,9.6L356.6,293.7z"/>
				</g>
			</g>
		</g>
	</g>
	<ellipse class="st7" cx="402.1" cy="398.4" rx="380.9" ry="380.9"/>
</g>
</svg>
