<?xml version="1.0" encoding="utf-8"?>
<!-- Generator: Adobe Illustrator 25.4.1, SVG Export Plug-In . SVG Version: 6.00 Build 0)  -->
<svg version="1.1" id="Layer_1" xmlns="http://www.w3.org/2000/svg" xmlns:xlink="http://www.w3.org/1999/xlink" x="0px" y="0px"
	 viewBox="0 0 800 800" style="enable-background:new 0 0 800 800;" xml:space="preserve">
<style type="text/css">
	.st0{opacity:0.1;fill:url(#SVGID_1_);}
	.st1{fill:url(#SVGID_00000099656883310502291720000011040991248090891661_);}
	.st2{fill:url(#SVGID_00000181786227284796258570000015051601701083995054_);}
	.st3{fill:none;stroke:#FFFFFF;stroke-width:7.9084;stroke-miterlimit:10;}
	.st4{fill:url(#SVGID_00000161611715831924686870000011248112712572154032_);}
	.st5{fill:url(#SVGID_00000053524586692700123730000006337335948023504005_);}
	.st6{fill:url(#SVGID_00000114042343638693140390000016068514818623280532_);}
	.st7{fill:url(#SVGID_00000146500506017020608100000016343832351773296531_);}
	.st8{fill:url(#SVGID_00000156545471303640536240000017381065639864257205_);}
	.st9{fill:#47A871;}
	.st10{fill:none;stroke:url(#SVGID_00000098183867312889280410000014749504267590733727_);stroke-width:23;stroke-miterlimit:10;}
</style>
<g>
	<g>
		<g>
			<linearGradient id="SVGID_1_" gradientUnits="userSpaceOnUse" x1="756.0929" y1="935.706" x2="219.0972" y2="136.1804">
				<stop  offset="0.1082" style="stop-color:#495867"/>
				<stop  offset="1" style="stop-color:#495867;stop-opacity:0.1"/>
			</linearGradient>
			<circle class="st0" cx="432.2" cy="453.5" r="339.5"/>
			<g>
				
					<linearGradient id="SVGID_00000084514067549624855080000003366038502531935926_" gradientUnits="userSpaceOnUse" x1="650.739" y1="804.506" x2="334.9933" y2="288.6841">
					<stop  offset="0" style="stop-color:#F7F7FF"/>
					<stop  offset="1" style="stop-color:#DEDEE6;stop-opacity:0.1"/>
				</linearGradient>
				<circle style="fill:url(#SVGID_00000084514067549624855080000003366038502531935926_);" cx="402.1" cy="398.4" r="339.5"/>
				
					<linearGradient id="SVGID_00000132067436081669797350000015331716509320825243_" gradientUnits="userSpaceOnUse" x1="205.7841" y1="141.0799" x2="296.4438" y2="259.8756">
					<stop  offset="0" style="stop-color:#F7F7FF"/>
					<stop  offset="1" style="stop-color:#DEDEE6;stop-opacity:0.1"/>
				</linearGradient>
				<circle style="fill:url(#SVGID_00000132067436081669797350000015331716509320825243_);" cx="402.1" cy="398.4" r="339.5"/>
				
					<ellipse transform="matrix(0.7071 -0.7071 0.7071 0.7071 -163.8992 401.0201)" class="st3" cx="402.1" cy="398.4" rx="339.5" ry="339.5"/>
			</g>
		</g>
		<g>
			<g>
				
					<linearGradient id="SVGID_00000168080562543504834710000004860374783747381378_" gradientUnits="userSpaceOnUse" x1="332.5663" y1="438.5399" x2="332.5663" y2="610.2562">
					<stop  offset="0" style="stop-color:#397000"/>
					<stop  offset="1" style="stop-color:#00C700"/>
				</linearGradient>
				<polygon style="fill:url(#SVGID_00000168080562543504834710000004860374783747381378_);" points="247.6,623.3 309.4,607.9 
					355.8,654.3 417.6,422.4 309.4,391.5 				"/>
				
					<linearGradient id="SVGID_00000078761391446248927750000000270722263651182210_" gradientUnits="userSpaceOnUse" x1="471.6826" y1="438.5399" x2="471.6826" y2="610.2562">
					<stop  offset="0" style="stop-color:#397000"/>
					<stop  offset="1" style="stop-color:#00C700"/>
				</linearGradient>
				<polygon style="fill:url(#SVGID_00000078761391446248927750000000270722263651182210_);" points="556.7,623.3 494.9,607.9 
					448.5,654.3 386.7,422.4 494.9,391.5 				"/>
				
					<linearGradient id="SVGID_00000009555668121201307840000008721722039266441885_" gradientUnits="userSpaceOnUse" x1="403.9232" y1="151.6511" x2="401.3014" y2="450.5153">
					<stop  offset="0" style="stop-color:#397000"/>
					<stop  offset="1" style="stop-color:#00C700"/>
				</linearGradient>
				<polygon style="fill:url(#SVGID_00000009555668121201307840000008721722039266441885_);" points="402.1,202.1 450.1,177.5 
					479.4,222.8 533.3,225.5 536,279.4 581.3,308.7 556.7,356.7 581.3,404.7 536,434 533.3,487.9 479.4,490.6 450.1,535.9 
					402.1,511.3 354.1,535.9 324.8,490.6 271,487.9 268.3,434 223,404.7 247.6,356.7 223,308.7 268.3,279.4 271,225.5 324.8,222.8 
					354.1,177.5 				"/>
				
					<linearGradient id="SVGID_00000115502660012542370580000012675456429466029243_" gradientUnits="userSpaceOnUse" x1="398.1481" y1="580.8052" x2="403.3915" y2="264.9004">
					<stop  offset="0" style="stop-color:#397000"/>
					<stop  offset="1" style="stop-color:#00C700"/>
				</linearGradient>
				<polygon style="fill:url(#SVGID_00000115502660012542370580000012675456429466029243_);" points="402.1,186.7 450.1,162.1 
					479.4,207.4 533.3,210.1 536,264 581.3,293.2 556.7,341.2 581.3,389.2 536,418.5 533.3,472.4 479.4,475.1 450.1,520.4 
					402.1,495.8 354.1,520.4 324.8,475.1 271,472.4 268.3,418.5 223,389.2 247.6,341.2 223,293.2 268.3,264 271,210.1 324.8,207.4 
					354.1,162.1 				"/>
				
					<linearGradient id="SVGID_00000054224954433674297840000011974789800697939899_" gradientUnits="userSpaceOnUse" x1="278.4647" y1="338.3508" x2="525.7842" y2="338.3508">
					<stop  offset="0" style="stop-color:#F7F7FF"/>
					<stop  offset="1" style="stop-color:#DEDEE6"/>
				</linearGradient>
				<circle style="fill:url(#SVGID_00000054224954433674297840000011974789800697939899_);" cx="402.1" cy="338.4" r="123.7"/>
				<g>
					<path class="st9" d="M356.6,293.7c2.9-1.4,5.6-2.7,8.4-4.1c2.7-1.4,5.4-3,8.2-4.8c2.8-1.8,5.7-4.2,8.9-6.9
						c3.1-2.8,6.5-6.4,10.2-10.9h36.3v115.6h19v27.1H366v-27.1h20.4v-75.8l-20.4,9.6L356.6,293.7z"/>
				</g>
			</g>
		</g>
	</g>
	
		<linearGradient id="SVGID_00000173882968343896249750000007911313156930175377_" gradientUnits="userSpaceOnUse" x1="9.6791" y1="398.354" x2="794.5702" y2="398.354">
		<stop  offset="0" style="stop-color:#397000"/>
		<stop  offset="1" style="stop-color:#00C700"/>
	</linearGradient>
	
		<ellipse transform="matrix(0.7071 -0.7071 0.7071 0.7071 -163.8992 401.0201)" style="fill:none;stroke:url(#SVGID_00000173882968343896249750000007911313156930175377_);stroke-width:23;stroke-miterlimit:10;" cx="402.1" cy="398.4" rx="380.9" ry="380.9"/>
</g>
</svg>
