<?xml version="1.0" encoding="utf-8"?>
<!-- Generator: Adobe Illustrator 25.4.1, SVG Export Plug-In . SVG Version: 6.00 Build 0)  -->
<svg version="1.1" id="Layer_1" xmlns="http://www.w3.org/2000/svg" xmlns:xlink="http://www.w3.org/1999/xlink" x="0px" y="0px"
	 viewBox="0 0 785.4 787.4" style="enable-background:new 0 0 785.4 787.4;" xml:space="preserve">
<style type="text/css">
	.st0{opacity:0.1;fill:url(#SVGID_1_);enable-background:new    ;}
	.st1{fill:url(#SVGID_00000179648475922636280320000016313917258736619175_);}
	.st2{fill:url(#SVGID_00000062180259349301281830000017608424472354050746_);}
	.st3{fill:none;stroke:#FFFFFF;stroke-width:7.91;stroke-miterlimit:10;}
	.st4{fill:url(#SVGID_00000115493593356670714320000014556093870457581997_);}
	.st5{fill:#F18A00;}
	.st6{fill:url(#SVGID_00000036223463532455310740000001421482085171791761_);}
	.st7{fill:url(#SVGID_00000164473170477468776920000004883956244144781476_);}
	.st8{fill:url(#SVGID_00000024687760374998624610000008583354913974853822_);}
	.st9{fill:url(#SVGID_00000121973050543687597340000006854905923547629708_);}
	.st10{fill:url(#SVGID_00000087385823621729067600000017608724658284189587_);}
	.st11{fill:none;stroke:#F18A00;stroke-width:23.73;stroke-miterlimit:10;}
</style>
<g>
	<g id="Layer_1_00000060018025882898976030000014195534047231314857_">
		
			<linearGradient id="SVGID_1_" gradientUnits="userSpaceOnUse" x1="754.0468" y1="-140.5322" x2="216.9268" y2="659.1878" gradientTransform="matrix(1 0 0 -1 -7.3029 789.6561)">
			<stop  offset="0.11" style="stop-color:#495867"/>
			<stop  offset="1" style="stop-color:#495867;stop-opacity:0.1"/>
		</linearGradient>
		<circle class="st0" cx="422.8" cy="447.8" r="339.6"/>
		
			<linearGradient id="SVGID_00000129180428038211126480000005422250891542616232_" gradientUnits="userSpaceOnUse" x1="648.6753" y1="-9.2968" x2="332.8553" y2="506.6532" gradientTransform="matrix(1 0 0 -1 -7.3022 789.6603)">
			<stop  offset="0" style="stop-color:#F7F7FF"/>
			<stop  offset="1" style="stop-color:#DEDEE6;stop-opacity:0.1"/>
		</linearGradient>
		<circle style="fill:url(#SVGID_00000129180428038211126480000005422250891542616232_);" cx="392.7" cy="392.7" r="339.6"/>
		
			<linearGradient id="SVGID_00000003796535758065075060000004422578177125843346_" gradientUnits="userSpaceOnUse" x1="203.6219" y1="654.2991" x2="294.3019" y2="535.4691" gradientTransform="matrix(1 0 0 -1 -7.3022 789.6603)">
			<stop  offset="0" style="stop-color:#F7F7FF"/>
			<stop  offset="1" style="stop-color:#DEDEE6;stop-opacity:0.1"/>
		</linearGradient>
		<circle style="fill:url(#SVGID_00000003796535758065075060000004422578177125843346_);" cx="392.7" cy="392.7" r="339.6"/>
		
			<ellipse transform="matrix(0.7071 -0.7071 0.7071 0.7071 -162.6653 392.7024)" class="st3" cx="392.7" cy="392.7" rx="339.6" ry="339.6"/>
		
			<linearGradient id="SVGID_00000065777588982058542770000005272356329514727595_" gradientUnits="userSpaceOnUse" x1="273" y1="257.41" x2="273" y2="400.29" gradientTransform="matrix(1 0 0 -1 -7.3 789.65)">
			<stop  offset="0" style="stop-color:#FFFFFF"/>
			<stop  offset="0.25" style="stop-color:#FCFCFC"/>
			<stop  offset="0.46" style="stop-color:#F1F3F5"/>
			<stop  offset="0.67" style="stop-color:#DFE5E8"/>
			<stop  offset="0.86" style="stop-color:#C6D0D5"/>
			<stop  offset="1" style="stop-color:#B0BEC5"/>
		</linearGradient>
		<path style="fill:url(#SVGID_00000065777588982058542770000005272356329514727595_);" d="M154.6,532.2c-4.1,0-8.1-5.5-11.2-8.6
			s-4.6-11.1-4.6-15.2v-22.8c0-14.6,9.9-27.2,24-30.8l59.2-14.8c7.1-1.8,12-8.1,12-15.4v-35.2h63.5v35.2c0,7.3,4.9,13.6,12,15.4
			l59.3,14.8c14.1,3.5,24,16.2,24,30.8v22.8c0,4.1-1.5,12.1-4.6,15.2s-7.2,8.6-11.2,8.6L154.6,532.2z"/>
		<path class="st5" d="M386,466c-4.3-5.6-10.4-9.5-17.3-11.3L309.5,440c-3.4-0.9-6.5-2.8-8.7-5.6c-0.9-1.2-1.5,1.5-2,0.2l-17.2,18.3
			h-31.8l-17.2-18.3c-0.5,1.3-1.1,0.6-2,1.8c-2.3,2.9-5.3,3.8-8.7,4.6l-59.3,14.3c-14,3.3-24,15.9-24,30.3v22.8
			c0,4.1,1.6,12.1,4.6,15.2s7.2,8.6,11.2,8.6h222.2c4.1,0,8.1-5.5,11.2-8.6s4.6-11.1,4.6-15.2v-22.8
			C392.7,478.5,390.3,471.6,386,466z"/>
		<polygon class="st5" points="210.1,454.2 226,430.4 265.7,454.2 249.8,478 		"/>
		<polygon class="st5" points="321.3,454.2 305.4,430.4 265.7,454.2 281.6,478 		"/>
		
			<linearGradient id="SVGID_00000135659935404214188550000007599145107365055111_" gradientUnits="userSpaceOnUse" x1="270.8875" y1="517.41" x2="270.8875" y2="347.32" gradientTransform="matrix(1 0 0 -1 -7.3 789.65)">
			<stop  offset="0" style="stop-color:#FFFFFF"/>
			<stop  offset="0.25" style="stop-color:#FCFCFC"/>
			<stop  offset="0.46" style="stop-color:#F1F3F5"/>
			<stop  offset="0.67" style="stop-color:#DFE5E8"/>
			<stop  offset="0.86" style="stop-color:#C6D0D5"/>
			<stop  offset="1" style="stop-color:#B0BEC5"/>
		</linearGradient>
		<path style="fill:url(#SVGID_00000135659935404214188550000007599145107365055111_);" d="M311.3,348
			c-2.3-28.6-14.7-48.9-47.7-48.9s-45.8,21.1-48.1,49.7c-3.6,1.5-6,8-5.3,17.2c0.8,9.9,4.6,17.9,8.8,18.4
			c7.4,23.5,24.6,42.5,44.6,42.5s37.2-19,44.6-42.5c4.2-0.6,8-8.5,8.8-18.4C317.6,356.8,314.8,349.5,311.3,348z"/>
		<path class="st5" d="M228.1,356h2.8c0,0-2-16.5,5.1-20.1c11.4-5.8,16,10.9,39.3,8.4s22,11.7,22,11.7h2.3c0,0,0.9-5.7,3.2-7.1
			c8.5-5.1,12.2,3.6,12.2,3.6s0.2-3.2,0.2-5.5c0-38.1-14.6-51.2-32.7-57.5c-16.9-5.9-27.2-3-32.6,0.1c-3.6,2.1-7.4,3.8-11.4,5
			c-5.5,1.7-10.6,4.6-14.9,8.5c-9.8,8.9-13.4,20.6-11.8,43.9c0.1,1.9,0.1,3.9-0.1,5.8c3.3-5.4,8.4-6.4,12.3-4
			C226.8,350.4,228.1,356,228.1,356z"/>
		
			<linearGradient id="SVGID_00000034778559130177807480000012684173632947982245_" gradientUnits="userSpaceOnUse" x1="527" y1="257.41" x2="527" y2="400.29" gradientTransform="matrix(1 0 0 -1 -7.3 789.65)">
			<stop  offset="0" style="stop-color:#FFFFFF"/>
			<stop  offset="0.25" style="stop-color:#FCFCFC"/>
			<stop  offset="0.46" style="stop-color:#F1F3F5"/>
			<stop  offset="0.67" style="stop-color:#DFE5E8"/>
			<stop  offset="0.86" style="stop-color:#C6D0D5"/>
			<stop  offset="1" style="stop-color:#B0BEC5"/>
		</linearGradient>
		<path style="fill:url(#SVGID_00000034778559130177807480000012684173632947982245_);" d="M408.6,532.2c-4.1,0-8.1-5.5-11.2-8.6
			s-4.6-11.1-4.6-15.2v-22.8c0-14.6,9.9-27.3,24-30.8l59.2-14.8c7.1-1.8,12-8.1,12-15.4v-35.2h63.5v35.2c0,7.3,4.9,13.6,12,15.4
			l59.3,14.8c14.1,3.6,24,16.2,24,30.8v22.8c0,4.1-1.5,12.1-4.7,15.2s-7.2,8.6-11.2,8.6L408.6,532.2z"/>
		<path class="st5" d="M640,466c-4.3-5.6-10.4-9.5-17.3-11.3L563.5,440c-3.4-0.9-6.5-2.8-8.7-5.6c-0.9-1.2-1.5,1.5-2,0.2l-17.2,18.3
			h-31.8l-17.2-18.3c-0.5,1.3-1.1,0.6-2,1.8c-2.3,2.9-5.3,3.8-8.7,4.6l-59.2,14.3c-14.1,3.3-24.1,15.8-24.1,30.3v22.8
			c0,4.1,1.5,12.1,4.6,15.2s7.2,8.6,11.2,8.6h222.3c4.1,0,8.1-5.5,11.2-8.6s4.6-11.1,4.6-15.2v-22.8
			C646.7,478.5,644.3,471.6,640,466z"/>
		<polygon class="st5" points="464.1,454.2 480,430.4 519.7,454.2 503.8,478 		"/>
		<polygon class="st5" points="575.3,454.2 559.4,430.4 519.7,454.2 535.6,478 		"/>
		
			<linearGradient id="SVGID_00000028305642745981806150000015475846942050006443_" gradientUnits="userSpaceOnUse" x1="524.9056" y1="517.41" x2="524.9056" y2="347.32" gradientTransform="matrix(1 0 0 -1 -7.3 789.65)">
			<stop  offset="0" style="stop-color:#FFFFFF"/>
			<stop  offset="0.25" style="stop-color:#FCFCFC"/>
			<stop  offset="0.46" style="stop-color:#F1F3F5"/>
			<stop  offset="0.67" style="stop-color:#DFE5E8"/>
			<stop  offset="0.86" style="stop-color:#C6D0D5"/>
			<stop  offset="1" style="stop-color:#B0BEC5"/>
		</linearGradient>
		<path style="fill:url(#SVGID_00000028305642745981806150000015475846942050006443_);" d="M565.3,348
			c-2.3-28.6-14.7-48.9-47.7-48.9s-45.8,21.1-48.1,49.7c-3.6,1.5-6,8-5.3,17.2c0.8,9.9,4.6,17.9,8.8,18.4
			c7.4,23.5,24.6,42.5,44.6,42.5s37.2-19,44.6-42.5c4.2-0.6,8-8.5,8.7-18.4C571.7,356.8,568.8,349.5,565.3,348z"/>
		<path class="st5" d="M482.1,356h2.8c0,0-2-16.5,5.1-20.1c11.4-5.8,16,10.9,39.3,8.4s22,11.7,22,11.7h2.3c0,0,0.9-5.7,3.2-7.1
			c8.5-5.1,12.2,3.6,12.2,3.6s0.2-3.2,0.2-5.5c0-38.1-14.6-51.2-32.7-57.5c-16.9-5.9-27.2-3-32.6,0.1c-3.6,2.1-7.4,3.8-11.4,5
			c-5.5,1.7-10.6,4.6-14.9,8.5c-9.8,8.9-13.4,20.6-11.8,43.9c0.1,1.9,0.1,3.9-0.1,5.8c3.3-5.4,8.5-6.4,12.3-4
			C480.8,350.4,482.1,356,482.1,356z"/>
		
			<linearGradient id="SVGID_00000060713749774413502400000015697111949865670565_" gradientUnits="userSpaceOnUse" x1="400" y1="210.83" x2="400" y2="425.87" gradientTransform="matrix(1 0 0 -1 -7.3 789.65)">
			<stop  offset="0" style="stop-color:#FFFFFF"/>
			<stop  offset="0.25" style="stop-color:#FCFCFC"/>
			<stop  offset="0.46" style="stop-color:#F1F3F5"/>
			<stop  offset="0.67" style="stop-color:#DFE5E8"/>
			<stop  offset="0.86" style="stop-color:#C6D0D5"/>
			<stop  offset="1" style="stop-color:#B0BEC5"/>
		</linearGradient>
		<path style="fill:url(#SVGID_00000060713749774413502400000015697111949865670565_);" d="M225.5,578.8
			c-13.2,0-23.9-10.7-23.9-23.9c0,0,0,0,0,0v-34.4c0-21.9,14.9-41,36.2-46.4l89.1-22.3c10.6-2.7,18.1-12.2,18.1-23.2v-65h95.6v65
			c0,11,7.5,20.5,18.1,23.2l89.1,22.3c21.3,5.3,36.2,24.4,36.2,46.4v34.4c0,13.2-10.7,23.9-23.9,23.9c0,0,0,0,0,0H225.5z"/>
		<path class="st5" d="M573.7,491.2c-6.5-8.4-15.7-14.4-26.1-17l-89-22.3c-7.4-1.7-13.5-7-16.1-14.1l-25.9,21.6h-47.8l-25.9-21.6
			c-2.6,7.2-8.7,12.5-16.1,14.1l-89.1,22.3c-21.3,5.3-36.2,24.4-36.2,46.4v34.4c0,13.2,10.7,23.9,23.9,23.9c0,0,0,0,0,0h334.5
			c13.2,0,23.9-10.7,23.9-23.9c0,0,0,0,0,0v-34.4C583.8,509.9,580.3,499.6,573.7,491.2z"/>
		<polygon class="st5" points="309.1,466.3 333,430.5 392.7,466.3 368.8,502.2 		"/>
		<polygon class="st5" points="476.3,466.3 452.4,430.5 392.7,466.3 416.6,502.2 		"/>
		
			<linearGradient id="SVGID_00000116230026736462443760000013740807565921099416_" gradientUnits="userSpaceOnUse" x1="396.8338" y1="357.33" x2="396.8338" y2="549.76" gradientTransform="matrix(1 0 0 -1 -7.3 789.65)">
			<stop  offset="0" style="stop-color:#FFFFFF"/>
			<stop  offset="0.25" style="stop-color:#FCFCFC"/>
			<stop  offset="0.46" style="stop-color:#F1F3F5"/>
			<stop  offset="0.67" style="stop-color:#DFE5E8"/>
			<stop  offset="0.86" style="stop-color:#C6D0D5"/>
			<stop  offset="1" style="stop-color:#B0BEC5"/>
		</linearGradient>
		<path style="fill:url(#SVGID_00000116230026736462443760000013740807565921099416_);" d="M461.3,313.5
			c-3.5-43-22.1-73.6-71.7-73.6s-68.9,31.8-72.4,74.9c-5.4,2.3-9,12-7.9,25.8c1.1,15,6.9,26.9,13.2,27.8c11.2,35.4,37,64,67.1,64
			s55.9-28.6,67.1-64c6.3-0.9,12-12.8,13.2-27.8C470.9,326.7,466.6,315.8,461.3,313.5z"/>
		<path class="st5" d="M336.1,325.6h4.2c0,0-3-24.8,7.6-30.2c17.2-8.7,24.1,16.3,59.2,12.6s33.1,17.6,33.1,17.6h3.5
			c0,0,1.4-8.5,4.9-10.6c12.8-7.6,18.3,5.4,18.3,5.4s0.3-4.8,0.3-8.3c0-57.3-22-77.1-49.2-86.6c-26.1-9.1-41.7-4.2-49.6,0.5
			c-5.3,3.1-10.9,5.5-16.7,7.2c-8.2,2.6-15.7,6.9-22,12.7c-14.7,13.4-20.1,31-17.7,66.1c0.2,2.9,0.2,5.8-0.2,8.7
			c5-8.1,12.7-9.6,18.5-6.1C334.2,317.1,336.1,325.6,336.1,325.6z"/>
		
			<ellipse transform="matrix(0.7071 -0.7071 0.7071 0.7071 -162.6653 392.7024)" class="st11" cx="392.7" cy="392.7" rx="380.8" ry="380.8"/>
	</g>
</g>
</svg>
