<svg xmlns="http://www.w3.org/2000/svg" xmlns:xlink="http://www.w3.org/1999/xlink" viewBox="0 0 785.4 787.44"><defs><style>.cls-1{isolation:isolate;}.cls-2{mix-blend-mode:multiply;opacity:0.1;fill:url(#linear-gradient);}.cls-3{fill:url(#linear-gradient-2);}.cls-4{fill:url(#linear-gradient-3);}.cls-24,.cls-5{fill:none;stroke-miterlimit:10;}.cls-5{stroke:#fff;stroke-width:7.91px;}.cls-6{fill:url(#linear-gradient-4);}.cls-7{fill:url(#linear-gradient-5);}.cls-8{fill:url(#linear-gradient-6);}.cls-9{fill:url(#linear-gradient-7);}.cls-10{fill:url(#linear-gradient-8);}.cls-11{fill:url(#linear-gradient-9);}.cls-12{fill:url(#linear-gradient-10);}.cls-13{fill:url(#linear-gradient-11);}.cls-14{fill:url(#linear-gradient-12);}.cls-15{fill:url(#linear-gradient-13);}.cls-16{fill:url(#linear-gradient-14);}.cls-17{fill:url(#linear-gradient-15);}.cls-18{fill:url(#linear-gradient-16);}.cls-19{fill:url(#linear-gradient-17);}.cls-20{fill:url(#linear-gradient-18);}.cls-21{fill:url(#linear-gradient-19);}.cls-22{fill:url(#linear-gradient-20);}.cls-23{fill:url(#linear-gradient-21);}.cls-24{stroke-width:23.73px;stroke:url(#linear-gradient-22);}</style><linearGradient id="linear-gradient" x1="754.05" y1="930.53" x2="216.93" y2="130.81" gradientTransform="translate(442.89 -172.85) rotate(45)" gradientUnits="userSpaceOnUse"><stop offset="0.11" stop-color="#495867"/><stop offset="1" stop-color="#495867" stop-opacity="0.1"/></linearGradient><linearGradient id="linear-gradient-2" x1="648.67" y1="799.3" x2="332.85" y2="283.35" gradientTransform="translate(395.08 -167.72) rotate(45)" gradientUnits="userSpaceOnUse"><stop offset="0" stop-color="#f7f7ff"/><stop offset="1" stop-color="#dedee6" stop-opacity="0.1"/></linearGradient><linearGradient id="linear-gradient-3" x1="203.61" y1="135.71" x2="294.29" y2="254.54" xlink:href="#linear-gradient-2"/><linearGradient id="linear-gradient-4" x1="273" y1="532.59" x2="273" y2="389.71" gradientUnits="userSpaceOnUse"><stop offset="0" stop-color="#fff"/><stop offset="0.25" stop-color="#fcfcfc"/><stop offset="0.46" stop-color="#f1f3f5"/><stop offset="0.67" stop-color="#dfe5e8"/><stop offset="0.86" stop-color="#c6d0d5"/><stop offset="1" stop-color="#b0bec5"/></linearGradient><linearGradient id="linear-gradient-5" x1="273" y1="532.59" x2="273" y2="434.41" gradientUnits="userSpaceOnUse"><stop offset="0" stop-color="#3800e6"/><stop offset="1" stop-color="#7200f5"/></linearGradient><linearGradient id="linear-gradient-6" x1="210.14" y1="454.17" x2="265.7" y2="454.17" xlink:href="#linear-gradient-5"/><linearGradient id="linear-gradient-7" x1="265.7" y1="454.17" x2="321.26" y2="454.17" xlink:href="#linear-gradient-5"/><linearGradient id="linear-gradient-8" x1="270.89" y1="272.59" x2="270.89" y2="442.68" xlink:href="#linear-gradient-4"/><linearGradient id="linear-gradient-9" x1="270.73" y1="356.4" x2="270.73" y2="286.52" xlink:href="#linear-gradient-5"/><linearGradient id="linear-gradient-10" x1="527" y1="532.59" x2="527" y2="389.71" xlink:href="#linear-gradient-4"/><linearGradient id="linear-gradient-11" x1="527" y1="532.59" x2="527" y2="434.41" xlink:href="#linear-gradient-5"/><linearGradient id="linear-gradient-12" x1="464.14" y1="454.17" x2="519.71" y2="454.17" xlink:href="#linear-gradient-5"/><linearGradient id="linear-gradient-13" x1="519.71" y1="454.17" x2="575.27" y2="454.17" xlink:href="#linear-gradient-5"/><linearGradient id="linear-gradient-14" x1="524.9" y1="272.59" x2="524.9" y2="442.68" xlink:href="#linear-gradient-4"/><linearGradient id="linear-gradient-15" x1="524.74" y1="356.4" x2="524.74" y2="286.52" xlink:href="#linear-gradient-5"/><linearGradient id="linear-gradient-16" x1="400" y1="579.17" x2="400" y2="364.16" xlink:href="#linear-gradient-4"/><linearGradient id="linear-gradient-17" x1="400" y1="579.17" x2="400" y2="438.15" xlink:href="#linear-gradient-5"/><linearGradient id="linear-gradient-18" x1="309.09" y1="466.33" x2="392.7" y2="466.33" xlink:href="#linear-gradient-5"/><linearGradient id="linear-gradient-19" x1="392.7" y1="466.33" x2="476.32" y2="466.33" xlink:href="#linear-gradient-5"/><linearGradient id="linear-gradient-20" x1="396.84" y1="432.63" x2="396.84" y2="240.24" xlink:href="#linear-gradient-4"/><linearGradient id="linear-gradient-21" x1="396.59" y1="325.97" x2="396.59" y2="220.83" xlink:href="#linear-gradient-5"/><linearGradient id="linear-gradient-22" x1="7.3" y1="393.05" x2="792.7" y2="393.05" gradientTransform="translate(395.08 -167.72) rotate(45)" xlink:href="#linear-gradient-5"/></defs><g class="cls-1"><g id="Layer_1" data-name="Layer 1"><circle class="cls-2" cx="430.09" cy="448.19" r="339.6" transform="translate(-198.25 435.05) rotate(-45)"/><circle class="cls-3" cx="400" cy="393.05" r="339.6" transform="translate(-168.07 397.62) rotate(-45)"/><circle class="cls-4" cx="400" cy="393.05" r="339.6" transform="translate(-168.07 397.62) rotate(-45)"/><circle class="cls-5" cx="400" cy="393.05" r="339.6" transform="translate(-168.07 397.62) rotate(-45)"/><path class="cls-6" d="M161.87,532.59c-4.06,0-8.13-5.52-11.23-8.62S146,512.84,146,508.78V485.94a31.76,31.76,0,0,1,24-30.8l59.18-14.79a15.91,15.91,0,0,0,12-15.41V389.71h63.5v35.23a15.89,15.89,0,0,0,12,15.41L376,455.14A31.73,31.73,0,0,1,400,485.94v22.84c0,4.06-1.55,12.09-4.65,15.19s-7.16,8.62-11.23,8.62Z" transform="translate(-7.3 -0.35)"/><path class="cls-7" d="M393.28,466.4A31.65,31.65,0,0,0,376,455.14l-59.18-14.79a15.8,15.8,0,0,1-8.66-5.64c-.91-1.16-1.5,1.51-2,.2l-17.2,18.3H257.12l-17.2-18.3c-.54,1.31-1.12.62-2,1.79-2.26,2.9-5.34,3.81-8.66,4.64L170,455.64a31.19,31.19,0,0,0-24,30.3v22.84c0,4.06,1.55,12.09,4.65,15.19s7.17,8.62,11.23,8.62H384.12c4.07,0,8.13-5.52,11.23-8.62S400,512.84,400,508.78V485.94A31.67,31.67,0,0,0,393.28,466.4Z" transform="translate(-7.3 -0.35)"/><polygon class="cls-8" points="210.13 454.17 226.01 430.36 265.7 454.17 249.82 477.98 210.13 454.17"/><polygon class="cls-9" points="321.26 454.17 305.39 430.36 265.7 454.17 281.57 477.98 321.26 454.17"/><path class="cls-10" d="M318.56,348.33c-2.29-28.58-14.71-48.9-47.66-48.9s-45.79,21.15-48.08,49.74c-3.57,1.54-6,8-5.27,17.16.75,9.94,4.58,17.86,8.75,18.44,7.43,23.5,24.6,42.5,44.6,42.5s37.17-19,44.6-42.5c4.17-.58,8-8.5,8.75-18.44C324.94,357.13,322.13,349.87,318.56,348.33Z" transform="translate(-7.3 -0.35)"/><path class="cls-11" d="M235.41,356.4h2.8s-2-16.5,5.06-20.08c11.42-5.75,16,10.85,39.34,8.41s22,11.67,22,11.67h2.31s.93-5.66,3.25-7.06c8.49-5.08,12.19,3.62,12.19,3.62s.2-3.18.2-5.49c0-38.06-14.6-51.21-32.69-57.54-16.88-5.91-27.19-3-32.56.07a55.48,55.48,0,0,1-11.35,5,38.68,38.68,0,0,0-14.86,8.5c-9.78,8.91-13.39,20.61-11.76,43.94a30.29,30.29,0,0,1-.11,5.78c3.31-5.36,8.45-6.41,12.3-4.05C234.11,350.75,235.41,356.4,235.41,356.4Z" transform="translate(-7.3 -0.35)"/><path class="cls-12" d="M415.87,532.59c-4.06,0-8.12-5.52-11.22-8.62S400,512.84,400,508.78V485.94a31.73,31.73,0,0,1,24.05-30.8l59.18-14.79a15.89,15.89,0,0,0,12-15.41V389.71h63.5v35.23a15.91,15.91,0,0,0,12,15.41L630,455.14a31.76,31.76,0,0,1,24,30.8v22.84c0,4.06-1.55,12.09-4.65,15.19s-7.17,8.62-11.23,8.62Z" transform="translate(-7.3 -0.35)"/><path class="cls-13" d="M647.28,466.4A31.62,31.62,0,0,0,630,455.14l-59.18-14.79a15.77,15.77,0,0,1-8.66-5.64c-.92-1.16-1.5,1.51-2,.2l-17.2,18.3H511.13l-17.2-18.3c-.54,1.31-1.13.62-2,1.79-2.27,2.9-5.34,3.81-8.66,4.64l-59.18,14.3A31.16,31.16,0,0,0,400,485.94v22.84c0,4.06,1.55,12.09,4.65,15.19s7.16,8.62,11.22,8.62H638.13c4.06,0,8.13-5.52,11.23-8.62S654,512.84,654,508.78V485.94A31.62,31.62,0,0,0,647.28,466.4Z" transform="translate(-7.3 -0.35)"/><polygon class="cls-14" points="464.14 454.17 480.02 430.36 519.71 454.17 503.83 477.98 464.14 454.17"/><polygon class="cls-15" points="575.27 454.17 559.39 430.36 519.71 454.17 535.58 477.98 575.27 454.17"/><path class="cls-16" d="M572.57,348.33c-2.3-28.58-14.72-48.9-47.66-48.9s-45.79,21.15-48.09,49.74c-3.57,1.54-5.95,8-5.26,17.16.75,9.94,4.58,17.86,8.75,18.44,7.43,23.5,24.6,42.5,44.6,42.5s37.16-19,44.6-42.5c4.17-.58,8-8.5,8.74-18.44C579,357.13,576.14,349.87,572.57,348.33Z" transform="translate(-7.3 -0.35)"/><path class="cls-17" d="M489.41,356.4h2.81s-2-16.5,5.06-20.08c11.41-5.75,16,10.85,39.34,8.41s22,11.67,22,11.67h2.31s.92-5.66,3.25-7.06c8.48-5.08,12.19,3.62,12.19,3.62s.2-3.18.2-5.49c0-38.06-14.6-51.21-32.69-57.54-16.88-5.91-27.2-3-32.56.07a55.72,55.72,0,0,1-11.35,5,38.77,38.77,0,0,0-14.87,8.5c-9.77,8.91-13.38,20.61-11.75,43.94a31.27,31.27,0,0,1-.11,5.78c3.3-5.36,8.45-6.41,12.3-4.05C488.11,350.75,489.41,356.4,489.41,356.4Z" transform="translate(-7.3 -0.35)"/><path class="cls-18" d="M232.77,579.17a23.88,23.88,0,0,1-23.89-23.89V520.92a47.78,47.78,0,0,1,36.19-46.35l89.05-22.27a23.88,23.88,0,0,0,18.1-23.17v-65h95.56v65a23.88,23.88,0,0,0,18.09,23.17l89.06,22.27a47.78,47.78,0,0,1,36.19,46.35v34.36a23.88,23.88,0,0,1-23.89,23.89Z" transform="translate(-7.3 -0.35)"/><path class="cls-19" d="M581,491.52a47.57,47.57,0,0,0-26.07-16.95l-89-22.27a22.33,22.33,0,0,1-16.1-14.15l-25.89,21.58H376.11l-25.89-21.58a22.33,22.33,0,0,1-16.1,14.15l-89.05,22.27a47.78,47.78,0,0,0-36.19,46.35v34.36a23.88,23.88,0,0,0,23.89,23.89H567.23a23.88,23.88,0,0,0,23.89-23.89V520.92A47.64,47.64,0,0,0,581,491.52Z" transform="translate(-7.3 -0.35)"/><polygon class="cls-20" points="309.09 466.33 332.98 430.49 392.7 466.33 368.81 502.16 309.09 466.33"/><polygon class="cls-21" points="476.32 466.33 452.43 430.49 392.7 466.33 416.59 502.16 476.32 466.33"/><path class="cls-22" d="M468.57,313.83c-3.45-43-22.15-73.59-71.72-73.59s-68.91,31.84-72.36,74.85c-5.37,2.33-9,12-7.92,25.83,1.12,15,6.88,26.87,13.16,27.75,11.19,35.36,37,64,67.12,64s55.93-28.6,67.11-64c6.28-.88,12-12.79,13.17-27.75C478.17,327.08,473.94,316.16,468.57,313.83Z" transform="translate(-7.3 -0.35)"/><path class="cls-23" d="M343.43,326h4.22s-3-24.83,7.62-30.2c17.18-8.67,24.09,16.32,59.2,12.65S447.53,326,447.53,326H451s1.4-8.51,4.9-10.61c12.77-7.65,18.34,5.44,18.34,5.44s.3-4.78.3-8.26c0-57.27-22-77.06-49.19-86.58-26.07-9.13-41.73-4.22-49.61.47A78.31,78.31,0,0,1,359,233.68a58.48,58.48,0,0,0-22.05,12.69c-14.7,13.41-20.14,31-17.69,66.13a46,46,0,0,1-.16,8.7c5-8.06,12.71-9.65,18.51-6.11C341.48,317.48,343.43,326,343.43,326Z" transform="translate(-7.3 -0.35)"/><circle class="cls-24" cx="400" cy="393.05" r="380.84" transform="translate(-168.07 397.62) rotate(-45)"/></g></g></svg>