<?xml version="1.0" encoding="UTF-8"?>
<svg id="Layer_1" xmlns="http://www.w3.org/2000/svg" version="1.1" viewBox="0 0 50 50">
  <!-- Generator: Adobe Illustrator 29.1.0, SVG Export Plug-In . SVG Version: 2.1.0 Build 142)  -->
  <defs>
    <style>
      .st0 {
        fill: #fff;
        fill-rule: evenodd;
      }
    </style>
  </defs>
  <path class="st0" d="M14.7,14.9c0,0,0-.2,0-.3,0,0,0,0,0-.1,0-.2,0-.3,0-.5,0-.3-.3-.5-.5-.7l-6-3.5c-.3-.2-.6-.2-.8,0-.3,0-.5.3-.7.6L1.3,21c-.1.3-.2.6,0,.9,0,.3.3.5.5.7l6,3.5c.3.2.6.2.8,0,.2,0,.4-.2.6-.4,0,0,0,0,0,0,0,0,0,0,0-.1l5.5-10.6ZM40.2,12.9c.5,0,1,.2,1.4.6.4.4.6.9.6,1.5s-.2,1.1-.6,1.5c-.4.4-.8.6-1.4.6s-1-.2-1.4-.6c-.4-.4-.6-.9-.6-1.5s.2-1.1.6-1.5c.4-.4.8-.6,1.4-.6ZM40.8,14.4c-.1-.2-.3-.2-.6-.2s-.4,0-.6.2-.2.4-.2.6,0,.4.2.6.3.2.6.2.4,0,.6-.2c.1-.2.2-.4.2-.6s0-.4-.2-.6ZM9.7,12.1c.5,0,1,.2,1.4.6.4.4.6.9.6,1.5s-.2,1.1-.6,1.5c-.4.4-.8.6-1.4.6s-1-.2-1.4-.6c-.4-.4-.6-.9-.6-1.5s.2-1.1.6-1.5c.4-.4.8-.6,1.4-.6ZM10.2,13.6c.1.2.2.4.2.6,0,.2,0,.4-.2.6-.1.2-.3.2-.6.2s-.4,0-.6-.2-.2-.4-.2-.6,0-.4.2-.6.3-.2.6-.2c.2,0,.4,0,.6.2ZM16,14.6l1.3.6,3.5-2.1c1-.7,1.9-1.1,2.8-1.4,1-.2,1.9-.2,2.7.1h0s3.7,1.7,3.7,1.7c.1,0,.3.2.3.3l1.1,2.4c.1,0,.3,0,.4,0,.2,0,.4,0,.5,0,.4-.2.9-.4,1.2-.6h.2c-.1-.5,0-1,0-1.4.2-.6.5-1.1,1.1-1.4l6-3.5c.5-.3,1.2-.4,1.7-.2.6.2,1.1.6,1.4,1.2l5.5,10.6c.3.6.3,1.2.2,1.8-.2.6-.5,1.1-1.1,1.4l-6,3.5c-.5.3-1.2.4-1.7.2-.3,0-.6-.2-.8-.4-.8.5-1.2,1.1-1.6,1.6-.3.5-.7.9-1.2,1.4.1.1.2.3.4.4h0c.4.7.5,1.5.4,2.1-.1.5-.3.9-.7,1.2-.3.3-.7.6-1.2.7-.4.1-.8.1-1.2,0,0,.2,0,.4-.1.6-.1.5-.4.9-.7,1.3-.3.4-.7.7-1.1.9h0c-.3.1-.6.2-.9.2-.1.5-.4,1.1-.8,1.6-.2.3-.5.5-.8.7-.3.2-.6.3-1,.4-.4,0-.7,0-1.1-.2-.2.4-.6.6-1,.8-.6.2-1.3.2-2.1,0,0,0-.2,0-.3-.1l-1.4-1.3-.3.4c0,0,0,0-.1.1-.4.3-.8.4-1.3.3-.4,0-.8-.2-1.2-.5,0,0,0,0,0,0-.6-.5-.9-1-1-1.7-.3,0-.6,0-.9,0-.5-.1-1-.4-1.4-.9-.3-.4-.6-.8-.7-1.2,0-.2,0-.4-.1-.6-.2,0-.4,0-.6,0-.4-.1-.9-.4-1.3-.8h0c-.4-.4-.7-.9-.8-1.3,0-.2-.1-.4-.1-.7-.2,0-.3,0-.5,0-.4,0-.8-.3-1.2-.6h0c-.4-.5-.7-.9-.9-1.4-.2-.5-.2-1,0-1.5,0,0,0,0,0-.1,0-.2.2-.4.3-.7-.5-.2-.7-.6-1-1-.3-.3-.5-.6-1-.8-.3.3-.6.4-.9.5-.5.2-1.1.1-1.7-.2,0,0,0,0,0,0l-6-3.4c-.5-.3-.9-.8-1.1-1.4-.2-.6-.1-1.2.2-1.8l5.5-10.6c.3-.6.8-1,1.4-1.2.6-.2,1.2-.1,1.7.2l6,3.5c.5.3.9.8,1.1,1.4,0,.3.1.6,0,.9h0ZM10.5,25.7l5.1-10,1.5.7c.2,0,.4,0,.5,0l3.8-2.2s0,0,0,0c.9-.6,1.7-1,2.4-1.2.7-.2,1.4-.1,2.1,0l3.5,1.6,1.1,2.4s0,0,0,0l.8,1.8c.1.4.1.8,0,1,0,.2-.2.4-.4.5-.2.1-.5.2-.9.2-.6,0-1.3-.3-1.9-.8l-1.9-2.1c-.1-.1-.2-.2-.4-.2h-2.1c-.2-.1-.3,0-.4,0l-5.6,4.7c-.5.1-.9.1-1.4,0-.5,0-.9-.3-1.3-.6-.3-.2-.6-.1-.8.1-.2.3-.1.7.1.9.5.4,1.1.7,1.7.8-.9.7-1.7,1.5-2.3,2.2-.5.6-1,1.1-1.4,1.7-.4-.2-.6-.4-.8-.7-.3-.4-.6-.8-1.2-1.1h0ZM34.5,16.8c1.6,3.3,3.4,6.5,5.1,9.8-.9.6-1.4,1.2-1.8,1.9-.3.4-.6.8-1.1,1.3-.2-.2-.3-.3-.5-.5-.5-.5-1-.9-1.5-1.1-.6-.3-1.1-.4-1.7-.3-.5,0-1,.4-1.5.9h0c-.4.5-.6,1-.7,1.5,0,.1,0,.3,0,.4-.2,0-.4,0-.5,0-.4,0-.8.3-1.1.5-.3.3-.6.6-.8,1-.2.3-.3.7-.3,1h0c-1,.3-1.6.9-2,1.6-.2.5-.4,1-.4,1.5-.4.4-1.3,1.6-2.6,3.2-.2,0-.4.1-.5.1-.2,0-.4-.1-.7-.3h0c-.4-.4-.6-.8-.6-1.4.6-.8,1.2-1.4,1.7-2,.6-.6,1.1-1.1,1.5-1.6.2-.2.3-.6,0-.9-.2-.3-.6-.3-.8,0-.5.5-1,1-1.6,1.6-.6.6-1.2,1.3-1.8,2.1-.3.2-.6.2-.9.2-.3,0-.5-.2-.7-.5h0c-.2-.3-.3-.5-.4-.8,0-.2,0-.4,0-.7.5-.6,1-1.3,1.7-2,.7-.7,1.5-1.5,2.4-2.4.2-.2.3-.6,0-.9-.2-.3-.6-.3-.8,0-.9.8-1.7,1.6-2.5,2.4-.7.7-1.3,1.4-1.8,2.1-.2,0-.3,0-.5,0-.2,0-.5-.3-.8-.5-.3-.3-.4-.6-.5-.9,0-.2-.1-.5,0-.8.8-1.2,1.6-2.2,2.4-3,.8-.9,1.5-1.5,2.2-2.1.3-.2.3-.6.1-.9-.2-.3-.6-.3-.8-.1-.8.6-1.6,1.3-2.4,2.2-.8.9-1.6,1.9-2.4,3.1-.2,0-.4,0-.6,0-.2,0-.4-.1-.6-.3-.3-.3-.5-.6-.6-.8,0-.3,0-.5,0-.8.2-.4.4-.7.6-1.1,0,0,0,0,0,0,.4-.6.9-1.2,1.5-1.9,1-1.1,2.2-2.1,3.7-3.2h0s0,0,0,0l5.6-4.7h1.7c0,0,1.8,2.1,1.8,2.1,0,0,0,0,0,0,.9.7,1.8,1,2.7,1.1.5,0,1-.1,1.4-.4.4-.3.8-.7,1-1.2.2-.5.2-1.1,0-1.9,0,0,0,0,0-.1l-.4-.8c.2,0,.5,0,.7-.1,0,0,0,0,.1,0,.6-.3.9-.5,1.3-.6h.2ZM40.7,26.2c0,0,.2.1.2.2,0,0,0,.1,0,.2.1.1.3.2.4.2.3,0,.5,0,.8,0,0,0,0,0,0,0l6-3.4c.3-.2.4-.4.5-.7s0-.6,0-.9l-5.5-10.6c-.1-.3-.4-.5-.7-.6-.3,0-.6,0-.8,0l-6,3.5c-.3.2-.4.4-.5.7s0,.6,0,.9l5.4,10.6ZM31.9,31l2.9,2.7c.4.3.8.3,1.2.2.2,0,.5-.2.6-.4.2-.2.3-.4.4-.7,0-.3,0-.7-.2-1.1-.2-.3-.5-.6-.7-.9h0c-.3-.3-.5-.5-.7-.8-.5-.4-.9-.7-1.3-.9h0c-.4-.2-.7-.3-1-.2-.3,0-.5.2-.8.5-.2.3-.4.6-.5.9,0,.2,0,.4,0,.7h0ZM29.1,33.5c0,.2.1.4.2.6.1.2.2.3.4.5l2.5,2.2c.2,0,.5,0,.7,0h0c.2-.1.5-.3.6-.5.2-.2.3-.5.4-.8,0-.3,0-.6,0-.8l-2.9-2.7c-.2-.1-.5-.2-.7-.1-.2,0-.4.2-.6.3h0c-.2.2-.4.4-.5.6-.1.3-.2.6-.2.9h0ZM26.7,36.3c0,.1,0,.2,0,.3,0,0,0,.2,0,.2h0c0,.1,2.2,2.3,2.2,2.3h0c.3.3.5.3.8.3.2,0,.3,0,.5-.2.2-.1.4-.3.5-.5.3-.4.5-.8.6-1.2l-2.3-2.1c-.3-.2-.5-.5-.7-.8,0-.1-.2-.3-.2-.5-.6.2-.9.6-1.1,1-.2.3-.2.6-.3,1h0ZM25.8,37.8c-.3.3-.6.7-1,1.3l1.3,1.2c.5.1,1,.1,1.3,0,.2,0,.3-.2.5-.4l-2-2Z"/>
</svg>