<?xml version="1.0" encoding="UTF-8"?>
<svg id="Layer_1" xmlns="http://www.w3.org/2000/svg" version="1.1" viewBox="0 0 50 50">
  <!-- Generator: Adobe Illustrator 29.1.0, SVG Export Plug-In . SVG Version: 2.1.0 Build 142)  -->
  <defs>
    <style>
      .st0 {
        fill: #fff;
      }
    </style>
  </defs>
  <path class="st0" d="M37.8,33.8c.3-.2.6-.4.9-.7,1.4-1.4,1.8-3.4,1.1-5.3h0c-.6-1.6.1-3.2,1.6-3.9h0s0,0,0,0c1.8-.8,3-2.5,3-4.5s-1.1-3.7-2.9-4.5h0s0,0,0,0c-1.5-.6-2.2-2.3-1.6-3.8h0c.7-1.9.3-3.9-1.1-5.3-1.4-1.4-3.4-1.8-5.3-1.1,0,0,0,0,0,0h0c-1.5.6-3.2,0-3.8-1.5h0c0,0,0,0,0,0-.8-1.8-2.5-3-4.5-3s-3.7,1.1-4.5,3c0,0,0,0,0,0h0c-.6,1.5-2.3,2.2-3.8,1.6h0s0,0,0,0c-1.8-.7-3.9-.3-5.3,1.1-1.4,1.4-1.8,3.4-1.1,5.3h0c.6,1.6-.1,3.2-1.6,3.9,0,0,0,0,0,0h0c-1.8.8-2.9,2.5-2.9,4.5s1.1,3.7,3,4.5c0,0,0,0,0,0h0c1.5.7,2.2,2.3,1.6,3.8h0c-.7,1.9-.3,3.9,1.1,5.3.3.3.6.5.9.7l-5.6,9.7c-.2.3-.2.8,0,1.1.2.3.6.5,1,.3l5.9-1.6,1.6,5.9c.1.4.4.7.8.7,0,0,0,0,.1,0,.3,0,.7-.2.8-.5l6.4-11.1c.5.2,1,.3,1.6.3h0c.6,0,1.1,0,1.6-.3l6.4,11.1c.2.3.5.5.8.5s0,0,.1,0c.4,0,.7-.3.8-.7l1.6-5.9,5.9,1.6c.4.1.8,0,1-.3.2-.3.3-.7,0-1.1l-5.6-9.7ZM16.5,46.5l-1.2-4.6c-.1-.5-.7-.8-1.2-.7l-4.6,1.2,4.6-8c.8.1,1.7,0,2.5-.3h0c1.5-.6,3.2,0,3.8,1.5h0c0,0,0,0,0,0,.3.7.7,1.2,1.2,1.7l-5.2,9ZM25,36.8h0c-1.2,0-2.2-.7-2.7-1.8h0c0,0,0,0,0,0-1.1-2.4-3.8-3.6-6.3-2.6h0c-.7.3-1.3.3-2,.1h0c-.4-.1-.8-.4-1.2-.7-.9-.9-1.1-2.1-.7-3.2h0c1-2.5-.2-5.3-2.6-6.4,0,0,0,0,0,0h0c-1.1-.5-1.8-1.5-1.8-2.7s.7-2.2,1.8-2.7c0,0,0,0,0,0h0c2.4-1.1,3.6-3.9,2.6-6.3h0c-.4-1.2-.2-2.4.7-3.3.9-.9,2-1.1,3.2-.7h0s0,0,0,0c2.5,1,5.2-.2,6.3-2.6h0c.5-1.2,1.5-1.8,2.7-1.8s2.2.7,2.7,1.8h0c.8,1.9,2.6,3,4.5,3s1.2-.1,1.8-.3c0,0,0,0,0,0h0c1.1-.5,2.3-.2,3.2.6.9.9,1.1,2,.7,3.2h0c-1,2.5.2,5.3,2.6,6.4h0s0,0,0,0c1.1.5,1.8,1.5,1.8,2.7s-.7,2.2-1.8,2.7h0s0,0,0,0c-2.4,1.1-3.6,3.8-2.6,6.3h0c.4,1.2.2,2.4-.7,3.3-.4.4-.8.6-1.2.7t0,0c-.6.2-1.3.2-2,0h0c-2.5-1-5.2.1-6.3,2.6h0c-.5,1.2-1.5,1.8-2.7,1.8h0ZM35.9,41.2c-.2,0-.5,0-.7,0-.2.1-.4.3-.5.6l-1.2,4.6-5.2-9c.5-.5.9-1,1.2-1.7h0c.6-1.5,2.3-2.2,3.8-1.6h0c.8.4,1.7.4,2.5.3l4.6,8-4.6-1.2ZM35.3,19.4c0-5.7-4.6-10.3-10.3-10.3s-10.3,4.6-10.3,10.3,4.6,10.3,10.3,10.3c5.7,0,10.3-4.6,10.3-10.3ZM25,27.7c-4.6,0-8.4-3.8-8.4-8.4s3.8-8.4,8.4-8.4,8.4,3.8,8.4,8.4-3.8,8.4-8.4,8.4ZM29.6,15.8c.4.4.4,1,0,1.4l-5.3,5.7c-.2.2-.4.3-.7.3h0c-.3,0-.5-.1-.7-.3l-2.6-3c-.3-.4-.3-1,.1-1.4.4-.3,1-.3,1.4.1l1.9,2.2,4.6-4.9c.4-.4,1-.4,1.4,0h0Z"/>
</svg>