<?xml version="1.0" encoding="utf-8"?>
<!-- Generator: Adobe Illustrator 25.4.1, SVG Export Plug-In . SVG Version: 6.00 Build 0)  -->
<svg version="1.1" id="Capa_1" xmlns="http://www.w3.org/2000/svg" xmlns:xlink="http://www.w3.org/1999/xlink" x="0px" y="0px"
	 viewBox="0 0 800 800" style="enable-background:new 0 0 800 800;" xml:space="preserve">
<style type="text/css">
	.st0{fill:#F56800;}
</style>
<path class="st0" d="M643.6,169.3c-3.7-5.4-7.2-10.4-8.7-15c-1.5-4.6-1.7-10.9-1.9-17.5c-0.3-11.3-0.6-24.1-8-34.7
	c-6.9-10-18.3-14.7-28.2-18.9c-6.5-2.7-12.7-5.3-16.7-8.8c-3.6-3.2-6.9-8.8-10.3-14.7c-5.4-9.4-11.5-20.1-22.4-26.2
	c-8.4-4.7-18-5.3-26.2-5.3c-2,0-4.1,0-6.2,0.1c-1.9,0-3.9,0.1-5.8,0.1c-4.4,0-9.5-0.2-13.5-1.5c-4.6-1.6-9.8-5.7-15.2-10.1
	c-8.3-6.7-17.6-14.2-29.6-16.1C448.9,0.2,446.9,0,445,0c-9.2,0-17.8,3.2-26.1,6.3c-6.9,2.6-13.4,5-18.8,5s-12-2.4-18.9-5
	C372.8,3.2,364.2,0,355,0c-2,0-3.9,0.2-5.8,0.4c-12,1.9-21.4,9.5-29.6,16.1c-5.4,4.4-10.6,8.5-15.2,10.1c-4,1.4-9.1,1.5-13.5,1.5
	c-1.9,0-3.9,0-5.8-0.1c-2.1,0-4.1-0.1-6.2-0.1c-8.3,0-17.8,0.6-26.2,5.3c-10.9,6.1-17,16.8-22.4,26.2c-3.4,5.9-6.6,11.5-10.2,14.7
	c-4,3.5-10.2,6.1-16.7,8.8c-10,4.2-21.3,9-28.3,18.9c-7.4,10.6-7.8,23.4-8,34.7c-0.2,6.6-0.3,12.9-1.9,17.5c-1.5,4.6-5,9.6-8.7,15
	c-6.5,9.5-13.9,20.2-13.9,33.4s7.4,24,13.9,33.4c3.7,5.4,7.2,10.5,8.7,15c1.5,4.6,1.7,10.9,1.9,17.5c0.3,11.3,0.6,24.1,8,34.7
	c6.2,8.8,15.8,13.6,24.8,17.5c3.7,31,19.9,118.9,86.6,212.6c-3.1-0.2-7.9,0.5-13,4.4c-12.6,9.8-18.7,34.8-18.7,76.4
	c0,41.6,6.1,66.6,18.7,76.4c4.7,3.6,9.1,4.4,12.2,4.4c0.6,0,1.1,0,1.5-0.1c12-0.1,23-1.9,33.2-4.9c-11.7,18.3-24,41.4-34.4,69.3
	c-1.8,4.9-0.2,10.3,3.9,13.5l32.3,24.5c2.1,1.6,4.6,2.4,7.1,2.4c1,0,2-0.1,2.9-0.4c3.5-0.9,6.4-3.3,7.8-6.6c0.1-0.2,2.7-6.1,7-15.5
	c9.8,11.7,26.7,22.5,52.9,22.5c26.2,0,43.1-10.8,52.9-22.5c4.3,9.4,6.9,15.3,7,15.5c1.5,3.3,4.3,5.7,7.8,6.6c1,0.3,2,0.4,2.9,0.4
	c2.5,0,5-0.8,7.1-2.4l32.3-24.5c4.1-3.1,5.7-8.6,3.9-13.5c-10.4-27.9-22.7-50.9-34.4-69.3c10.2,3,21.2,4.8,33.2,4.9
	c0.5,0,1,0.1,1.5,0.1c3.1,0,7.6-0.8,12.2-4.4c12.6-9.8,18.7-34.8,18.7-76.4c0-41.6-6.1-66.6-18.7-76.4c-5.1-4-9.9-4.6-13-4.4
	c65.6-92.1,82.3-177.9,86.5-212.3c0-0.1,0-0.2,0-0.3c9.1-3.9,18.7-8.6,24.9-17.5c7.4-10.6,7.8-23.4,8-34.7
	c0.2-6.6,0.3-12.9,1.9-17.5c1.5-4.6,5-9.6,8.7-15c6.5-9.5,13.9-20.2,13.9-33.4C657.5,189.5,650.1,178.8,643.6,169.3z M587.6,104.8
	c7.7,3.3,15,6.3,18.1,10.7c3.4,4.9,3.6,13.1,3.8,21.9c0,0.8,0,1.5,0.1,2.3c-10.7-4.1-22.5-6-35.1-5.6c-4,0.2-8.1,0.6-12.1,1.2
	c2.4-3.1,4.4-6.5,6-10.1c3.9-8.6,5.7-17.7,5.6-26.8C578.4,100.9,583,102.9,587.6,104.8z M416.5,578.8c-2.7-0.6-5.5-1-8.4-1h-16.1
	c-2.9,0-5.7,0.4-8.4,1c-13.4-14.2-35.1-32.3-64.3-40.6c-62-79.3-84.5-156.3-92.6-198.4c1.2,1.9,2.4,4,3.6,6.1
	c5.4,9.4,11.5,20.1,22.4,26.2c8.4,4.7,18,5.3,26.2,5.3c2,0,4.1,0,6.2-0.1c1.9,0,3.9-0.1,5.8-0.1c4.4,0,9.5,0.2,13.5,1.5
	c4.6,1.6,9.8,5.7,15.2,10.1c8.3,6.7,17.6,14.2,29.6,16.1c1.9,0.3,3.8,0.4,5.8,0.4c9.2,0,17.8-3.2,26.1-6.3c6.9-2.6,13.4-5,18.8-5
	c5.4,0,12,2.4,18.8,5c8.3,3.1,16.9,6.3,26.1,6.3c2,0,3.9-0.1,5.8-0.4c12-1.9,21.4-9.5,29.6-16.1c5.4-4.4,10.6-8.5,15.2-10.1
	c4-1.4,9.1-1.5,13.5-1.5c1.9,0,3.9,0,5.8,0.1c2.1,0,4.1,0.1,6.2,0.1c8.3,0,17.8-0.6,26.2-5.3c10.9-6.1,17-16.8,22.4-26.2
	c1.2-2.1,2.3-4.1,3.5-6c-8,40.8-30.5,118.9-92.5,198.3C451.6,546.5,429.9,564.5,416.5,578.8z M421.3,614.4c0,7.3-5.9,13.2-13.2,13.2
	h-16.1c-7.3,0-13.2-5.9-13.2-13.2c0-7.3,5.9-13.2,13.2-13.2h16.1C415.3,601.3,421.3,607.2,421.3,614.4z M377.2,58.8
	c-15.4-14.1-39.3-13-53.4,2.3c-4.4,4.8-4.1,12.2,0.7,16.6c4.8,4.4,12.2,4.1,16.6-0.7c5.3-5.8,14.4-6.2,20.2-0.9
	c8.5,7.8,9.1,21,1.3,29.4c-10.8,11.8-29.2,12.6-40.9,1.8c-7.7-7.1-12.2-16.7-12.7-27.2c-0.5-10.5,3.2-20.5,10.2-28.2
	c19.3-21.1,52.2-22.5,73.3-3.2c14.3,13.1,32.7,43.2,30,76.2c-2.2-0.7-4.5-1.3-6.8-1.8c-12.9-2.7-25.8-2.4-37.9,0.4
	c0.7-0.7,1.4-1.4,2.1-2.2C396.5,103.4,395.3,75.3,377.2,58.8z M495.3,231.6c-12.3-2-24.8-0.9-36.4,3.1c6-7.3,10.4-16,12.5-25.9
	c0.9-4.3,1.4-8.7,1.5-12.9c5.3,3.7,11,6.8,17,9.4C489.8,214.3,491.6,223.3,495.3,231.6z M546.3,339.5c-3.2,5.3-6.5,9.9-10.4,12.1
	c-3.7,2.1-9.6,2.3-14.8,2.3c-1.9,0-3.8,0-5.7-0.1c-2.1,0-4.2-0.1-6.2-0.1c-2.4,0-4.9,0-7.5,0.2c9-7.2,15.7-17.5,18.3-29.6
	c2.5-11.6,0.4-23.4-6-33.4c-6.4-10-16.3-16.8-27.9-19.4c-20.4-4.4-40.6,8.5-45,28.9c-1.4,6.3,2.6,12.6,9,14c6.3,1.4,12.6-2.6,14-9
	c1.7-7.7,9.3-12.6,17-10.9c5.4,1.2,10.1,4.4,13.1,9.1c3,4.7,4,10.3,2.8,15.7c-3.4,15.6-18.9,25.6-34.5,22.1
	c-21.1-4.6-34.5-25.5-29.9-46.6c3-13.5,11-25.1,22.7-32.6c11.7-7.5,25.5-10,39.1-7C529.8,263,553.8,302.2,546.3,339.5z M383.5,329.1
	c-14.7-11.2-35.7-8.4-46.9,6.3c-3.9,5.2-2.9,12.5,2.2,16.5c5.2,3.9,12.5,2.9,16.5-2.2c3.3-4.4,9.6-5.2,14-1.9
	c6.8,5.2,8.1,14.9,2.9,21.6c-7.4,9.7-21.4,11.6-31.2,4.2c-13.5-10.3-16.1-29.6-5.8-43.1c6.7-8.8,16.4-14.4,27.4-15.9
	c11-1.5,21.8,1.4,30.6,8.1c11.5,8.8,19.6,21.1,21.2,50.2c-4.6-1.3-9.4-2.2-14.3-2.2c-0.9,0-1.9,0.1-2.8,0.1
	C401.5,355.9,396.6,339.1,383.5,329.1z M438.1,381c-0.1-9.4-0.8-17.9-2-25.6c6.3,4.3,13.6,7.4,21.5,9.2c3.8,0.8,7.5,1.2,11.2,1.2
	c1.1,0,2.2-0.1,3.4-0.1c-2.2,1.7-4.3,3.4-6.5,5.1c-6.6,5.3-12.8,10.3-18.6,11.2c-0.6,0.1-1.3,0.2-2.1,0.2
	C442.9,382,440.5,381.6,438.1,381z M410.9,146.2c26.3,5.6,43.1,31.5,37.6,57.8c-4.2,19.8-23.7,32.4-43.4,28.2
	c-7-1.5-13.1-5.6-17-11.7c-3.9-6-5.3-13.2-3.8-20.3c1.1-5,4-9.3,8.3-12.1c4.3-2.8,9.4-3.8,14.5-2.7c6.4,1.3,12.6-2.7,13.9-9.1
	c1.3-6.3-2.7-12.6-9.1-13.9c-11.2-2.4-22.6-0.2-32.1,6c-9.6,6.2-16.1,15.8-18.5,26.9c-2.8,13.2-0.3,26.7,7.1,38
	c7.3,11.3,18.7,19.1,31.8,21.8c9.7,2,19.3,1.6,28.2-0.8c-9.3,9.8-15.8,22-18.7,35.6c-0.4,1.7-0.6,3.3-0.9,5
	c-25.8-7.1-47.6-21.8-61.1-41.5c-12.2-17.9-16.6-38.5-12.5-58C342.5,161,376.4,138.9,410.9,146.2z M352.7,292.6
	c-2.7,0.7-5.4,1.5-8,2.5c-0.4-3.7-1-7.4-1.8-11.1C346,287.1,349.3,289.9,352.7,292.6z M310.3,213.1c0.2,6.4,1.1,12.9,2.6,19.2
	c-6.1-5-12.8-8.9-20-11.6C299,218.7,304.8,216.2,310.3,213.1z M264.7,239.5c13.2-0.6,25.8,4,35.6,12.9c14.4,13.2,23,36.8,21.3,58
	c-1.8,1.8-3.5,3.8-5.1,5.9c-8.8,11.5-12.2,25.3-10.8,38.7c-5.2-1-10.3-1.2-14.8-1.2c-2.1,0-4.2,0-6.2,0.1c-1.9,0-3.8,0.1-5.7,0.1
	c-5.2,0-11.1-0.3-14.8-2.3c-4.2-2.3-7.6-7.3-10.9-12.9c13.1-0.5,26-6,35.5-16.5c7.8-8.5,11.8-19.5,11.3-31
	c-0.5-11.5-5.5-22.1-13.9-29.9c-7.3-6.6-16.6-10-26.5-9.6c-9.8,0.4-18.9,4.7-25.5,11.9c-4.4,4.8-4.1,12.2,0.7,16.6
	c4.8,4.4,12.2,4.1,16.6-0.7c5-5.4,13.4-5.8,18.8-0.8c3.9,3.5,6.1,8.4,6.3,13.6c0.2,5.2-1.6,10.2-5.1,14.1
	c-10.2,11.2-27.6,11.9-38.8,1.7c-7.3-6.7-11.6-15.9-12.1-25.8c-0.4-9.9,3-19.4,9.7-26.8C239.3,245.7,251.5,240,264.7,239.5z
	 M506.3,163.9c-4.9,5.4-8.8,11.4-11.5,17.8c-15.2-7.8-27.6-20.8-34.8-37.1c-8.2-18.6-8.7-38.6-1.3-54.9c5.7-12.6,16-22.3,29-27.2
	s27.1-4.5,39.7,1.3c9.5,4.3,16.8,12.1,20.5,21.9c3.7,9.8,3.4,20.4-0.9,30c-3.2,7.1-8.9,12.4-16.2,15.2c-7.2,2.7-15.1,2.5-22.2-0.7
	c-5.1-2.3-8.9-6.4-10.9-11.6c-2-5.2-1.8-10.9,0.5-15.9c3.2-7.2,11.8-10.4,18.9-7.2c5.9,2.7,12.9,0,15.5-5.9c2.7-5.9,0-12.9-5.9-15.5
	c-9.2-4.2-19.5-4.5-28.9-0.9c-9.4,3.6-16.9,10.6-21.1,19.8c-4.9,10.8-5.3,22.8-1.1,33.9c4.2,11.1,12.4,19.9,23.2,24.7
	c5.1,2.3,10.5,3.8,16,4.4C511.8,158.3,508.9,161,506.3,163.9z M427.1,28.3c6.7-2.5,12.9-4.8,17.9-4.8c0.7,0,1.4,0.1,2.1,0.2
	c5.8,0.9,12,5.9,18.6,11.2c3.1,2.5,6.3,5.1,9.7,7.4c-16,7.1-28.8,19.4-36.7,35.2c-6.7-17.8-17-33.1-28-43.9
	C416.4,32.3,422,30.2,427.1,28.3z M264.1,53.9c3.7-2.1,9.6-2.3,14.8-2.3c1.9,0,3.8,0,5.7,0.1c2.1,0,4.2,0.1,6.2,0.1
	c0.2,0,0.4,0,0.6,0c-4.3,9.1-6.4,19.2-5.9,29.5c0.7,16.7,7.9,32.2,20.3,43.5c11.3,10.4,26,14.8,40.2,13.5
	c-14.1,10.3-25.1,24.8-31.1,42.2c-0.6,0.4-1.2,0.9-1.7,1.4c-26.8,26.8-78.5,27.7-104.4,1.8c-9.8-9.8-15.2-22.8-15.2-36.7
	c0-13.9,5.4-26.9,15.2-36.7c15.3-15.3,40.1-15.3,55.4,0c11.3,11.3,11.3,29.7,0,41c-8.1,8.1-21.4,8.1-29.5,0
	c-5.6-5.6-5.6-14.7,0-20.3c4.6-4.6,4.6-12,0-16.6c-4.6-4.6-12-4.6-16.6,0c-14.7,14.7-14.7,38.7,0,53.5c17.3,17.3,45.4,17.3,62.7,0
	c20.5-20.5,20.5-53.7,0-74.2c-9.4-9.4-21.1-15.2-33.2-17.3c1-1.7,2-3.3,2.9-5C254.9,63.9,258.9,56.8,264.1,53.9z M194.3,290
	c-3.4-4.9-3.6-13.1-3.8-21.9c-0.2-8-0.4-16.3-3-24.3c-2.6-7.8-7.2-14.5-11.7-21c-5-7.3-9.8-14.2-9.8-20.1c0-5.9,4.7-12.8,9.8-20.1
	c0.7-1,1.3-1.9,2-2.9c3.6,7.5,8.5,14.4,14.6,20.5c11.2,11.2,26,19.1,42.5,23c-8.1,4-15.5,9.5-21.9,16.3c-11,12-16.6,27.5-15.9,43.7
	c0.2,3.6,0.6,7.2,1.4,10.6C196.8,292.7,195.3,291.5,194.3,290z M278.3,614.4c0-43.2,7-54.8,9-57.3c34.5,0.3,60.4,19.1,75.9,34.5
	c-5,6.3-8,14.2-8,22.8c0,8.6,3,16.5,8,22.8c-0.1,0.1-2.3,2.2-4.2,4c-15.8,14.5-40.2,30.2-71.7,30.5
	C285.2,669.3,278.3,657.8,278.3,614.4z M324.7,770l-13.5-10.3c23.2-57.7,54.7-92,64.6-101.9c1.4-1.3,2.7-2.6,4-3.8c0,0,0,0,0.1-0.1
	c1.3-1.3,2.5-2.6,3.7-3.8c1.4,0.3,2.7,0.6,4.1,0.7C363.6,687.2,336.6,744.1,324.7,770z M440.5,752.8c-1.8,5.3-10.3,23.7-40.5,23.7
	c-30.3,0-38.7-18.5-40.5-23.6c0-0.6,0-1.1,0-1.7c11.4-23.5,26.3-52.7,40.5-76c14.2,23.3,29.1,52.5,40.5,76
	C440.5,751.8,440.5,752.3,440.5,752.8z M488.9,759.7L475.3,770c-11.9-25.9-38.9-82.8-63-119.1c1.4-0.2,2.8-0.4,4.1-0.7
	c2.4,2.5,5,5.1,7.8,7.8C434.4,667.9,465.7,702.2,488.9,759.7z M521.7,614.4c0,43.2-7,54.8-9,57.3c-31.6-0.3-55.9-16-71.7-30.5
	c-1.9-1.9-4.1-3.9-4.2-4c5-6.3,8-14.2,8-22.8c0-8.6-3-16.5-8-22.8c15.5-15.5,41.4-34.2,75.9-34.5
	C514.7,559.6,521.7,571.3,521.7,614.4z M624.3,222.9c-4.5,6.5-9.1,13.2-11.7,21c-2.6,7.9-2.8,16.2-3,24.3c-0.2,8.8-0.4,17-3.8,21.9
	c-3.1,4.4-10.4,7.5-18.1,10.7c-6,2.5-12.2,5.2-17.8,8.9c-2.1-12.1-6.4-24-12.8-34.7c-1.9-3.2-3.9-6.2-6.1-9
	c12.4-1.2,24.5-6.8,33.5-16.8c8-8.7,12.1-20.1,11.6-31.9c-0.5-11.8-5.6-22.7-14.3-30.7c-15.4-14.1-39.3-13-53.4,2.4
	c-4.4,4.8-4.1,12.2,0.7,16.6c4.8,4.4,12.2,4.1,16.6-0.7c2.6-2.8,6.1-4.5,9.9-4.6c3.9-0.2,7.5,1.2,10.3,3.7c4.1,3.8,6.5,8.9,6.7,14.5
	c0.2,5.6-1.7,10.9-5.4,15c-10.8,11.8-29.2,12.6-40.9,1.8c-15.9-14.6-17-39.4-2.4-55.3c11.6-12.7,31.9-21.3,51.7-22.1
	c11.5-0.4,27.9,1.6,41.5,13.6c2.2,4,4.8,7.8,7.4,11.4c5,7.3,9.8,14.2,9.8,20.1C634,208.7,629.3,215.6,624.3,222.9z"/>
</svg>
