<?xml version="1.0" encoding="utf-8"?>
<!-- Generator: Adobe Illustrator 25.4.1, SVG Export Plug-In . SVG Version: 6.00 Build 0)  -->
<svg version="1.1" id="Layer_1" xmlns="http://www.w3.org/2000/svg" xmlns:xlink="http://www.w3.org/1999/xlink" x="0px" y="0px"
	 viewBox="0 0 800 800" style="enable-background:new 0 0 800 800;" xml:space="preserve">
<style type="text/css">
	.st0{fill:none;stroke:#FFFFFF;stroke-width:66.6667;stroke-linecap:round;stroke-linejoin:round;stroke-miterlimit:133.3333;}
</style>
<path class="st0" d="M400,433.3c-133.3,0-166.7-111.1-166.7-166.7V133.3l83.3,66.7L400,100l83.3,100l83.3-66.7v133.3
	C566.7,322.2,533.3,433.3,400,433.3z M400,433.3V700 M433.3,700c186.7,0,233.3-155.6,233.3-233.3C480,466.7,433.3,622.2,433.3,700z
	 M433.3,700H400 M366.7,700C180,700,133.3,544.4,133.3,466.7C320,466.7,366.7,622.2,366.7,700z M366.7,700H400"/>
</svg>
