<?xml version="1.0" encoding="utf-8"?>
<!-- Generator: Adobe Illustrator 25.4.1, SVG Export Plug-In . SVG Version: 6.00 Build 0)  -->
<svg version="1.1" id="Layer_1" xmlns="http://www.w3.org/2000/svg" xmlns:xlink="http://www.w3.org/1999/xlink" x="0px" y="0px"
	 viewBox="0 0 800 800" style="enable-background:new 0 0 800 800;" xml:space="preserve">
<style type="text/css">
	.st0{fill:#F56800;}
</style>
<g>
	<g>
		<path class="st0" d="M237.1,50.3c-7.5,0-13.5,6.1-13.5,13.5V94h-22.1V63.9c0-7.5-6.1-13.5-13.5-13.5s-13.5,6.1-13.5,13.5v87.4
			c0,7.5,6.1,13.5,13.5,13.5c7.5,0,13.5-6.1,13.5-13.5v-30.2h22.1v30.2c0,7.5,6.1,13.5,13.5,13.5c7.5,0,13.5-6.1,13.5-13.5V63.9
			C250.6,56.4,244.6,50.3,237.1,50.3z"/>
	</g>
</g>
<g>
	<g>
		<path class="st0" d="M314.7,50.3c-21,0-38.1,17.1-38.1,38.1v38.2c0,21,17.1,38.1,38.1,38.1c21,0,38.1-17.1,38.1-38.1V88.4
			C352.8,67.4,335.7,50.3,314.7,50.3z M325.7,126.7c0,6.1-5,11.1-11.1,11.1c-6.1,0-11.1-5-11.1-11.1V88.4c0-6.1,5-11.1,11.1-11.1
			c6.1,0,11.1,5,11.1,11.1V126.7z"/>
	</g>
</g>
<g>
	<g>
		<path class="st0" d="M528.9,137.7h-35.6v-16.3h20c7.5,0,13.5-6.1,13.5-13.5c0-7.5-6.1-13.5-13.5-13.5h-20v-17h35.6
			c7.5,0,13.5-6.1,13.5-13.5s-6.1-13.5-13.5-13.5h-49.2c-7.5,0-13.5,6.1-13.5,13.5v87.4c0,7.5,6.1,13.5,13.5,13.5h49.2
			c7.5,0,13.5-6.1,13.5-13.5S536.3,137.7,528.9,137.7z"/>
	</g>
</g>
<g>
	<g>
		<path class="st0" d="M630.1,137.7h-35.6V63.9c0-7.5-6.1-13.5-13.5-13.5s-13.5,6.1-13.5,13.5v87.4c0,7.5,6.1,13.5,13.5,13.5h49.2
			c7.5,0,13.5-6.1,13.5-13.5S637.6,137.7,630.1,137.7z"/>
	</g>
</g>
<g>
	<g>
		<path class="st0" d="M429.8,50.3h-49.2c-7.5,0-13.5,6.1-13.5,13.5s6.1,13.5,13.5,13.5h11.1v73.9c0,7.5,6.1,13.5,13.5,13.5
			c7.5,0,13.5-6.1,13.5-13.5V77.4h11.1c7.5,0,13.5-6.1,13.5-13.5S437.3,50.3,429.8,50.3z"/>
	</g>
</g>
<g>
	<g>
		<path class="st0" d="M756.9,365.8c-7.5,0-13.5,6.1-13.5,13.5v393.6H617.6v-79.1c0-31-25.2-56.2-56.2-56.2
			c-31,0-56.2,25.2-56.2,56.2v79.1h-48.9v-79.1c0-31-25.2-56.2-56.2-56.2s-56.2,25.2-56.2,56.2v79.1h-48.9v-79.1
			c0-31-25.2-56.2-56.2-56.2c-31,0-56.2,25.2-56.2,56.2v79.1H56.6v-76c0-7.5-6.1-13.5-13.5-13.5s-13.5,6.1-13.5,13.5v89.6
			c0,7.5,6.1,13.5,13.5,13.5h713.8c7.5,0,13.5-6.1,13.5-13.5V379.3C770.4,371.8,764.4,365.8,756.9,365.8z M267.8,772.9h-58.3v-79.1
			c0-16.1,13.1-29.1,29.1-29.1c16.1,0,29.1,13.1,29.1,29.1L267.8,772.9L267.8,772.9z M429.1,772.9h-58.3v-79.1
			c0-16.1,13.1-29.1,29.1-29.1c16.1,0,29.1,13.1,29.1,29.1L429.1,772.9L429.1,772.9z M590.5,772.9h-58.3v-79.1
			c0-16.1,13.1-29.1,29.1-29.1s29.1,13.1,29.1,29.1L590.5,772.9L590.5,772.9z"/>
	</g>
</g>
<g>
	<g>
		<path class="st0" d="M133.4,524.8c-20.9,0-37.9,17-37.9,37.9v51.4c0,7.5,6.1,13.5,13.5,13.5h48.7c7.5,0,13.5-6.1,13.5-13.5v-51.4
			C171.3,541.8,154.3,524.8,133.4,524.8z M144.2,600.6h-21.7v-37.9c0-6,4.9-10.8,10.8-10.8c6,0,10.8,4.9,10.8,10.8V600.6z"/>
	</g>
</g>
<g>
	<g>
		<path class="st0" d="M346.7,524.8c-20.9,0-37.9,17-37.9,37.9v51.4c0,7.5,6.1,13.5,13.5,13.5H371c7.5,0,13.5-6.1,13.5-13.5v-51.4
			C384.6,541.8,367.6,524.8,346.7,524.8z M357.5,600.6h-21.6v-37.9c0-6,4.9-10.8,10.8-10.8c6,0,10.8,4.9,10.8,10.8L357.5,600.6
			L357.5,600.6z"/>
	</g>
</g>
<g>
	<g>
		<path class="st0" d="M240.1,524.8c-20.9,0-37.9,17-37.9,37.9v51.4c0,7.5,6.1,13.5,13.5,13.5h48.7c7.5,0,13.5-6.1,13.5-13.5v-51.4
			C277.9,541.8,260.9,524.8,240.1,524.8z M250.9,600.6h-21.7v-37.9c0-6,4.9-10.8,10.8-10.8s10.8,4.9,10.8,10.8L250.9,600.6
			L250.9,600.6z"/>
	</g>
</g>
<g>
	<g>
		<path class="st0" d="M453.3,524.8c-20.9,0-37.9,17-37.9,37.9v51.4c0,7.5,6.1,13.5,13.5,13.5h48.7c7.5,0,13.5-6.1,13.5-13.5v-51.4
			C491.2,541.8,474.2,524.8,453.3,524.8z M464.1,600.6h-21.6v-37.9c0-6,4.9-10.8,10.8-10.8c6,0,10.8,4.9,10.8,10.8L464.1,600.6
			L464.1,600.6z"/>
	</g>
</g>
<g>
	<g>
		<path class="st0" d="M666.6,524.8c-20.9,0-37.9,17-37.9,37.9v51.4c0,7.5,6.1,13.5,13.5,13.5h48.7c7.5,0,13.5-6.1,13.5-13.5v-51.4
			C704.5,541.8,687.5,524.8,666.6,524.8z M677.4,600.6h-21.6v-37.9c0-6,4.9-10.8,10.8-10.8s10.8,4.9,10.8,10.8L677.4,600.6
			L677.4,600.6z"/>
	</g>
</g>
<g>
	<g>
		<path class="st0" d="M560,524.8c-20.9,0-37.9,17-37.9,37.9v51.4c0,7.5,6.1,13.5,13.5,13.5h48.7c7.5,0,13.5-6.1,13.5-13.5v-51.4
			C597.8,541.8,580.8,524.8,560,524.8z M570.8,600.6h-21.6v-37.9c0-6,4.9-10.8,10.8-10.8s10.8,4.9,10.8,10.8L570.8,600.6
			L570.8,600.6z"/>
	</g>
</g>
<g>
	<g>
		<path class="st0" d="M133.4,393.6c-20.9,0-37.9,17-37.9,37.9v51.4c0,7.5,6.1,13.5,13.5,13.5h48.7c7.5,0,13.5-6.1,13.5-13.5v-51.4
			C171.3,410.6,154.3,393.6,133.4,393.6z M144.2,469.4h-21.7v-37.9c0-6,4.9-10.8,10.8-10.8c6,0,10.8,4.9,10.8,10.8V469.4z"/>
	</g>
</g>
<g>
	<g>
		<path class="st0" d="M346.7,393.6c-20.9,0-37.9,17-37.9,37.9v51.4c0,7.5,6.1,13.5,13.5,13.5H371c7.5,0,13.5-6.1,13.5-13.5v-51.4
			C384.6,410.6,367.6,393.6,346.7,393.6z M357.5,469.4h-21.6v-37.9c0-6,4.9-10.8,10.8-10.8c6,0,10.8,4.9,10.8,10.8L357.5,469.4
			L357.5,469.4z"/>
	</g>
</g>
<g>
	<g>
		<path class="st0" d="M240.1,393.6c-20.9,0-37.9,17-37.9,37.9v51.4c0,7.5,6.1,13.5,13.5,13.5h48.7c7.5,0,13.5-6.1,13.5-13.5v-51.4
			C277.9,410.6,260.9,393.6,240.1,393.6z M250.9,469.4h-21.7v-37.9c0-6,4.9-10.8,10.8-10.8s10.8,4.9,10.8,10.8L250.9,469.4
			L250.9,469.4z"/>
	</g>
</g>
<g>
	<g>
		<path class="st0" d="M453.3,393.6c-20.9,0-37.9,17-37.9,37.9v51.4c0,7.5,6.1,13.5,13.5,13.5h48.7c7.5,0,13.5-6.1,13.5-13.5v-51.4
			C491.2,410.6,474.2,393.6,453.3,393.6z M464.1,469.4h-21.6v-37.9c0-6,4.9-10.8,10.8-10.8c6,0,10.8,4.9,10.8,10.8L464.1,469.4
			L464.1,469.4z"/>
	</g>
</g>
<g>
	<g>
		<path class="st0" d="M666.6,393.6c-20.9,0-37.9,17-37.9,37.9v51.4c0,7.5,6.1,13.5,13.5,13.5h48.7c7.5,0,13.5-6.1,13.5-13.5v-51.4
			C704.5,410.6,687.5,393.6,666.6,393.6z M677.4,469.4h-21.6v-37.9c0-6,4.9-10.8,10.8-10.8s10.8,4.9,10.8,10.8L677.4,469.4
			L677.4,469.4z"/>
	</g>
</g>
<g>
	<g>
		<path class="st0" d="M560,393.6c-20.9,0-37.9,17-37.9,37.9v51.4c0,7.5,6.1,13.5,13.5,13.5h48.7c7.5,0,13.5-6.1,13.5-13.5v-51.4
			C597.8,410.6,580.8,393.6,560,393.6z M570.8,469.4h-21.6v-37.9c0-6,4.9-10.8,10.8-10.8s10.8,4.9,10.8,10.8L570.8,469.4
			L570.8,469.4z"/>
	</g>
</g>
<g>
	<g>
		<path class="st0" d="M133.4,262.3c-20.9,0-37.9,17-37.9,37.9v51.4c0,7.5,6.1,13.5,13.5,13.5h48.7c7.5,0,13.5-6.1,13.5-13.5v-51.4
			C171.3,279.3,154.3,262.3,133.4,262.3z M144.2,338.1h-21.7v-37.9c0-6,4.9-10.8,10.8-10.8c6,0,10.8,4.9,10.8,10.8V338.1z"/>
	</g>
</g>
<g>
	<g>
		<path class="st0" d="M346.7,262.3c-20.9,0-37.9,17-37.9,37.9v51.4c0,7.5,6.1,13.5,13.5,13.5H371c7.5,0,13.5-6.1,13.5-13.5v-51.4
			C384.6,279.3,367.6,262.3,346.7,262.3z M357.5,338.1h-21.6v-37.9c0-6,4.9-10.8,10.8-10.8c6,0,10.8,4.9,10.8,10.8L357.5,338.1
			L357.5,338.1z"/>
	</g>
</g>
<g>
	<g>
		<path class="st0" d="M240.1,262.3c-20.9,0-37.9,17-37.9,37.9v51.4c0,7.5,6.1,13.5,13.5,13.5h48.7c7.5,0,13.5-6.1,13.5-13.5v-51.4
			C277.9,279.3,260.9,262.3,240.1,262.3z M250.9,338.1h-21.7v-37.9c0-6,4.9-10.8,10.8-10.8s10.8,4.9,10.8,10.8L250.9,338.1
			L250.9,338.1z"/>
	</g>
</g>
<g>
	<g>
		<path class="st0" d="M453.3,262.3c-20.9,0-37.9,17-37.9,37.9v51.4c0,7.5,6.1,13.5,13.5,13.5h48.7c7.5,0,13.5-6.1,13.5-13.5v-51.4
			C491.2,279.3,474.2,262.3,453.3,262.3z M464.1,338.1h-21.6v-37.9c0-6,4.9-10.8,10.8-10.8c6,0,10.8,4.9,10.8,10.8L464.1,338.1
			L464.1,338.1z"/>
	</g>
</g>
<g>
	<g>
		<path class="st0" d="M666.6,262.3c-20.9,0-37.9,17-37.9,37.9v51.4c0,7.5,6.1,13.5,13.5,13.5h48.7c7.5,0,13.5-6.1,13.5-13.5v-51.4
			C704.5,279.3,687.5,262.3,666.6,262.3z M677.4,338.1h-21.6v-37.9c0-6,4.9-10.8,10.8-10.8s10.8,4.9,10.8,10.8L677.4,338.1
			L677.4,338.1z"/>
	</g>
</g>
<g>
	<g>
		<path class="st0" d="M559.9,262.3c-20.9,0-37.9,17-37.9,37.9v51.4c0,7.5,6.1,13.5,13.5,13.5h48.7c7.5,0,13.5-6.1,13.5-13.5v-51.4
			C597.8,279.3,580.8,262.3,559.9,262.3z M570.8,338.1h-21.6v-37.9c0-6,4.9-10.8,10.8-10.8s10.8,4.9,10.8,10.8L570.8,338.1
			L570.8,338.1z"/>
	</g>
</g>
<g>
	<g>
		<path class="st0" d="M780.1,182.3h-60.7V13.5c0-7.5-6.1-13.5-13.5-13.5H596.4c-7.5,0-13.5,6.1-13.5,13.5s6.1,13.5,13.5,13.5h95.9
			v155.2H107.7V27.1h443.6c7.5,0,13.5-6.1,13.5-13.5S558.7,0,551.3,0H94.2c-7.5,0-13.5,6.1-13.5,13.5v168.8H19.9
			c-7.5,0-13.5,6.1-13.5,13.5v38.5c0,7.5,6.1,13.5,13.5,13.5h9.6v403.9c0,7.5,6.1,13.5,13.5,13.5s13.5-6.1,13.5-13.5V247.9h686.7
			v86.3c0,7.5,6.1,13.5,13.5,13.5s13.5-6.1,13.5-13.5v-86.3h9.6c7.5,0,13.5-6.1,13.5-13.5v-38.5
			C793.6,188.3,787.5,182.3,780.1,182.3z M766.5,220.8h-733v-11.5h733V220.8z"/>
	</g>
</g>
</svg>
