<?xml version="1.0" encoding="utf-8"?>
<!-- Generator: Adobe Illustrator 25.4.1, SVG Export Plug-In . SVG Version: 6.00 Build 0)  -->
<svg version="1.1" id="_x32_" xmlns="http://www.w3.org/2000/svg" xmlns:xlink="http://www.w3.org/1999/xlink" x="0px" y="0px"
	 viewBox="0 0 512 512" style="enable-background:new 0 0 512 512;" xml:space="preserve">
<style type="text/css">
	.st0{fill:#FFFFFF;}
</style>
<g>
	<rect y="423.9" class="st0" width="512" height="40.1"/>
	<path class="st0" d="M320.3,151.5c0,0,39.8,8,91.5-43.8c23.9,31.8,39.8,47.7,39.8,47.7v47.8c16-16.5,25.9-38.9,25.9-63.7
		c0-50.5-41-91.5-91.5-91.5c-50.5,0-91.5,41-91.5,91.5c0,24.8,9.9,47.2,25.9,63.7L320.3,151.5L320.3,151.5z"/>
	<path class="st0" d="M447.4,257.1c-4.3,2.3-30,56.5-46.8,92.6l-4.4-62.7h-20.3l-4.4,62.7c-16.8-36-42.5-90.2-46.8-92.6
		c-61.9,22.3-64.6,72.3-64.6,150.8h252C512,329.4,509.2,279.4,447.4,257.1z"/>
	<polygon class="st0" points="400.5,274.8 403,251.7 369,251.7 371.5,274.8 	"/>
	<path class="st0" d="M100.1,317.1c-35.8,0-64.9,29-64.9,64.9H165C165,346.1,136,317.1,100.1,317.1z"/>
	<rect x="86.4" y="291.5" class="st0" width="27.4" height="18.3"/>
	<path class="st0" d="M37.1,408.4h126.1c5.6,0,10.1-4.5,10.1-10.1s-4.5-10.1-10.1-10.1H37.1c-5.6,0-10.1,4.5-10.1,10.1
		C27,403.9,31.5,408.4,37.1,408.4z"/>
</g>
</svg>
