<?xml version="1.0" encoding="utf-8"?>
<!-- Generator: Adobe Illustrator 25.4.1, SVG Export Plug-In . SVG Version: 6.00 Build 0)  -->
<svg version="1.1" id="Layer_1" xmlns="http://www.w3.org/2000/svg" xmlns:xlink="http://www.w3.org/1999/xlink" x="0px" y="0px"
	 viewBox="0 0 788.7 788.7" style="enable-background:new 0 0 788.7 788.7;" xml:space="preserve">
<style type="text/css">
	.st0{opacity:0.1;fill:url(#SVGID_1_);enable-background:new    ;}
	.st1{fill:url(#SVGID_00000021089672698193612530000010007151077057319869_);}
	.st2{fill:url(#SVGID_00000041981063806492169370000006504957097682454668_);}
	.st3{fill:none;stroke:#FFFFFF;stroke-width:7.81;stroke-miterlimit:10;}
	.st4{fill:#F18A00;}
	.st5{fill:none;stroke:#F18A00;stroke-width:23.44;stroke-miterlimit:10;}
</style>
<g>
	<g id="Layer_1_00000071529954739758467550000001185450980400951465_">
		
			<linearGradient id="SVGID_1_" gradientUnits="userSpaceOnUse" x1="749.7435" y1="-137.2777" x2="219.1635" y2="652.6923" gradientTransform="matrix(1 0 0 -1 -5.6471 788.007)">
			<stop  offset="0.11" style="stop-color:#495867"/>
			<stop  offset="1" style="stop-color:#495867;stop-opacity:0.1"/>
		</linearGradient>
		<circle class="st0" cx="424.1" cy="448.8" r="335.5"/>
		
			<linearGradient id="SVGID_00000093176886963755832080000008630941683208434848_" gradientUnits="userSpaceOnUse" x1="639.9995" y1="-5.6504" x2="328.0194" y2="504.0097" gradientTransform="matrix(1 0 0 -1 0 790)">
			<stop  offset="0" style="stop-color:#F7F7FF"/>
			<stop  offset="1" style="stop-color:#DEDEE6;stop-opacity:0.1"/>
		</linearGradient>
		<circle style="fill:url(#SVGID_00000093176886963755832080000008630941683208434848_);" cx="394.4" cy="394.4" r="335.5"/>
		
			<linearGradient id="SVGID_00000013904352960572102910000008061658906256620459_" gradientUnits="userSpaceOnUse" x1="200.37" y1="649.8576" x2="289.94" y2="532.4776" gradientTransform="matrix(1 0 0 -1 0 790)">
			<stop  offset="0" style="stop-color:#F7F7FF"/>
			<stop  offset="1" style="stop-color:#DEDEE6;stop-opacity:0.1"/>
		</linearGradient>
		<circle style="fill:url(#SVGID_00000013904352960572102910000008061658906256620459_);" cx="394.4" cy="394.4" r="335.5"/>
		<circle class="st3" cx="394.4" cy="394.4" r="335.5"/>
		<path class="st4" d="M394.4,126c-89.9,0-163.1,73.2-163.1,163.1c0,0.8,1.8,77.4,64.4,158.1c14.6,19.4,14.2,59.2,13.6,66.2
			c-0.4,2.6,1.3,5,3.9,5.4c0.2,0,0.5,0.1,0.7,0.1h161.4c2.6,0,4.7-2.1,4.7-4.7c0-0.3,0-0.5-0.1-0.8c-0.8-7-1.4-46.7,13.1-66.1
			c62.7-80.7,64.4-157.4,64.4-158.1C557.5,199.2,484.3,126,394.4,126z"/>
		<path class="st4" d="M478.2,533.7H310.5c-2.6,0.1-4.6,2.3-4.5,5c0.1,2.4,2.1,4.4,4.5,4.5h167.8c2.6,0.1,4.8-1.9,5-4.5
			c0.1-2.6-1.9-4.8-4.5-5C478.5,533.7,478.4,533.7,478.2,533.7z"/>
		<path class="st4" d="M478.2,560.7H310.5c-2.6,0.1-4.6,2.3-4.5,5c0.1,2.4,2.1,4.4,4.5,4.5h167.8c2.6,0.1,4.8-1.9,5-4.5
			c0.1-2.6-1.9-4.8-4.5-5C478.5,560.7,478.4,560.7,478.2,560.7z"/>
		<path class="st4" d="M478.2,587.8H310.5c-2.6,0.1-4.6,2.3-4.5,5c0.1,2.4,2.1,4.4,4.5,4.5h167.8c2.6,0.1,4.8-1.9,5-4.5
			c0.1-2.6-1.9-4.8-4.5-5C478.5,587.8,478.4,587.8,478.2,587.8z"/>
		<path class="st4" d="M457.9,617.5H330.8c-2.6,0.1-4.6,2.3-4.5,5c0.1,2.4,2.1,4.4,4.5,4.5h127.2c2.6-0.1,4.6-2.3,4.5-5
			C462.3,619.6,460.4,617.7,457.9,617.5z"/>
		<circle class="st5" cx="394.4" cy="394.4" r="382.6"/>
	</g>
</g>
</svg>
