<?xml version="1.0" encoding="UTF-8"?>
<svg id="Layer_1" xmlns="http://www.w3.org/2000/svg" version="1.1" viewBox="0 0 50 50">
  <!-- Generator: Adobe Illustrator 29.1.0, SVG Export Plug-In . SVG Version: 2.1.0 Build 142)  -->
  <defs>
    <style>
      .st0 {
        fill: #fff;
      }
    </style>
  </defs>
  <g>
    <path class="st0" d="M11.1,16.9c-.4,0-.6.4-.6.8v1.4c0,.4.3.7.6.8l.9.2c.4,0,.7.4.9.7.1.4,0,.8-.1,1.1l-.5.7c-.2.3-.2.7,0,1l1,1c.3.3.7.3,1,0l.7-.5c.3-.2.8-.3,1.2-.1.4.1.7.5.7.9l.2.9c0,.4.4.6.8.6h1.4c.4,0,.7-.3.8-.6l.2-.9c0-.4.4-.7.7-.9.4-.1.8,0,1.1.1l.7.5c.3.2.7.2,1,0l1-1c.3-.3.3-.7,0-1l-.6-.8c-.2-.3-.3-.8-.1-1.2.1-.4.5-.7.9-.7l.9-.2c.4,0,.6-.4.6-.8v-1.4c0-.4-.3-.7-.6-.8l-.9-.2c-.4,0-.7-.4-.9-.7-.1-.4,0-.8.1-1.1l.5-.7c.2-.3.2-.7,0-1l-1-1c-.3-.3-.7-.3-1,0l-.7.5c-.3.2-.8.3-1.2.1-.4-.1-.7-.5-.7-.9l-.2-.8c0-.4-.4-.6-.8-.6h-1.4c-.4,0-.7.3-.8.6l-.2.9c0,.4-.4.7-.7.9h0c-.3.2-.7.1-1.1,0l-.8-.6c-.3-.2-.7-.2-1,0l-1,1c-.3.3-.3.7,0,1l.5.7c.2.3.3.8.1,1.2-.1.4-.5.7-.9.7h-.8ZM11.2,17.6l.9-.2c.6,0,1.2-.5,1.4-1.2.2-.6.2-1.3-.2-1.8l-.5-.7s0,0,0-.1l1-1s0,0,.1,0l.8.6c.5.4,1.1.4,1.7.2h0c.6-.3,1-.8,1.1-1.4l.2-.9s0,0,0,0h1.4s0,0,0,0l.2.9c.1.7.5,1.2,1.2,1.4.6.2,1.3.2,1.8-.2l.7-.5s0,0,.1,0l1,1s0,0,0,.1l-.5.7c-.4.5-.4,1.2-.2,1.8.2.6.8,1,1.4,1.1l.9.2s0,0,0,0v1.4s0,0,0,0l-.9.2c-.6,0-1.2.5-1.4,1.2-.2.6-.2,1.3.2,1.8l.5.7s0,0,0,.1l-1,1s0,0-.1,0l-.8-.6c-.5-.4-1.2-.4-1.8-.2-.6.2-1,.8-1.1,1.4l-.2.9s0,0,0,0h-1.4s0,0,0,0l-.2-.9c0-.6-.5-1.2-1.2-1.4-.6-.2-1.3-.2-1.8.2l-.7.5s0,0-.1,0l-1-1s0,0,0-.1l.5-.7c.4-.5.4-1.2.2-1.8,0-.2-.2-.4-.4-.6-.3-.3-.6-.5-1-.5l-.9-.2s0,0,0,0v-1.4c0,0,0,0,.1,0h0Z"/>
    <path class="st0" d="M15.7,21.2c1.6,1.6,4.1,1.6,5.7,0s1.6-4.1,0-5.7-4.1-1.6-5.7,0-1.6,4.1,0,5.7ZM20.9,16c1.3,1.3,1.3,3.4,0,4.7s-3.4,1.3-4.7,0-1.3-3.4,0-4.7,3.4-1.3,4.7,0Z"/>
    <path class="st0" d="M39,13.8h-.7c-.3-.2-.6-.4-.7-.7-.1-.3,0-.6,0-.9l.4-.6c.2-.3.1-.6,0-.9l-.8-.8c-.2-.2-.6-.3-.9,0l-.6.4c-.3.2-.6.2-.9,0-.3-.1-.5-.4-.6-.7v-.7c-.2-.3-.5-.6-.8-.6h-1.2c-.3,0-.6.3-.7.6v.7c-.2.3-.4.6-.7.7-.2,0-.6,0-.8,0h0l-.6-.4c-.3-.2-.6-.1-.9,0l-.8.8c-.2.2-.3.6,0,.9l.4.6c.2.3.2.6,0,.9-.1.3-.4.5-.7.6h-.7c-.3.2-.6.5-.6.8v1.2c0,.3.2.6.6.7h.7c.3.2.6.4.7.7.1.3,0,.6,0,.9l-.4.6c-.2.3-.1.6,0,.9l.8.8c.2.2.6.3.9,0l.6-.4c.3-.2.6-.2.9,0,.3.1.5.4.6.7v.7c.2.3.5.6.8.6h1.2c.3,0,.6-.2.7-.6l.2-.7c0-.3.3-.6.6-.7.3-.1.6,0,.9,0l.6.4c.3.2.6.1.9,0l.8-.8c.2-.2.3-.6,0-.9l-.4-.6c-.2-.3-.2-.6,0-.9.1-.3.4-.5.7-.6h.7c.3-.2.6-.5.6-.8v-1.2c0-.3-.2-.6-.6-.7ZM38.8,15.6h-.7c-.5.2-1,.6-1.2,1.1-.2.5-.1,1.1.2,1.5l.4.6-.8.8-.6-.4c-.5-.3-1-.4-1.5-.2-.5.2-.8.7-.9,1.2v.7c-.1,0-1.3,0-1.3,0v-.7c-.2-.5-.6-1-1.1-1.2-.5-.2-1.1-.1-1.5.2l-.6.4-.8-.8.4-.6c.3-.5.4-1,.2-1.5,0-.2-.2-.4-.3-.5-.2-.2-.5-.4-.8-.5h-.7c0-.1,0-1.3,0-1.3h.7c.5-.2,1-.6,1.2-1.1.2-.5.1-1.1-.2-1.5l-.4-.6.8-.8.6.4c.4.3,1,.3,1.5.1.5-.1.8-.6.9-1.1v-.7c.1,0,1.3,0,1.3,0v.7c.2.5.6,1,1.1,1.2.5.2,1.1.1,1.5-.2l.6-.4.8.8-.4.6c-.3.5-.4,1-.2,1.5.2.5.7.8,1.2.9h.7c0,.1,0,1.3,0,1.3Z"/>
    <path class="st0" d="M30.5,17.4c1.3,1.3,3.4,1.3,4.7,0s1.3-3.4,0-4.7-3.4-1.3-4.7,0c-1.3,1.3-1.3,3.4,0,4.7ZM34.7,13.2c1,1,1,2.7,0,3.8s-2.7,1-3.8,0-1-2.7,0-3.8,2.7-1,3.8,0Z"/>
    <path class="st0" d="M31.1,29.7l.4.4c.2.2.5.2.7,0l.7-.5c.2-.2.3-.5.2-.7l-.2-.5c0-.2,0-.4,0-.6,0-.2.3-.3.5-.3h.5c.3,0,.5-.3.6-.6v-.9c.1-.3,0-.6-.3-.7l-.5-.2c-.2,0-.3-.2-.4-.4,0-.2,0-.4.1-.6l.4-.4c.2-.2.2-.5,0-.7l-.5-.7c-.2-.2-.5-.3-.7-.2l-.5.2c-.2,0-.4,0-.6,0-.2,0-.3-.3-.3-.5v-.5c0-.3-.3-.5-.6-.6h-.9c-.3-.1-.6,0-.7.3l-.2.5c0,.2-.2.3-.5.4-.2,0-.4,0-.5-.1l-.4-.4c-.2-.2-.5-.2-.7,0l-.7.5c-.2.2-.3.5-.2.7l.2.5c0,.2,0,.4,0,.6,0,.2-.3.3-.5.3h-.5c-.3,0-.5.3-.6.6v.9c-.1.3,0,.5.3.7l.5.2c.2,0,.3.2.4.4,0,.2,0,.4-.1.6l-.4.4c-.2.2-.2.5,0,.7l.5.7h0c.2.2.5.3.7.1l.5-.2c.2,0,.4,0,.6,0,.2,0,.3.3.3.5v.5c0,.3.3.5.6.6h.9c.3.1.6,0,.7-.3l.2-.5c0-.2.2-.3.4-.4.2,0,.4,0,.6.2h0ZM29.5,29.8v.4c-.1,0-.9,0-.9,0v-.5c0-.4-.3-.8-.7-1-.4-.2-.8-.2-1.2,0l-.4.2-.4-.6.3-.3c.3-.3.4-.8.3-1.2-.1-.4-.4-.7-.8-.9h-.4c0-.1,0-.9,0-.9h.5c.4,0,.8-.3,1-.7.2-.4.2-.8,0-1.2l-.2-.4.6-.4.4.3c.3.3.7.4,1.2.2.4-.1.7-.4.9-.8v-.5c.1,0,.8,0,.8,0v.5c0,.4.3.8.7,1,.4.2.8.2,1.2,0l.4-.2.4.6-.3.4c-.3.3-.4.8-.3,1.2.1.4.4.7.8.9h.4c0,.1,0,.9,0,.9h-.5c-.4,0-.8.3-1,.7-.2.4-.2.8,0,1.2l.2.4-.6.4-.4-.3c-.3-.3-.8-.4-1.2-.3-.3.1-.6.4-.7.8h0Z"/>
    <path class="st0" d="M31.3,24.5c-.4-.5-.9-.8-1.5-.9-.6,0-1.2,0-1.7.5-.5.4-.8.9-.9,1.5,0,.6,0,1.2.5,1.7,0,0,.1.2.2.2.4.4.8.6,1.4.7.6,0,1.2,0,1.7-.5,1-.8,1.2-2.3.4-3.3h0ZM30.5,27.2c-.4.3-.8.4-1.2.4s-.8-.3-1.1-.6c-.3-.4-.4-.8-.4-1.2s.3-.8.6-1.1c.4-.3.8-.4,1.2-.4.4,0,.7.2,1,.5h.1c.6.9.5,1.9-.3,2.5h0Z"/>
  </g>
  <path class="st0" d="M42.8,17.7C42.8,8,34.8,0,25,0S7.2,8,7.2,17.7s1.7,5.9,3.5,8.5c1.9,2.8,4.1,5.9,4.6,11.2-1.1.4-1.9,1.4-1.9,2.6s.6,1.9,1.4,2.4c-.1.3-.2.6-.2,1,0,1.4,1.1,2.5,2.5,2.5,1.8,2.5,4.7,4,7.8,4s6-1.5,7.8-4c1.4,0,2.5-1.1,2.5-2.5s0-.7-.2-1c.8-.5,1.4-1.4,1.4-2.4s-.8-2.3-1.9-2.6c.5-5.2,2.7-8.4,4.6-11.2,1.8-2.6,3.5-5,3.5-8.5ZM25,48.1c-2,0-3.9-.8-5.3-2.1h10.6c-1.4,1.4-3.3,2.1-5.3,2.1ZM32.8,44.1h-15.5c-.4,0-.7-.3-.7-.7s.3-.7.7-.7h15.6c.4,0,.6.3.6.7s-.3.7-.7.7ZM34.6,40c0,.5-.4.9-.9.9h-17.6c-.5,0-.9-.4-.9-.9s.4-.9.9-.9h17.6c.5,0,.9.4.9.9ZM32.7,37.3h-15.5c-.6-5.7-2.9-9.1-5-12.1-1.7-2.4-3.2-4.5-3.2-7.5,0-8.8,7.1-15.9,15.9-15.9s15.9,7.1,15.9,15.9-1.5,5-3.2,7.5c-2.1,3-4.4,6.3-5,12.1Z"/>
</svg>