<svg xmlns="http://www.w3.org/2000/svg" xmlns:xlink="http://www.w3.org/1999/xlink" viewBox="0 0 788.7 788.71"><defs><style>.cls-1{isolation:isolate;}.cls-2{mix-blend-mode:multiply;opacity:0.1;fill:url(#linear-gradient);}.cls-3{fill:url(#linear-gradient-2);}.cls-4{fill:url(#linear-gradient-3);}.cls-11,.cls-5{fill:none;stroke-miterlimit:10;}.cls-5{stroke:#fff;stroke-width:7.81px;}.cls-6{fill:url(#linear-gradient-4);}.cls-7{fill:url(#linear-gradient-5);}.cls-8{fill:url(#linear-gradient-6);}.cls-9{fill:url(#linear-gradient-7);}.cls-10{fill:url(#linear-gradient-8);}.cls-11{stroke-width:23.44px;stroke:url(#linear-gradient-9);}</style><linearGradient id="linear-gradient" x1="749.74" y1="927.28" x2="219.16" y2="137.31" gradientTransform="translate(444.64 -171.82) rotate(45)" gradientUnits="userSpaceOnUse"><stop offset="0.11" stop-color="#495867"/><stop offset="1" stop-color="#495867" stop-opacity="0.1"/></linearGradient><linearGradient id="linear-gradient-2" x1="640" y1="795.65" x2="328.02" y2="285.99" gradientUnits="userSpaceOnUse"><stop offset="0" stop-color="#f7f7ff"/><stop offset="1" stop-color="#dedee6" stop-opacity="0.1"/></linearGradient><linearGradient id="linear-gradient-3" x1="200.36" y1="140.15" x2="289.93" y2="257.53" xlink:href="#linear-gradient-2"/><linearGradient id="linear-gradient-4" x1="400" y1="520.89" x2="400" y2="128.04" gradientUnits="userSpaceOnUse"><stop offset="0" stop-color="#e6c600"/><stop offset="1" stop-color="#f5ee00"/></linearGradient><linearGradient id="linear-gradient-5" x1="399.99" y1="545.14" x2="399.99" y2="535.67" xlink:href="#linear-gradient-4"/><linearGradient id="linear-gradient-6" x1="399.99" y1="572.2" x2="399.99" y2="562.73" xlink:href="#linear-gradient-4"/><linearGradient id="linear-gradient-7" x1="399.99" y1="599.27" x2="399.99" y2="589.8" xlink:href="#linear-gradient-4"/><linearGradient id="linear-gradient-8" x1="400" y1="629.02" x2="400" y2="619.55" xlink:href="#linear-gradient-4"/><linearGradient id="linear-gradient-9" x1="0" y1="394.35" x2="788.7" y2="394.35" xlink:href="#linear-gradient-4"/></defs><g class="cls-1"><g id="Layer_1" data-name="Layer 1"><circle class="cls-2" cx="429.73" cy="450.82" r="335.46" transform="translate(-198.56 433.91) rotate(-45)"/><circle class="cls-3" cx="394.35" cy="394.35" r="335.46"/><circle class="cls-4" cx="394.35" cy="394.35" r="335.46"/><circle class="cls-5" cx="394.35" cy="394.35" r="335.46"/><path class="cls-6" d="M400,128c-89.93,0-163.11,73.17-163.11,163.1,0,.75,1.76,77.4,64.39,158.05,14.59,19.36,14.24,59.22,13.56,66.2a4.75,4.75,0,0,0,4.67,5.5H480.87a4.74,4.74,0,0,0,4.74-4.74,5.55,5.55,0,0,0-.07-.82c-.75-7-1.4-46.71,13.12-66.08,62.69-80.71,64.45-157.36,64.45-158.11C563.11,201.21,489.94,128,400,128Z" transform="translate(-5.65 -2)"/><path class="cls-7" d="M483.88,535.67H316.1a4.74,4.74,0,0,0,0,9.47H483.88a4.74,4.74,0,1,0,0-9.47Z" transform="translate(-5.65 -2)"/><path class="cls-8" d="M483.88,562.73H316.1a4.74,4.74,0,0,0,0,9.47H483.88a4.74,4.74,0,1,0,0-9.47Z" transform="translate(-5.65 -2)"/><path class="cls-9" d="M483.88,589.8H316.1a4.74,4.74,0,0,0,0,9.47H483.88a4.74,4.74,0,1,0,0-9.47Z" transform="translate(-5.65 -2)"/><path class="cls-10" d="M463.59,619.55H336.4a4.74,4.74,0,0,0,0,9.47H463.59a4.74,4.74,0,0,0,0-9.47Z" transform="translate(-5.65 -2)"/><circle class="cls-11" cx="394.35" cy="394.35" r="382.63"/></g></g></svg>