<?xml version="1.0" encoding="utf-8"?>
<!-- Generator: Adobe Illustrator 25.4.1, SVG Export Plug-In . SVG Version: 6.00 Build 0)  -->
<svg version="1.1" id="Layer_1" xmlns="http://www.w3.org/2000/svg" xmlns:xlink="http://www.w3.org/1999/xlink" x="0px" y="0px"
	 viewBox="0 0 800 800" style="enable-background:new 0 0 800 800;" xml:space="preserve">
<style type="text/css">
	.st0{fill:url(#SVGID_1_);}
	.st1{fill:#FFFFFF;}
	.st2{fill:url(#SVGID_00000170280548503230056930000009839298839907328668_);}
	.st3{fill:url(#SVGID_00000096041160038428450930000010785358492433837984_);}
	.st4{fill:url(#SVGID_00000087381242799920981400000017995065457134639770_);}
	.st5{fill:url(#SVGID_00000078750837844781729360000010133112432485148289_);}
	.st6{fill:url(#SVGID_00000097473163429663306660000014995496425115068293_);}
	.st7{fill:url(#SVGID_00000101797695709695312000000007256846548028006787_);}
</style>
<g>
	<g>
		<g>
			
				<image style="overflow:visible;opacity:0.45;" width="1041" height="1041" xlink:href="ED654321.png"  transform="matrix(1 0 0 1 773.0826 -46.9173)">
			</image>
		</g>
	</g>
</g>
<g>
	<g>
		<linearGradient id="SVGID_1_" gradientUnits="userSpaceOnUse" x1="473.594" y1="473.5833" x2="105.2003" y2="105.1896">
			<stop  offset="0" style="stop-color:#3BA1F4"/>
			<stop  offset="1" style="stop-color:#15CCEA"/>
		</linearGradient>
		<path class="st0" d="M784,285.6L285.6,784C120.4,734.6,0,581.6,0,400.4C0,179.2,179.2,0,400.4,0C581.6,0,734.7,120.4,784,285.6z"
			/>
		<g>
			
				<image style="overflow:visible;opacity:0.45;" width="1021" height="1021" xlink:href="ED654323.png"  transform="matrix(1 0 0 1 -46.139 -46.139)">
			</image>
			<g>
				<circle class="st1" cx="400.4" cy="400.4" r="373.4"/>
			</g>
		</g>
	</g>
	<g>
		
			<linearGradient id="SVGID_00000158711592788292529690000011637387667816070052_" gradientUnits="userSpaceOnUse" x1="604.9091" y1="644.5924" x2="324.4831" y2="364.1664">
			<stop  offset="0" style="stop-color:#3BA1F4"/>
			<stop  offset="1" style="stop-color:#15CCEA"/>
		</linearGradient>
		<path style="fill:url(#SVGID_00000158711592788292529690000011637387667816070052_);" d="M360.5,549.8
			c-82.5,0-149.6-67.1-149.6-149.6c0-82.5,67.1-149.6,149.6-149.6c82.5,0,149.6,67.1,149.6,149.6C510.1,482.7,443,549.8,360.5,549.8
			z M360.5,275.4c-68.8,0-124.8,56-124.8,124.8c0,68.8,56,124.8,124.8,124.8s124.8-56,124.8-124.8
			C485.3,331.4,429.3,275.4,360.5,275.4z"/>
		
			<linearGradient id="SVGID_00000170247888853554329950000012075877917139077012_" gradientUnits="userSpaceOnUse" x1="604.8566" y1="644.6448" x2="324.4303" y2="364.2185">
			<stop  offset="0" style="stop-color:#3BA1F4"/>
			<stop  offset="1" style="stop-color:#15CCEA"/>
		</linearGradient>
		<path style="fill:url(#SVGID_00000170247888853554329950000012075877917139077012_);" d="M360.4,486.4
			c-47.5,0-86.2-38.7-86.2-86.2c0-47.5,38.7-86.2,86.2-86.2s86.2,38.7,86.2,86.2C446.6,447.7,407.9,486.4,360.4,486.4z M360.4,338.8
			c-33.8,0-61.4,27.5-61.4,61.4c0,33.8,27.5,61.4,61.4,61.4s61.4-27.5,61.4-61.4C421.8,366.4,394.2,338.8,360.4,338.8z"/>
		
			<linearGradient id="SVGID_00000096777501897177538930000015143836062786820265_" gradientUnits="userSpaceOnUse" x1="698.0084" y1="551.4934" x2="417.5814" y2="271.0664">
			<stop  offset="0" style="stop-color:#3BA1F4"/>
			<stop  offset="1" style="stop-color:#15CCEA"/>
		</linearGradient>
		<path style="fill:url(#SVGID_00000096777501897177538930000015143836062786820265_);" d="M683.8,461.8L653,412.6h14.6
			c6.9,0,12.4-5.6,12.4-12.4c0-6.9-5.6-12.4-12.4-12.4H653l30.7-49.1H563.3l-30.6,49.1h-167c-6.9,0-12.4,5.6-12.4,12.4
			c0,6.9,5.6,12.4,12.4,12.4h167l30.6,49.2H683.8z M577.1,363.5h61.8l-15.2,24.3H562L577.1,363.5z M623.7,412.6l15.2,24.3h-61.7
			L562,412.6H623.7z"/>
	</g>
</g>
</svg>
