<?xml version="1.0" encoding="utf-8"?>
<!-- Generator: Adobe Illustrator 25.4.1, SVG Export Plug-In . SVG Version: 6.00 Build 0)  -->
<svg version="1.1" id="Layer_1" xmlns="http://www.w3.org/2000/svg" xmlns:xlink="http://www.w3.org/1999/xlink" x="0px" y="0px"
	 viewBox="0 0 800 800" style="enable-background:new 0 0 800 800;" xml:space="preserve">
<style type="text/css">
	.st0{opacity:0.1;fill:url(#SVGID_1_);enable-background:new    ;}
	.st1{fill:url(#SVGID_00000109737630435236055660000017452576945494712991_);}
	.st2{fill:url(#SVGID_00000016036763367125036880000005326153532763814048_);}
	.st3{fill:none;stroke:#FFFFFF;stroke-width:7.8817;stroke-miterlimit:10;}
	.st4{fill:#F18A00;}
	.st5{fill:none;stroke:#F18A00;stroke-width:23.6452;stroke-miterlimit:10;}
</style>
<g>
	<g>
		<g>
			
				<linearGradient id="SVGID_1_" gradientUnits="userSpaceOnUse" x1="752.7944" y1="-128.6043" x2="217.6075" y2="668.2283" gradientTransform="matrix(1 0 0 -1 0 800)">
				<stop  offset="0.1082" style="stop-color:#495867"/>
				<stop  offset="1" style="stop-color:#495867;stop-opacity:0.1"/>
			</linearGradient>
			<circle class="st0" cx="430" cy="448" r="338.4"/>
			<g>
				
					<linearGradient id="SVGID_00000029037869136356633490000012384246373957598604_" gradientUnits="userSpaceOnUse" x1="647.7658" y1="2.1343" x2="333.0834" y2="516.2192" gradientTransform="matrix(1 0 0 -1 0 800)">
					<stop  offset="0" style="stop-color:#F7F7FF"/>
					<stop  offset="1" style="stop-color:#DEDEE6;stop-opacity:0.1"/>
				</linearGradient>
				<circle style="fill:url(#SVGID_00000029037869136356633490000012384246373957598604_);" cx="400" cy="393.1" r="338.4"/>
				
					<linearGradient id="SVGID_00000177473628856061599180000007294587194223428538_" gradientUnits="userSpaceOnUse" x1="204.3085" y1="663.324" x2="294.6629" y2="544.9283" gradientTransform="matrix(1 0 0 -1 0 800)">
					<stop  offset="0" style="stop-color:#F7F7FF"/>
					<stop  offset="1" style="stop-color:#DEDEE6;stop-opacity:0.1"/>
				</linearGradient>
				<circle style="fill:url(#SVGID_00000177473628856061599180000007294587194223428538_);" cx="400" cy="393.1" r="338.4"/>
				<circle class="st3" cx="400" cy="393.1" r="338.4"/>
			</g>
		</g>
		<g>
			<g>
				<g>
					<g>
						<path class="st4" d="M392.2,582.3c-107.3,0-194.7-87.3-194.7-194.7c0-107.3,87.3-194.7,194.7-194.7s194.7,87.3,194.7,194.7
							S499.5,582.3,392.2,582.3z M392.2,237.3c-82.9,0-150.3,67.4-150.3,150.3S309.3,538,392.2,538s150.3-67.4,150.3-150.3
							S475.1,237.3,392.2,237.3z"/>
					</g>
					<g>
						<path class="st4" d="M392.2,488.7c-55.7,0-101-45.3-101-101s45.3-101,101-101s101,45.3,101,101S447.9,488.7,392.2,488.7z
							 M392.2,330.9c-31.3,0-56.7,25.4-56.7,56.7s25.4,56.7,56.7,56.7s56.7-25.4,56.7-56.7C448.9,356.4,423.5,330.9,392.2,330.9z"/>
					</g>
				</g>
				<g>
					<g>
						<path class="st4" d="M392.2,391.3c-1.2,0-2.4-0.6-3.1-1.7c-1.1-1.7-0.6-4,1.1-5.1L635.6,224c1.7-1.1,4-0.6,5.1,1.1
							c1.1,1.7,0.6,4-1.1,5.1L394.2,390.7C393.6,391.2,392.9,391.3,392.2,391.3z"/>
					</g>
					<g>
						<polygon class="st4" points="600.1,283.1 598.4,282.6 568.9,276.6 622.5,241.5 654,247.9 						"/>
						<path class="st4" d="M625.7,204.6l-7.3,30.8l-53.6,35.1c3.6-9.8,5.9-20.1,7.1-30.7L625.7,204.6z"/>
					</g>
				</g>
			</g>
		</g>
	</g>
	<circle class="st5" cx="400" cy="393.1" r="379.5"/>
</g>
</svg>
