<?xml version="1.0" encoding="UTF-8"?>
<svg id="Layer_1" xmlns="http://www.w3.org/2000/svg" version="1.1" xmlns:cc="http://creativecommons.org/ns#" xmlns:dc="http://purl.org/dc/elements/1.1/" xmlns:inkscape="http://www.inkscape.org/namespaces/inkscape" xmlns:rdf="http://www.w3.org/1999/02/22-rdf-syntax-ns#" xmlns:sodipodi="http://sodipodi.sourceforge.net/DTD/sodipodi-0.dtd" xmlns:svg="http://www.w3.org/2000/svg" viewBox="0 0 50 50">
  <!-- Generator: Adobe Illustrator 29.1.0, SVG Export Plug-In . SVG Version: 2.1.0 Build 142)  -->
  <defs>
    <style>
      .st0 {
        fill: #fff;
        fill-rule: evenodd;
      }
    </style>
  </defs>
  <path class="st0" d="M20.8,1.1c0-.6.5-1.1,1.1-1.1h6.2c.6,0,1.1.5,1.1,1.1v3h5.5c.6,0,1.1.5,1.1,1.1v1.6h5.3c.6,0,1.1.5,1.1,1.1v41c0,.6-.5,1.1-1.1,1.1H8.9c-.6,0-1.1-.5-1.1-1.1V7.9c0-.6.5-1.1,1.1-1.1h5.3v-1.6c0-.6.5-1.1,1.1-1.1h5.5V1.1ZM35.8,9h4.2v38.8H10V8.9h4.2v1.6c0,.6.5,1.1,1.1,1.1h19.5c.6,0,1-.5,1-1.1v-1.5ZM23,2.2v3c0,.6-.5,1.1-1.1,1.1h-5.5v3.2h17.3v-3.2h-5.5c-.6,0-1.1-.5-1.1-1.1v-3s-4.1,0-4.1,0ZM13.2,13.7c-.6,0-1.1.6-1.1,1.2v6.6c0,.6.5,1.1,1.1,1.1h6.7c.6,0,1.1-.5,1.1-1.1s-.5-1.1-1.1-1.1h-5.6v-4.5h3.5c.6,0,1.1-.5,1.1-1.1s-.5-1.1-1.1-1.1h-4.6ZM12.2,37.9c0-.6.5-1.1,1.1-1.1h4.6c.6,0,1.1.5,1.1,1.1s-.5,1.1-1.1,1.1h-3.5v4.5h5.6c.6,0,1.1.5,1.1,1.1s-.5,1.1-1.1,1.1h-6.7c-.6,0-1.1-.5-1.1-1.1v-6.7ZM13.2,25.2c-.6,0-1.1.6-1.1,1.2v6.6c0,.6.5,1.1,1.1,1.1h6.7c.6,0,1.1-.5,1.1-1.1s-.5-1.1-1.1-1.1h-5.6v-4.5h3.5c.6,0,1.1-.5,1.1-1.1s-.5-1.1-1.1-1.1h-4.6ZM21.6,15.3c.4.4.3,1.1-.1,1.5l-3.2,3c-.4.4-1.1.4-1.5,0l-1.6-1.5c-.4-.4-.5-1.1,0-1.5.4-.4,1.1-.5,1.5,0l.9.8,2.5-2.3c.4-.4,1.1-.4,1.5,0h0ZM21.4,28.3c.4-.4.5-1.1,0-1.5-.4-.4-1.1-.5-1.5,0l-2.5,2.3-.9-.8c-.4-.4-1.1-.4-1.5,0s-.4,1.1,0,1.5l1.6,1.5c.4.4,1.1.4,1.5,0l3.3-3ZM21.7,38.3c.4.4.3,1.1-.1,1.5l-3.2,3c-.4.4-1.1.4-1.5,0l-1.6-1.5c-.4-.4-.5-1.1,0-1.5.4-.4,1.1-.5,1.5,0l.9.8,2.5-2.3c.4-.4,1.1-.4,1.5,0h0ZM25.4,17.1c-.6,0-1.1.5-1.1,1.1s.5,1.1,1.1,1.1h11.3c.6,0,1.1-.5,1.1-1.1s-.5-1.1-1.1-1.1h-11.3ZM24.3,41.2c0-.6.5-1.1,1.1-1.1h11.3c.6,0,1.1.5,1.1,1.1s-.5,1.1-1.1,1.1h-11.3c-.6,0-1.1-.5-1.1-1.1ZM25.4,28.6c-.6,0-1.1.5-1.1,1.1s.5,1.1,1.1,1.1h11.3c.6,0,1.1-.5,1.1-1.1s-.5-1.1-1.1-1.1h-11.3Z"/>
</svg>