<svg xmlns="http://www.w3.org/2000/svg" xmlns:xlink="http://www.w3.org/1999/xlink" viewBox="0 0 788.11 788.11"><defs><style>.cls-1{isolation:isolate;}.cls-2{mix-blend-mode:multiply;opacity:0.1;fill:url(#linear-gradient);}.cls-3{fill:url(#linear-gradient-2);}.cls-4{fill:url(#linear-gradient-3);}.cls-5,.cls-7{fill:none;stroke-miterlimit:10;}.cls-5{stroke:#fff;stroke-width:7.87px;}.cls-6{fill:url(#linear-gradient-4);}.cls-7{stroke-width:31.48px;stroke:url(#linear-gradient-5);}</style><linearGradient id="linear-gradient" x1="752.27" y1="927.56" x2="217.85" y2="131.86" gradientTransform="translate(442.46 -172.9) rotate(45)" gradientUnits="userSpaceOnUse"><stop offset="0.11" stop-color="#495867"/><stop offset="1" stop-color="#495867" stop-opacity="0.1"/></linearGradient><linearGradient id="linear-gradient-2" x1="641.48" y1="798.26" x2="327.24" y2="284.91" gradientUnits="userSpaceOnUse"><stop offset="0" stop-color="#f7f7ff"/><stop offset="1" stop-color="#dedee6" stop-opacity="0.1"/></linearGradient><linearGradient id="linear-gradient-3" x1="198.65" y1="138.01" x2="288.88" y2="256.24" xlink:href="#linear-gradient-2"/><linearGradient id="linear-gradient-4" x1="400" y1="604.83" x2="400" y2="78.35" gradientUnits="userSpaceOnUse"><stop offset="0" stop-color="#e65100"/><stop offset="1" stop-color="#f57c00"/></linearGradient><linearGradient id="linear-gradient-5" x1="0" y1="394.05" x2="788.11" y2="394.05" xlink:href="#linear-gradient-4"/></defs><g class="cls-1"><g id="Layer_1" data-name="Layer 1"><circle class="cls-2" cx="429.94" cy="447.64" r="337.89" transform="translate(-196.55 436.4) rotate(-45)"/><circle class="cls-3" cx="394.05" cy="394.05" r="337.89"/><circle class="cls-4" cx="394.05" cy="394.05" r="337.89"/><circle class="cls-5" cx="394.05" cy="394.05" r="337.89"/><path class="cls-6" d="M400,633.34h0a355.1,355.1,0,0,1-186.82-312.7V182.75h0a375.66,375.66,0,0,1,373.64,0h0V320.64A355.1,355.1,0,0,1,400,633.34Z" transform="translate(-5.95 1.27)"/><circle class="cls-7" cx="394.05" cy="394.05" r="378.31"/></g></g></svg>