<?xml version="1.0" encoding="utf-8"?>
<!-- Generator: Adobe Illustrator 25.4.1, SVG Export Plug-In . SVG Version: 6.00 Build 0)  -->
<svg version="1.1" id="Capa_1" xmlns="http://www.w3.org/2000/svg" xmlns:xlink="http://www.w3.org/1999/xlink" x="0px" y="0px"
	 viewBox="0 0 800 800" style="enable-background:new 0 0 800 800;" xml:space="preserve">
<style type="text/css">
	.st0{fill:#FFFFFF;}
</style>
<g>
	<g>
		<path class="st0" d="M756.6,415.6l42.8-194.1c3.2-14.5-6-28.9-20.5-32.1c-14.5-3.2-28.9,6-32,20.5l-38.1,173H537.2
			c-14.8,0-26.9,12-26.9,26.9s12,26.9,26.9,26.9h10.2l-57.9,137.1c-5.8,13.7,0.6,29.5,14.3,35.2c3.4,1.4,7,2.1,10.5,2.1
			c10.5,0,20.4-6.2,24.8-16.4L592,469.6h83.9l52.8,125.1c5.8,13.7,21.6,20,35.2,14.3c13.7-5.8,20.1-21.5,14.3-35.2l-57.9-137.1h10.2
			C743,436.7,753.8,428,756.6,415.6z"/>
		<path class="st0" d="M252.6,436.7h10.2c14.8,0,26.9-12,26.9-26.9s-12-26.9-26.9-26.9H91.3l-38.1-173c-3.2-14.5-17.6-23.7-32-20.5
			C6.6,192.6-2.6,207,0.6,221.5l42.8,194.1c2.7,12.3,13.6,21.1,26.3,21.1h10.2l-58,137.2c-5.8,13.7,0.6,29.4,14.3,35.2
			s29.4-0.6,35.2-14.3l52.8-125.1h83.9L261,594.8c4.3,10.3,14.3,16.4,24.8,16.4c3.5,0,7-0.7,10.5-2.1c13.7-5.8,20.1-21.5,14.3-35.2
			L252.6,436.7z"/>
		<path class="st0" d="M442,557.4h-15.1V325.5h144.5c14.8,0,26.9-12,26.9-26.9s-12.1-26.9-26.9-26.9H228.6
			c-14.8,0-26.9,12.1-26.9,26.9s12.1,26.9,26.9,26.9h144.5v231.9H358c-14.8,0-26.9,12.1-26.9,26.9c0,14.8,12,26.9,26.9,26.9h84
			c14.9,0,26.9-12.1,26.9-26.9S456.9,557.4,442,557.4z"/>
	</g>
</g>
</svg>
