<?xml version="1.0" encoding="utf-8"?>
<!-- Generator: Adobe Illustrator 25.4.1, SVG Export Plug-In . SVG Version: 6.00 Build 0)  -->
<svg version="1.1" id="Layer_1" xmlns="http://www.w3.org/2000/svg" xmlns:xlink="http://www.w3.org/1999/xlink" x="0px" y="0px"
	 viewBox="0 0 800 800" style="enable-background:new 0 0 800 800;" xml:space="preserve">
<style type="text/css">
	.st0{fill:#F56800;}
</style>
<g>
	<g>
		<g>
			<path class="st0" d="M760,0H533.3C526,0,520,6,520,13.3s6,13.3,13.3,13.3H760c7.3,0,13.3,6,13.3,13.3v13.3h-200
				c-7.3,0-13.3,6-13.3,13.3S566,80,573.3,80h200v93.3H600c-7.3,0-13.3,6-13.3,13.3c0,7.3,6,13.3,13.3,13.3h173.3v13.3
				c0,7.3-6,13.3-13.3,13.3H586.7c-7.3,0-13.3,6-13.3,13.3c0,7.3,6,13.3,13.3,13.3h163.7l17.8,53.3H760H463.8
				C520.3,282,560,225.5,560,160C560,71.8,488.2,0,400,0S240,71.8,240,160c0,65.5,39.7,122,96.2,146.7H40h-8.2l17.8-53.3h177
				c7.3,0,13.3-6,13.3-13.3c0-7.3-6-13.3-13.3-13.3H40c-7.3,0-13.3-6-13.3-13.3V200H200c7.3,0,13.3-6,13.3-13.3
				c0-7.3-6-13.3-13.3-13.3H26.7V80h200c7.3,0,13.3-6,13.3-13.3s-6-13.3-13.3-13.3h-200V40c0-7.3,6-13.3,13.3-13.3h240
				c7.3,0,13.3-6,13.3-13.3S287.3,0,280,0H40C18,0,0,18,0,40v26.7v120v26.7c0,15.8,9.3,29.5,22.8,36L0.7,315.8
				c-1.3,4-0.7,8.5,1.8,12s6.5,5.5,10.8,5.5h13.3v389.2C11.2,728,0,742.7,0,760v26.7C0,794,6,800,13.3,800h773.3
				c7.3,0,13.3-6,13.3-13.3V760c0-17.3-11.2-32-26.7-37.5V333.3h13.3c4.3,0,8.3-2,10.8-5.5c2.5-3.5,3.2-8,1.8-12l-22.2-66.5
				c13.5-6.5,22.8-20.2,22.8-36v-26.7v-120V40C800,18,782,0,760,0z M266.7,160c0-73.5,59.8-133.3,133.3-133.3S533.3,86.5,533.3,160
				S473.5,293.3,400,293.3S266.7,233.5,266.7,160z M53.3,333.3h693.3V720H480v-93.3v-53.3v-200c0-7.3-6-13.3-13.3-13.3H333.3
				c-7.3,0-13.3,6-13.3,13.3v200v53.3V720H53.3C53.3,720,53.3,333.3,53.3,333.3z M346.7,613.3v-26.7h106.7v26.7H346.7z M453.3,640
				v80H346.7v-80H453.3z M346.7,560V386.7h106.7V560H346.7z M773.3,773.3H26.7V760c0-7.3,6-13.3,13.3-13.3h293.3h133.3H760
				c7.3,0,13.3,6,13.3,13.3V773.3z"/>
		</g>
	</g>
</g>
<g>
	<g>
		<g>
			<path class="st0" d="M280,360H93.3C86,360,80,366,80,373.3v240v53.3c0,7.3,6,13.3,13.3,13.3H280c7.3,0,13.3-6,13.3-13.3v-53.3
				v-240C293.3,366,287.3,360,280,360z M266.7,653.3h-160v-26.7h160V653.3z M266.7,600h-160V386.7h66.7v55.2c-23,6-40,26.7-40,51.5
				c0,7.3,6,13.3,13.3,13.3h80c7.3,0,13.3-6,13.3-13.3c0-24.8-17-45.5-40-51.5v-55.2h66.7V600z M186.7,466.7c9.8,0,18.5,5.3,23,13.3
				h-46.2C168.2,472,176.8,466.7,186.7,466.7z"/>
		</g>
	</g>
</g>
<g>
	<g>
		<g>
			<path class="st0" d="M706.7,360H520c-7.3,0-13.3,6-13.3,13.3v240v53.3c0,7.3,6,13.3,13.3,13.3h186.7c7.3,0,13.3-6,13.3-13.3
				v-53.3v-240C720,366,714,360,706.7,360z M693.3,653.3h-160v-26.7h160V653.3z M693.3,600h-160V386.7H600v55.2
				c-23,6-40,26.7-40,51.5c0,7.3,6,13.3,13.3,13.3h80c7.3,0,13.3-6,13.3-13.3c0-24.8-17-45.5-40-51.5v-55.2h66.7V600z M613.3,466.7
				c9.8,0,18.5,5.3,23,13.3h-46.2C594.8,472,603.5,466.7,613.3,466.7z"/>
		</g>
	</g>
</g>
<g>
	<g>
		<g>
			<path class="st0" d="M465.7,108c-5.7-31-33-54.7-65.7-54.7S340,77,334.3,108c-23.5,5.5-41,26.7-41,52c0,24.8,17,45.7,40,51.7
				v41.7c0,7.3,6,13.3,13.3,13.3h106.7c7.3,0,13.3-6,13.3-13.3v-41.7c23-6,40-26.8,40-51.7C506.7,134.8,489.2,113.7,465.7,108z
				 M453.3,186.7c-7.3,0-13.3,6-13.3,13.3v40h-80v-40c0-7.3-6-13.3-13.3-13.3c-14.7,0-26.7-12-26.7-26.7c0-13.8,10.5-25,24-26.3
				c17.2,8.8,16.7,21.5,16.3,24.2c-1.3,7.2,3.5,14,10.7,15.3c0.8,0.2,1.7,0.2,2.5,0.2c6.3,0,11.8-4.5,13-10.8
				c2.2-11.3-1.2-34.8-25.7-50C364.3,94,380.5,80,400,80c22,0,40,18,40,40c0,7.3,6,13.3,13.3,13.3c14.7,0,26.7,12,26.7,26.7
				S468,186.7,453.3,186.7z"/>
		</g>
	</g>
</g>
</svg>
