<?xml version="1.0" encoding="utf-8"?>
<!-- Generator: Adobe Illustrator 25.4.1, SVG Export Plug-In . SVG Version: 6.00 Build 0)  -->
<svg version="1.1" id="Layer_1" focusable="false" xmlns="http://www.w3.org/2000/svg" xmlns:xlink="http://www.w3.org/1999/xlink"
	 x="0px" y="0px" viewBox="0 0 800 800" style="enable-background:new 0 0 800 800;" xml:space="preserve">
<style type="text/css">
	.st0{fill:#F9F9F9;}
</style>
<g>
	<g>
		<path class="st0" d="M662.9,770.8H137.1c-5.4,0-9.7-4.3-9.7-9.7V438.4c0-3.8,2.2-7.3,5.7-8.8c3.5-1.6,7.5-1,10.4,1.5l58.9,51.7
			l57.5-54.6c3.8-3.6,9.7-3.5,13.4,0.1l57.2,55.8l60.4-57.5c3.8-3.6,9.8-3.6,13.5,0.2l57.5,57.5l63.5-56.3c3.8-3.4,9.6-3.2,13.2,0.3
			l55.5,54l61.9-61.9c2.8-2.8,6.9-3.6,10.6-2.1c3.6,1.5,6,5,6,9v334C672.6,766.5,668.2,770.8,662.9,770.8z M146.8,751.5h506.4V450.6
			L601,502.7c-3.7,3.8-9.8,3.8-13.6,0.1l-55.9-54.4L468,504.7c-3.8,3.4-9.7,3.2-13.3-0.4l-57.2-57.2l-60.3,57.4
			c-3.8,3.6-9.7,3.6-13.5-0.1l-57.2-55.8l-57.2,54.3c-3.6,3.5-9.3,3.6-13.1,0.3l-49.4-43.4V751.5z"/>
	</g>
	<g>
		<path class="st0" d="M579.8,706.9H215.4c-5.4,0-9.7-4.3-9.7-9.7v-139c0-5.4,4.3-9.7,9.7-9.7c5.4,0,9.7,4.3,9.7,9.7v129.3h345
			V556.6c0-5.4,4.3-9.7,9.7-9.7c5.4,0,9.7,4.3,9.7,9.7v140.6C589.5,702.6,585.1,706.9,579.8,706.9z"/>
	</g>
	<g>
		<path class="st0" d="M362.1,289.8H194.7c-16,0-29.1-13-29.1-29.1v-9.2c0-16,13-29.1,29.1-29.1h167.4c16,0,29.1,13,29.1,29.1v9.2
			C391.1,276.8,378.1,289.8,362.1,289.8z M194.7,241.9c-5.3,0-9.7,4.3-9.7,9.7v9.2c0,5.3,4.3,9.7,9.7,9.7h167.4
			c5.3,0,9.7-4.3,9.7-9.7v-9.2c0-5.3-4.3-9.7-9.7-9.7H194.7z"/>
	</g>
	<g>
		<path class="st0" d="M194.7,488.1c-5.4,0-9.7-4.3-9.7-9.7V284.9c0-5.4,4.3-9.7,9.7-9.7c5.4,0,9.7,4.3,9.7,9.7v193.4
			C204.4,483.7,200,488.1,194.7,488.1z"/>
	</g>
	<g>
		<path class="st0" d="M365.6,470.4c-5.4,0-9.7-4.3-9.7-9.7V288.1c0-5.4,4.3-9.7,9.7-9.7c5.4,0,9.7,4.3,9.7,9.7v172.6
			C375.3,466.1,371,470.4,365.6,470.4z"/>
	</g>
	<g>
		<path class="st0" d="M354.5,393.7H194.7c-5.4,0-9.7-4.3-9.7-9.7c0-5.4,4.3-9.7,9.7-9.7h159.7c5.4,0,9.7,4.3,9.7,9.7
			C364.2,389.4,359.8,393.7,354.5,393.7z"/>
	</g>
	<g>
		<path class="st0" d="M618.1,468.8c-0.1,0-0.1,0-0.2,0c-5.4-0.1-9.6-4.5-9.5-9.9c0-0.7,1.6-74.2,0-149.8
			c-1.4-69.3-54.4-94.2-56.6-95.2c-3.5-1.6-5.7-5-5.7-8.8V48.5h-50.9v159.7c0,3.5-1.9,6.8-5,8.5c-0.5,0.3-55.7,31.7-55.7,85.8v147
			c0,5.4-4.3,9.7-9.7,9.7c-5.4,0-9.7-4.3-9.7-9.7v-147c0-55.7,45.3-89.7,60.7-99.7v-164c0-5.4,4.3-9.7,9.7-9.7h70.3
			c5.4,0,9.7,4.3,9.7,9.7v160.3c16.2,9.3,60.9,41.1,62.3,109.5c1.6,76,0,149.9,0,150.6C627.7,464.6,623.4,468.8,618.1,468.8z"/>
	</g>
	<g>
		<path class="st0" d="M608.5,333H431.2c-5.4,0-9.7-4.3-9.7-9.7c0-5.4,4.3-9.7,9.7-9.7h177.4c5.4,0,9.7,4.3,9.7,9.7
			C618.2,328.7,613.9,333,608.5,333z"/>
	</g>
	<g>
		<path class="st0" d="M544.6,101.3h-49.5c-5.4,0-9.7-4.3-9.7-9.7c0-5.4,4.3-9.7,9.7-9.7h49.5c5.4,0,9.7,4.3,9.7,9.7
			C554.3,96.9,550,101.3,544.6,101.3z"/>
	</g>
</g>
</svg>
