<?xml version="1.0" encoding="utf-8"?>
<!-- Generator: Adobe Illustrator 25.4.1, SVG Export Plug-In . SVG Version: 6.00 Build 0)  -->
<svg version="1.1" id="Layer_1" xmlns="http://www.w3.org/2000/svg" xmlns:xlink="http://www.w3.org/1999/xlink" x="0px" y="0px"
	 viewBox="0 0 800 800" style="enable-background:new 0 0 800 800;" xml:space="preserve">
<style type="text/css">
	.st0{fill:#F56800;}
</style>
<g>
	<path class="st0" d="M728.3-0.3H71.7v96h34.1v704.5h364.7h158.8h64.8V95.7h34.1V-0.3z M489.1,781.7V557.2h121.7v224.5H489.1z
		 M675.6,781.7h-46.3V538.6H470.5v243.1H124.4V95.7h551.2V781.7z M709.7,77.2h-15.5H105.8H90.3V18.3h619.4V77.2z"/>
	<rect x="149.2" y="379.1" class="st0" width="501.7" height="18.6"/>
	<path class="st0" d="M194.7,502c25.2,0,45.6-20.4,45.6-45.6V408h-91.1v48.4C149.2,481.6,169.6,502,194.7,502z"/>
	<path class="st0" d="M297.4,502c25.2,0,45.6-20.4,45.6-45.6V408h-91.1v48.4C251.8,481.6,272.2,502,297.4,502z"/>
	<path class="st0" d="M354.4,456.4c0,25.2,20.4,45.6,45.6,45.6c25.2,0,45.6-20.4,45.6-45.6V408h-91.1V456.4z"/>
	<path class="st0" d="M457.1,456.4c0,25.2,20.4,45.6,45.6,45.6c25.2,0,45.6-20.4,45.6-45.6V408h-91.1V456.4z"/>
	<path class="st0" d="M559.7,456.4c0,25.2,20.4,45.6,45.6,45.6c25.2,0,45.6-20.4,45.6-45.6V408h-91.1V456.4z"/>
	<path class="st0" d="M356.4,140.7H161.3v195.1h195.1V140.7z M337.8,228.9h-69.7v-69.7h69.7V228.9z M249.6,159.2v69.7h-69.7v-69.7
		H249.6z M179.9,247.5h69.7v69.7h-69.7V247.5z M268.2,317.2v-69.7h69.7v69.7H268.2z"/>
	<path class="st0" d="M638.7,140.7H443.6v195.1h195.1V140.7z M620.1,228.9h-69.7v-69.7h69.7V228.9z M531.8,159.2v69.7h-69.7v-69.7
		H531.8z M462.2,247.5h69.7v69.7h-69.7V247.5z M550.4,317.2v-69.7h69.7v69.7H550.4z"/>
	<path class="st0" d="M579.8,643.9c-9.4,0-17,8-17,17.8c0,9.8,7.6,17.8,17,17.8c9.4,0,17-8,17-17.8
		C596.8,651.9,589.2,643.9,579.8,643.9z"/>
	<path class="st0" d="M215.1,633.8c-5.2-1.6-8.8-3.2-10.9-4.6c-2.1-1.5-3.2-3.3-3.2-5.6c0-2.5,1-4.5,3-6.1c2-1.6,4.7-2.4,8.3-2.4
		c3.7,0,6.7,1,8.7,2.9c2.1,1.9,3.1,4.4,3.1,7.5h13l0.1-0.3c0.1-5.7-2.1-10.6-6.7-14.5c-4.6-3.9-10.6-5.9-18-5.9
		c-7.3,0-13.3,1.7-18,5.2c-4.7,3.5-7,8-7,13.5s2,9.8,6.1,13c4.1,3.2,10.1,5.9,18.1,8.2c4.6,1.4,7.8,2.9,9.6,4.4
		c1.8,1.6,2.7,3.6,2.7,6.2c0,2.5-1,4.5-2.9,6c-1.9,1.5-4.7,2.3-8.4,2.3c-4.4,0-7.8-0.9-10.2-2.8c-2.4-1.9-3.7-4.8-3.7-8.8h-13.1
		l-0.1,0.3c-0.2,6.8,2.5,12.1,7.9,15.8c5.4,3.8,11.8,5.7,19.1,5.7c7.4,0,13.4-1.7,17.9-5c4.5-3.3,6.8-7.8,6.8-13.6
		c0-5.5-1.9-9.9-5.7-13.3C228.1,638.6,222.5,635.9,215.1,633.8z"/>
	<polygon class="st0" points="288.7,634.7 261.3,634.7 261.3,605.8 247.8,605.8 247.8,672.9 261.3,672.9 261.3,645 288.7,645 
		288.7,672.9 302.1,672.9 302.1,605.8 288.7,605.8 	"/>
	<path class="st0" d="M340.5,604.9c-8.3,0-15,2.7-20.1,8.1c-5.1,5.4-7.7,12.2-7.7,20.4v12.1c0,8.2,2.6,15,7.7,20.4
		c5.2,5.4,11.9,8.1,20.1,8.1c8.3,0,15.1-2.7,20.3-8.1c5.2-5.4,7.8-12.2,7.8-20.4v-12.1c0-8.2-2.6-15-7.8-20.4
		C355.6,607.5,348.8,604.9,340.5,604.9z M355.2,645.5c0,5.3-1.3,9.7-3.9,13c-2.6,3.4-6.2,5-10.8,5c-4.6,0-8.1-1.7-10.6-5
		c-2.6-3.4-3.8-7.7-3.8-13v-12.2c0-5.3,1.3-9.6,3.8-12.9c2.5-3.3,6.1-5,10.6-5c4.6,0,8.2,1.7,10.8,5c2.6,3.4,3.9,7.6,3.9,12.9V645.5
		z"/>
	<path class="st0" d="M405.9,605.8h-26.7v67.1h13.5v-24.3h13.3c7.7,0,13.8-2,18.2-5.9c4.4-3.9,6.6-9.1,6.6-15.5
		c0-6.4-2.2-11.6-6.6-15.5C419.7,607.8,413.6,605.8,405.9,605.8z M414.4,635.2c-1.9,2-4.8,3.1-8.5,3.1h-13.3v-22h13.3
		c3.8,0,6.6,1.1,8.6,3.2c1.9,2.1,2.9,4.8,2.9,8C417.3,630.5,416.3,633.1,414.4,635.2z"/>
</g>
</svg>
