<?xml version="1.0" encoding="utf-8"?>
<!-- Generator: Adobe Illustrator 25.4.1, SVG Export Plug-In . SVG Version: 6.00 Build 0)  -->
<svg version="1.1" id="Layer_1" xmlns="http://www.w3.org/2000/svg" xmlns:xlink="http://www.w3.org/1999/xlink" x="0px" y="0px"
	 viewBox="0 0 800 800" style="enable-background:new 0 0 800 800;" xml:space="preserve">
<style type="text/css">
	.st0{fill:#272525;}
</style>
<g id="XMLID_27428_">
	<path id="XMLID_27439_" class="st0" d="M227.5,392c0,23.4,1.5,43.9,8.7,74c12.9,52.5,44.3,124.2,55.4,148.6
		c-4.7,6.7-7.3,14.5-7.4,22.6c-0.1,10.2,3.7,19.8,10.4,27.3c-6.5,7.3-10.3,16.5-10.4,26.3c-0.1,11.5,4.8,22.1,12.9,29.9
		c-5.8,7-9.2,15.8-9.3,25.3c-0.2,23.3,20.1,42.5,45.2,42.8l163.5,2.1c0.2,0,0.4,0,0.7,0c12.5,0,24.5-4.8,33.1-13.1
		c7.9-7.7,12.3-17.9,12.4-28.6c0.1-11.5-4.8-22.1-12.9-29.9c5.8-7.1,9.2-15.8,9.3-25.3c0.1-10.2-3.7-19.7-10.4-27.2
		c6.5-7.3,10.3-16.5,10.4-26.4c0.1-10.2-3.8-19.7-10.3-27.1c11.5-25.5,42.1-95.8,54.8-147.4c7.2-30,8.7-50.6,8.7-74
		c0-100.6-81.8-182.4-182.4-182.4C309.3,209.6,227.5,291.5,227.5,392z M510.9,758.1c-3.5,3.4-8.6,5.6-14.1,5.3l-163.5-2.1
		c-10-0.1-18.1-6.8-18-14.9c0.1-6.2,5-11.7,12.4-13.7c6.3-1.7,10.5-7.5,10.2-14c-0.3-6.5-5.1-11.9-11.5-13
		c-8.4-1.4-14.7-7.7-14.6-14.6c0.1-5.9,4.7-11.3,11.6-13.4c5.8-1.8,9.7-7.1,9.7-13.1c0-6-3.9-11.4-9.6-13.2
		c-7-2.3-11.8-7.8-11.7-13.9c0-2.6,0.9-4.8,2.1-6.5h193.6c2.5,2.6,4.1,5.7,4.1,9.2c-0.1,5.9-4.7,11.2-11.5,13.4
		c-5.8,1.8-9.7,7.1-9.7,13.1c0,6,3.9,11.4,9.6,13.2c7,2.3,11.8,7.9,11.7,13.9c-0.1,6.2-5,11.7-12.3,13.6c-6.3,1.7-10.5,7.5-10.2,14
		c0.3,6.5,5.1,11.9,11.5,12.9c8.4,1.4,14.7,7.7,14.6,14.6C515,753.3,512.7,756.3,510.9,758.1z M409.9,237.3
		c85.3,0,154.8,69.4,154.8,154.8c0,21.4-1.3,40.1-7.9,67.4c-12.2,49.7-43.1,120.4-53.8,144H316.8c-10.6-23.6-41.5-94.3-53.8-143.9
		c-6.6-27.4-7.9-46.1-7.9-67.5C255.1,306.7,324.5,237.3,409.9,237.3z"/>
	<path id="XMLID_27436_" class="st0" d="M218.8,74c-2.7-3.4-6.5-5.5-10.7-6c-4.2-0.5-8.5,0.7-11.9,3.3c-3.4,2.7-5.5,6.5-6,10.8
		c-0.5,4.3,0.7,8.5,3.3,11.8l82.3,104.5c3.1,3.9,7.8,6.1,12.7,6.1c0.2,0,0.4,0,0.5,0h0c3.4-0.1,6.7-1.3,9.4-3.4
		c3.4-2.7,5.5-6.5,6-10.8c0.5-4.3-0.7-8.5-3.3-11.8L218.8,74z M289.9,190.3c-0.4,0.3-0.8,0.5-1.3,0.5c-0.7,0.1-1.4-0.3-1.9-0.9
		L204.4,85.4c-0.5-0.6-0.5-1.3-0.5-1.7c0.1-0.4,0.2-1,0.9-1.5c0.5-0.4,1-0.5,1.4-0.5c0.1,0,0.2,0,0.3,0c0.4,0,1,0.2,1.6,0.9
		l82.3,104.5c0.5,0.6,0.5,1.3,0.5,1.7C290.7,189.1,290.5,189.8,289.9,190.3z"/>
	<path id="XMLID_27433_" class="st0" d="M517,200.7L517,200.7c2.7,1.8,5.7,2.7,8.9,2.7c0.2,0,0.4,0,0.6,0c5.2-0.2,10-2.9,12.9-7.2
		l67.9-102.1c2.4-3.6,3.2-7.9,2.4-12.1c-0.8-4.2-3.3-7.8-6.9-10.2c-3.6-2.4-7.9-3.2-12.1-2.4c-4.2,0.9-7.9,3.3-10.2,6.9l-67.9,102.1
		c-2.4,3.6-3.2,7.9-2.4,12.1C511,194.7,513.5,198.3,517,200.7z M524,186l67.9-102.1c0.5-0.7,1.1-0.9,1.5-1c0.3-0.1,1-0.1,1.7,0.3
		c0.7,0.5,0.9,1.1,1,1.5c0.1,0.4,0.1,1.1-0.3,1.7l-67.9,102.1c-0.6,0.9-1.5,1-1.8,1c-0.4,0-0.9-0.1-1.3-0.4c-0.7-0.5-0.9-1.1-1-1.5
		C523.6,187.4,523.6,186.7,524,186z"/>
	<path id="XMLID_27430_" class="st0" d="M406.5,176.8c0.2,0,0.5,0,0.7,0c0.2,0,0.4,0,0.6,0c8.3-0.3,15.2-7,15.5-15.4L429,25.8
		c0.2-4.3-1.3-8.4-4.2-11.6s-6.9-5-11.1-5.2c-4.3-0.1-8.4,1.3-11.6,4.2c-3.2,2.9-5,6.9-5.2,11.2l-5.7,135.7
		c-0.2,4.3,1.3,8.4,4.2,11.6C398.3,174.8,402.2,176.6,406.5,176.8L406.5,176.8z M404.9,160.6L410.6,25c0-0.8,0.5-1.4,0.7-1.6
		c0.3-0.3,0.9-0.6,1.6-0.6c0.8,0,1.3,0.4,1.6,0.7c0.2,0.3,0.6,0.8,0.6,1.7l-5.7,135.6c-0.1,1.2-1,2.2-2.3,2.2h-0.1
		c-0.8,0-1.3-0.4-1.6-0.7C405.3,162,404.9,161.5,404.9,160.6z"/>
	<path id="XMLID_27429_" class="st0" d="M312.1,366.3L312.1,366.3c8.3,0.5,15.6-5.8,16.1-14.1c0.3-4,0.9-7.8,1.8-11.6
		c6.3-25,26.6-34.8,42.5-38.6c7.5-1.8,12.9-2,13.5-2c8.3-0.2,15-7.1,14.8-15.5c-0.2-8.2-7-14.8-15.5-14.8
		c-28.4,0.6-83.2,18.2-87.3,80.5C297.4,358.5,303.8,365.7,312.1,366.3z"/>
</g>
</svg>
