<?xml version="1.0" encoding="utf-8"?>
<!-- Generator: Adobe Illustrator 25.4.1, SVG Export Plug-In . SVG Version: 6.00 Build 0)  -->
<svg version="1.1" id="Icons" xmlns="http://www.w3.org/2000/svg" xmlns:xlink="http://www.w3.org/1999/xlink" x="0px" y="0px"
	 viewBox="0 0 800 800" style="enable-background:new 0 0 800 800;" xml:space="preserve">
<style type="text/css">
	.st0{fill:#46B22B;}
</style>
<g>
	<path class="st0" d="M598.3,109.4c-7.6-4.8-17.6-2.5-22.4,5.1c-4.8,7.6-2.5,17.6,5.1,22.4c48.1,30.2,88.3,72.2,116.2,121.6
		c28.8,50.9,44,108.9,44,167.8c0,71.4-21.8,139.4-62.2,196.5c-70.6-31.2-165.5-50.7-270.3-51.8c0,0,0,0,0,0
		c17.5-82.8,45.3-115.9,45.3-115.9c77.2,19.3,137.6-11.5,167.8-57c31.9-48.1,32.3-113.5,5.5-161.1c-48.4,42.4-123.9,42.5-171.2,86
		c-28.9,26.5-43.1,68-37.2,106.7c10.4-11.5,21.1-22.6,32.4-33.2c32.3-30.3,69-56.4,109.7-72.7c-68.1,37.3-132.3,100.1-165.6,206.6
		c-35.2-90.6-94.1-146-156.4-180.1c40.7,16.3,77.4,42.4,109.7,72.7c11.3,10.6,22,21.7,32.4,33.2c5.9-38.7-8.3-80.2-37.2-106.7
		c-47.4-43.5-122.9-43.7-171.2-86c-26.8,47.5-26.4,113,5.5,161.1c30.2,45.5,90.6,76.2,167.8,57c0,0,21.7,25.8,38.8,89
		c0,0.2-0.1,0.4-0.1,0.5c-102.2,1.8-194.6,21.1-263.7,51.7c-40.4-57.1-62.2-125.2-62.2-196.5c0-91.2,35.5-176.9,100-241.3
		c62.6-62.6,145.3-97.9,233.5-99.9L371,102.5c-6.9,5.7-8,15.9-2.3,22.8c3.2,3.9,7.9,5.9,12.6,5.9c3.6,0,7.2-1.2,10.3-3.7l54.4-44.5
		c6.9-5.7,8-15.9,2.3-22.8L403.7,6C398-1,387.8-2,380.9,3.7c-6.9,5.7-8,15.9-2.3,22.8l21.3,26.1c-99.8,0-193.6,38.9-264.2,109.5
		C65.2,232.6,26.3,326.5,26.3,426.3S65.2,620,135.7,690.5S300.2,800,400,800s193.7-38.9,264.3-109.5s109.5-164.4,109.5-264.3
		c0-64.4-16.7-128-48.2-183.7C694.9,188.5,650.9,142.5,598.3,109.4z"/>
</g>
</svg>
