<svg id="Layer_1" data-name="Layer 1" xmlns="http://www.w3.org/2000/svg" viewBox="0 0 764.76 575.56"><defs><style>.cls-1{fill:#272525;}</style></defs><path class="cls-1" d="M671.33,129.26H483.73A66.58,66.58,0,0,0,439.64,146V112.22H49.78V454.48a51,51,0,0,0-32.16,47.33v42a51,51,0,0,0,51,51h44.21c0,.4-.06.77-.06,1.14a91.84,91.84,0,1,0,183.68,0c0-.37-.06-.74-.08-1.14H535.66c0,.4-.06.77-.06,1.14a91.84,91.84,0,1,0,183.67,0,90.89,90.89,0,0,0-.84-11.75,111.12,111.12,0,0,0,64-100.44V240.29A111.17,111.17,0,0,0,671.33,129.26ZM72.61,135h344.2V450.83H72.61ZM204.59,665a69,69,0,1,1,69-69A69.1,69.1,0,0,1,204.59,665Zm422.84,0a69,69,0,1,1,69-69A69.09,69.09,0,0,1,627.43,665ZM759.57,483.74a88.26,88.26,0,0,1-47,77.93A91.73,91.73,0,0,0,538.88,572H293.14A91.71,91.71,0,0,0,116,572H68.6a28.16,28.16,0,0,1-28.14-28.15v-42A28.16,28.16,0,0,1,68.6,473.66h371V196.17a44.15,44.15,0,0,1,44.09-44.08h187.6a88.33,88.33,0,0,1,88.24,88.2Z" transform="translate(-17.62 -112.22)"/><path class="cls-1" d="M204.59,551.66a44.28,44.28,0,1,0,44.26,44.27A44.33,44.33,0,0,0,204.59,551.66Zm0,65.74A21.45,21.45,0,1,1,226,595.93,21.48,21.48,0,0,1,204.59,617.4Z" transform="translate(-17.62 -112.22)"/><path class="cls-1" d="M627.43,551.66a44.28,44.28,0,1,0,44.29,44.27A44.33,44.33,0,0,0,627.43,551.66Zm0,65.74a21.45,21.45,0,1,1,21.45-21.47A21.49,21.49,0,0,1,627.43,617.4Z" transform="translate(-17.62 -112.22)"/><path class="cls-1" d="M659.42,224.45H606v-.68h-128V386.16H659.42a59.91,59.91,0,0,0,59.85-59.84v-42A59.9,59.9,0,0,0,659.42,224.45Zm37,101.87a37,37,0,0,1-37,37H500.75V246.6h82.41v.69h76.26a37,37,0,0,1,37,37Z" transform="translate(-17.62 -112.22)"/></svg>