<?xml version="1.0" encoding="utf-8"?>
<!-- Generator: Adobe Illustrator 25.4.1, SVG Export Plug-In . SVG Version: 6.00 Build 0)  -->
<svg version="1.1" id="Layer_1" xmlns="http://www.w3.org/2000/svg" xmlns:xlink="http://www.w3.org/1999/xlink" x="0px" y="0px"
	 viewBox="0 0 800 800" style="enable-background:new 0 0 800 800;" xml:space="preserve">
<style type="text/css">
	.st0{fill:url(#SVGID_1_);}
	.st1{fill:#FFFFFF;}
	.st2{fill:url(#SVGID_00000125560784905036773320000008093263208127087766_);}
	.st3{fill:url(#SVGID_00000031896805132255679000000017792819994183435939_);}
	.st4{fill:url(#SVGID_00000089567669728493371180000008493012692656337855_);}
	.st5{fill:url(#SVGID_00000129178074140542117790000008028241926868719502_);}
	.st6{fill:url(#SVGID_00000052067378899629102330000004496801492632498359_);}
	.st7{fill:url(#SVGID_00000183240837708829329360000015241771824880921776_);}
</style>
<g>
	<g>
		<linearGradient id="SVGID_1_" gradientUnits="userSpaceOnUse" x1="526.4766" y1="526.4652" x2="139.942" y2="139.9307">
			<stop  offset="0" style="stop-color:#BA0826"/>
			<stop  offset="0.9995" style="stop-color:#FF7F83"/>
		</linearGradient>
		<path class="st0" d="M800,291.4L291.4,800C122.8,749.6,0,593.4,0,408.5C0,182.9,182.9,0,408.5,0C593.4,0,749.7,122.8,800,291.4z"
			/>
		<g>
			
				<image style="overflow:visible;opacity:0.45;" width="1041" height="1041" xlink:href="6F616CFB.png"  transform="matrix(1 0 0 1 -46.9173 -46.9173)">
			</image>
			<g>
				
					<ellipse transform="matrix(0.7071 -0.7071 0.7071 0.7071 -169.2165 408.5273)" class="st1" cx="408.5" cy="408.5" rx="381" ry="381"/>
			</g>
		</g>
	</g>
	<g>
		
			<linearGradient id="SVGID_00000172408000934098932410000015433485243895636383_" gradientUnits="userSpaceOnUse" x1="552.9107" y1="540.1628" x2="296.2264" y2="283.4785">
			<stop  offset="0" style="stop-color:#BA0826"/>
			<stop  offset="0.9995" style="stop-color:#FF7F83"/>
		</linearGradient>
		<path style="fill:url(#SVGID_00000172408000934098932410000015433485243895636383_);" d="M684.3,403.8c0,0-119.9,122-267.7,122
			s-267.7-122-267.7-122s119.9-122,267.7-122S684.3,403.8,684.3,403.8z"/>
		<circle class="st1" cx="416.6" cy="403.8" r="95.1"/>
		
			<linearGradient id="SVGID_00000142865033755493889140000002432353332455278225_" gradientUnits="userSpaceOnUse" x1="442.6858" y1="429.9382" x2="393.8755" y2="381.128">
			<stop  offset="0" style="stop-color:#BA0826"/>
			<stop  offset="0.9995" style="stop-color:#FF7F83"/>
		</linearGradient>
		<path style="fill:url(#SVGID_00000142865033755493889140000002432353332455278225_);" d="M479.1,403.8c0-34.5-28-62.5-62.5-62.5
			s-62.5,28-62.5,62.5s28,62.5,62.5,62.5S479.1,438.4,479.1,403.8z"/>
		<path class="st1" d="M428.5,394.6c0-11.7-9.5-21.2-21.2-21.2s-21.2,9.5-21.2,21.2c0,11.7,9.5,21.2,21.2,21.2
			S428.5,406.3,428.5,394.6z"/>
	</g>
</g>
<g>
	<g>
		<g>
			
				<image style="overflow:visible;opacity:0.45;" width="1021" height="1021" xlink:href="6F616CF9.png"  transform="matrix(1 0 0 1 -866.139 -46.139)">
			</image>
		</g>
	</g>
</g>
</svg>
