<?xml version="1.0" encoding="utf-8"?>
<!-- Generator: Adobe Illustrator 25.4.1, SVG Export Plug-In . SVG Version: 6.00 Build 0)  -->
<svg version="1.1" id="Layer_1" xmlns="http://www.w3.org/2000/svg" xmlns:xlink="http://www.w3.org/1999/xlink" x="0px" y="0px"
	 viewBox="0 0 800 800" style="enable-background:new 0 0 800 800;" xml:space="preserve">
<style type="text/css">
	.st0{opacity:0.1;fill:url(#SVGID_1_);enable-background:new    ;}
	.st1{fill:url(#SVGID_00000162341352170172075000000017075591717637383585_);}
	.st2{fill:url(#SVGID_00000115509800231669128380000011664076085165596604_);}
	.st3{fill:none;stroke:#FFFFFF;stroke-width:7.8817;stroke-miterlimit:10;}
	.st4{fill:none;stroke:#F18A00;stroke-width:23.6452;stroke-miterlimit:10;}
	.st5{fill:#F18A00;}
	.st6{fill:#FFFFFF;}
</style>
<g>
	<g>
		<g>
			
				<linearGradient id="SVGID_1_" gradientUnits="userSpaceOnUse" x1="760.0944" y1="-132.4044" x2="224.9075" y2="664.4284" gradientTransform="matrix(1 0 0 -1 0 800)">
				<stop  offset="0.1082" style="stop-color:#495867"/>
				<stop  offset="1" style="stop-color:#495867;stop-opacity:0.1"/>
			</linearGradient>
			<circle class="st0" cx="437.3" cy="451.8" r="338.4"/>
			<g>
				
					<linearGradient id="SVGID_00000103964057572166047430000010605826336604344963_" gradientUnits="userSpaceOnUse" x1="655.0658" y1="-1.6657" x2="340.3833" y2="512.4193" gradientTransform="matrix(1 0 0 -1 0 800)">
					<stop  offset="0" style="stop-color:#F7F7FF"/>
					<stop  offset="1" style="stop-color:#DEDEE6;stop-opacity:0.1"/>
				</linearGradient>
				<circle style="fill:url(#SVGID_00000103964057572166047430000010605826336604344963_);" cx="407.3" cy="396.9" r="338.4"/>
				
					<linearGradient id="SVGID_00000183939264831021888200000002782803617849087912_" gradientUnits="userSpaceOnUse" x1="211.6085" y1="659.524" x2="301.9629" y2="541.1283" gradientTransform="matrix(1 0 0 -1 0 800)">
					<stop  offset="0" style="stop-color:#F7F7FF"/>
					<stop  offset="1" style="stop-color:#DEDEE6;stop-opacity:0.1"/>
				</linearGradient>
				<circle style="fill:url(#SVGID_00000183939264831021888200000002782803617849087912_);" cx="407.3" cy="396.9" r="338.4"/>
				<circle class="st3" cx="407.3" cy="396.9" r="338.4"/>
			</g>
		</g>
	</g>
	<circle class="st4" cx="407.3" cy="396.9" r="379.5"/>
</g>
<g>
	<g>
		<path class="st5" d="M684.3,403.8c0,0-119.9,122-267.7,122s-267.7-122-267.7-122s119.9-122,267.7-122S684.3,403.8,684.3,403.8z"/>
		<circle class="st6" cx="416.6" cy="403.8" r="95.1"/>
		<path class="st5" d="M479.1,403.8c0-34.5-28-62.5-62.5-62.5s-62.5,28-62.5,62.5s28,62.5,62.5,62.5S479.1,438.4,479.1,403.8z"/>
		<path class="st6" d="M428.5,394.6c0-11.7-9.5-21.2-21.2-21.2s-21.2,9.5-21.2,21.2s9.5,21.2,21.2,21.2S428.5,406.3,428.5,394.6z"/>
	</g>
</g>
</svg>
