<?xml version="1.0" encoding="utf-8"?>
<!-- Generator: Adobe Illustrator 25.4.1, SVG Export Plug-In . SVG Version: 6.00 Build 0)  -->
<svg version="1.1" id="Layer_1" xmlns="http://www.w3.org/2000/svg" xmlns:xlink="http://www.w3.org/1999/xlink" x="0px" y="0px"
	 viewBox="0 0 800 800" style="enable-background:new 0 0 800 800;" xml:space="preserve">
<style type="text/css">
	.st0{opacity:0.1;fill:url(#SVGID_1_);}
	.st1{fill:url(#SVGID_00000172441193800511989560000002815095778262923957_);}
	.st2{fill:url(#SVGID_00000044884241139800104100000017116706052964404888_);}
	.st3{fill:none;stroke:#FFFFFF;stroke-width:7.8817;stroke-miterlimit:10;}
	
		.st4{fill:none;stroke:url(#SVGID_00000115514018409296596010000004787422091256544657_);stroke-width:23.6452;stroke-miterlimit:10;}
	.st5{fill:url(#SVGID_00000051363427901997429060000005950433071897109945_);}
	.st6{fill:#FFFFFF;}
	.st7{fill:url(#SVGID_00000072279558927481465040000005510554860528941980_);}
</style>
<g>
	<g>
		<g>
			<linearGradient id="SVGID_1_" gradientUnits="userSpaceOnUse" x1="760.0761" y1="932.4166" x2="224.8892" y2="135.5839">
				<stop  offset="0.1082" style="stop-color:#495867"/>
				<stop  offset="1" style="stop-color:#495867;stop-opacity:0.1"/>
			</linearGradient>
			<circle class="st0" cx="437.3" cy="451.8" r="338.4"/>
			<g>
				
					<linearGradient id="SVGID_00000120551788864557271970000008853845519539733387_" gradientUnits="userSpaceOnUse" x1="655.0772" y1="801.6587" x2="340.3947" y2="287.5738">
					<stop  offset="0" style="stop-color:#F7F7FF"/>
					<stop  offset="1" style="stop-color:#DEDEE6;stop-opacity:0.1"/>
				</linearGradient>
				<circle style="fill:url(#SVGID_00000120551788864557271970000008853845519539733387_);" cx="407.3" cy="396.9" r="338.4"/>
				
					<linearGradient id="SVGID_00000158003925403609896350000000848801320135575700_" gradientUnits="userSpaceOnUse" x1="211.6208" y1="140.4666" x2="301.9752" y2="258.8623">
					<stop  offset="0" style="stop-color:#F7F7FF"/>
					<stop  offset="1" style="stop-color:#DEDEE6;stop-opacity:0.1"/>
				</linearGradient>
				<circle style="fill:url(#SVGID_00000158003925403609896350000000848801320135575700_);" cx="407.3" cy="396.9" r="338.4"/>
				<circle class="st3" cx="407.3" cy="396.9" r="338.4"/>
			</g>
		</g>
	</g>
	
		<linearGradient id="SVGID_00000013179024337040817440000001741707857034272407_" gradientUnits="userSpaceOnUse" x1="16.012" y1="396.8743" x2="798.588" y2="396.8743">
		<stop  offset="5.327789e-09" style="stop-color:#FF6A6E"/>
		<stop  offset="1" style="stop-color:#D40005"/>
	</linearGradient>
	
		<circle style="fill:none;stroke:url(#SVGID_00000013179024337040817440000001741707857034272407_);stroke-width:23.6452;stroke-miterlimit:10;" cx="407.3" cy="396.9" r="379.5"/>
</g>
<g>
	<g>
	</g>
	<g>
		
			<linearGradient id="SVGID_00000107572344253069220440000008581941403257276327_" gradientUnits="userSpaceOnUse" x1="552.9368" y1="259.8633" x2="296.2524" y2="516.5475" gradientTransform="matrix(1 0 0 -1 0 800)">
			<stop  offset="0" style="stop-color:#BA0826"/>
			<stop  offset="0.9995" style="stop-color:#FF7F83"/>
		</linearGradient>
		<path style="fill:url(#SVGID_00000107572344253069220440000008581941403257276327_);" d="M684.3,403.8c0,0-119.9,122-267.7,122
			s-267.7-122-267.7-122s119.9-122,267.7-122S684.3,403.8,684.3,403.8z"/>
		<circle class="st6" cx="416.6" cy="403.8" r="95.1"/>
		
			<linearGradient id="SVGID_00000003075084233492186180000005644023374290905272_" gradientUnits="userSpaceOnUse" x1="442.712" y1="370.088" x2="393.9017" y2="418.8983" gradientTransform="matrix(1 0 0 -1 0 800)">
			<stop  offset="0" style="stop-color:#BA0826"/>
			<stop  offset="0.9995" style="stop-color:#FF7F83"/>
		</linearGradient>
		<path style="fill:url(#SVGID_00000003075084233492186180000005644023374290905272_);" d="M479.1,403.8c0-34.5-28-62.5-62.5-62.5
			s-62.5,28-62.5,62.5s28,62.5,62.5,62.5S479.1,438.4,479.1,403.8z"/>
		<path class="st6" d="M428.5,394.6c0-11.7-9.5-21.2-21.2-21.2s-21.2,9.5-21.2,21.2s9.5,21.2,21.2,21.2S428.5,406.3,428.5,394.6z"/>
	</g>
</g>
</svg>
