<?xml version="1.0" encoding="utf-8"?>
<!-- Generator: Adobe Illustrator 25.4.1, SVG Export Plug-In . SVG Version: 6.00 Build 0)  -->
<svg version="1.1" id="Layer_1" xmlns="http://www.w3.org/2000/svg" xmlns:xlink="http://www.w3.org/1999/xlink" x="0px" y="0px"
	 viewBox="0 0 146 30" style="enable-background:new 0 0 146 30;" xml:space="preserve">
<style type="text/css">
	.st0{fill:#FF6633;}
	.st1{fill:#151515;}
</style>
<path class="st0" d="M13.8,30c1.6,0,2.9-1.3,2.9-2.9c0-1.6-1.3-2.9-2.9-2.9c-1.6,0-2.9,1.3-2.9,2.9C10.9,28.7,12.2,30,13.8,30z"/>
<path class="st0" d="M24.8,30c1.6,0,2.9-1.3,2.9-2.9c0-1.6-1.3-2.9-2.9-2.9c-1.6,0-2.9,1.3-2.9,2.9C21.9,28.7,23.2,30,24.8,30z"/>
<path class="st0" d="M8.8,7L6.4,0H1.6C0.7,0,0,0.7,0,1.6c0,0.9,0.7,1.6,1.6,1.6h2.6l2.3,6.8H4.4c-0.7,0-1.3,0.6-1.3,1.3
	c0,0.7,0.6,1.3,1.3,1.3h0.1h2.9h4.4c0.7,0,1.3,0.6,1.3,1.3S12.5,15,11.8,15H8.2H6.1c-0.7,0-1.3,0.6-1.3,1.3c0,0.7,0.5,1.2,1.2,1.3
	h5.7c0.7,0,1.3,0.6,1.3,1.3c0,0.7-0.6,1.3-1.3,1.3H10l1,2.8h14.5c1.4,0,2.8-1,3.1-2.4L31.9,7L8.8,7z"/>
<path class="st1" d="M39.8,29.6V0H46v13h0.4L57.1,0h7.5l-11,13.2l11.1,16.3h-7.5l-8.1-12.2L46,21.2v8.4H39.8z"/>
<path class="st1" d="M74,30c-1.4,0-2.7-0.2-3.8-0.7c-1.1-0.5-2-1.2-2.6-2.2c-0.6-1-1-2.2-1-3.7c0-1.2,0.2-2.3,0.7-3.1
	c0.5-0.8,1.1-1.5,1.8-2c0.8-0.5,1.7-0.9,2.7-1.2c1-0.3,2.1-0.4,3.1-0.5c1.3-0.1,2.3-0.3,3.1-0.4c0.8-0.1,1.4-0.3,1.7-0.5
	c0.4-0.2,0.5-0.6,0.5-1.1v-0.1c0-0.9-0.3-1.6-0.9-2.1c-0.6-0.5-1.4-0.8-2.4-0.8c-1.1,0-2,0.2-2.6,0.7c-0.7,0.5-1.1,1.1-1.3,1.8
	l-5.7-0.5c0.3-1.3,0.9-2.5,1.7-3.5c0.8-1,1.9-1.8,3.3-2.3c1.3-0.5,2.9-0.8,4.7-0.8c1.2,0,2.4,0.1,3.5,0.4c1.1,0.3,2.1,0.7,3,1.3
	c0.9,0.6,1.6,1.4,2.1,2.3c0.5,0.9,0.8,2.1,0.8,3.4v15h-5.8v-3.1h-0.2c-0.4,0.7-0.8,1.3-1.4,1.8c-0.6,0.5-1.3,0.9-2.2,1.2
	C76.1,29.8,75.1,30,74,30z M75.8,25.7c0.9,0,1.7-0.2,2.4-0.5c0.7-0.4,1.2-0.9,1.6-1.5c0.4-0.6,0.6-1.3,0.6-2.1v-2.4
	c-0.2,0.1-0.5,0.2-0.8,0.3c-0.3,0.1-0.7,0.2-1.1,0.3c-0.4,0.1-0.8,0.1-1.2,0.2c-0.4,0.1-0.8,0.1-1.1,0.2c-0.7,0.1-1.4,0.3-1.9,0.5
	c-0.5,0.2-1,0.5-1.3,0.9c-0.3,0.4-0.4,0.9-0.4,1.4c0,0.8,0.3,1.5,0.9,1.9C74.1,25.5,74.8,25.7,75.8,25.7z"/>
<path class="st1" d="M91.3,29.6V7.4h6v3.9h0.2c0.4-1.4,1.1-2.4,2-3.1c1-0.7,2.1-1.1,3.3-1.1c0.3,0,0.6,0,1,0.1
	c0.4,0,0.7,0.1,0.9,0.2v5.5c-0.3-0.1-0.7-0.2-1.2-0.2c-0.5-0.1-1-0.1-1.4-0.1c-0.9,0-1.7,0.2-2.4,0.6c-0.7,0.4-1.3,0.9-1.7,1.6
	c-0.4,0.7-0.6,1.5-0.6,2.4v12.5H91.3z"/>
<path class="st1" d="M120.8,7.4V12h-13.4V7.4H120.8z M110.5,2.1h6.2v20.7c0,0.6,0.1,1,0.3,1.3c0.2,0.3,0.4,0.5,0.7,0.6
	c0.3,0.1,0.7,0.2,1.1,0.2c0.3,0,0.6,0,0.9-0.1c0.3-0.1,0.5-0.1,0.7-0.1l1,4.6c-0.3,0.1-0.7,0.2-1.3,0.3c-0.6,0.1-1.2,0.2-2,0.2
	c-1.5,0.1-2.8-0.1-3.9-0.6c-1.1-0.5-2-1.2-2.6-2.1c-0.6-1-0.9-2.2-0.9-3.6V2.1z"/>
<path class="st1" d="M134.6,30c-2.2,0-4.2-0.5-5.8-1.4c-1.6-1-2.9-2.3-3.8-4c-0.9-1.7-1.3-3.7-1.3-6c0-2.3,0.4-4.3,1.3-6
	c0.9-1.7,2.1-3.1,3.8-4c1.6-1,3.6-1.4,5.8-1.4c2.2,0,4.2,0.5,5.8,1.4c1.6,1,2.9,2.3,3.8,4c0.9,1.7,1.3,3.7,1.3,6
	c0,2.3-0.4,4.3-1.3,6c-0.9,1.7-2.1,3.1-3.8,4C138.8,29.5,136.9,30,134.6,30z M134.6,25.2c1,0,1.9-0.3,2.6-0.9
	c0.7-0.6,1.2-1.4,1.5-2.4c0.4-1,0.5-2.2,0.5-3.5s-0.2-2.4-0.5-3.5c-0.3-1-0.9-1.8-1.5-2.4c-0.7-0.6-1.5-0.9-2.6-0.9
	c-1,0-1.9,0.3-2.6,0.9c-0.7,0.6-1.2,1.4-1.6,2.4c-0.3,1-0.5,2.2-0.5,3.5s0.2,2.4,0.5,3.5c0.4,1,0.9,1.8,1.6,2.4
	C132.8,24.9,133.6,25.2,134.6,25.2z"/>
</svg>
